<svg width="18" height="17" viewBox="0 0 18 17" fill="none" xmlns="http://www.w3.org/2000/svg">
<path d="M15.6199 13.1527C15.6199 13.6771 15.4074 14.1518 15.0637 14.4954C14.7201 14.839 14.2454 15.0515 13.7211 15.0515C12.6724 15.0515 11.8223 14.2014 11.8223 13.1527C11.8223 12.1041 12.6724 11.2539 13.7211 11.2539C14.7697 11.2539 15.6199 12.1041 15.6199 13.1527Z" stroke="#515164" stroke-width="1.25" stroke-linecap="round" stroke-linejoin="round"/>
<path d="M16.57 15.9997L15.0645 14.4941" stroke="#515164" stroke-width="1.25" stroke-linecap="round" stroke-linejoin="round"/>
<path d="M8.97502 10.9688H5.38626C4.2733 10.9688 3.71681 10.9688 3.264 11.1061C2.24447 11.4154 1.44663 12.2132 1.13736 13.2328C1 13.6856 1 14.2421 1 15.355M10.9688 4.58876C10.9688 6.57078 9.36203 8.17752 7.38002 8.17752C5.398 8.17752 3.79126 6.57078 3.79126 4.58876C3.79126 2.60674 5.398 1 7.38002 1C9.36203 1 10.9688 2.60674 10.9688 4.58876Z" stroke="#515164" stroke-width="1.25" stroke-linecap="round" stroke-linejoin="round"/>
</svg>
