<svg width="18" height="18" viewBox="0 0 18 18" fill="none" xmlns="http://www.w3.org/2000/svg">
<path d="M3.16613 10.666H14.1126C14.9566 10.666 15.3786 10.666 15.7146 10.5087C16.0105 10.37 16.2592 10.1475 16.4296 9.86865C16.6231 9.55212 16.6697 9.13268 16.7629 8.29383L17.2504 3.9063C17.2789 3.65008 17.2931 3.52197 17.2519 3.42282C17.2157 3.33573 17.1511 3.26349 17.0685 3.21791C16.9745 3.16602 16.8456 3.16602 16.5878 3.16602H2.74947M0.666016 0.666016H1.70638C1.9269 0.666016 2.03716 0.666016 2.12342 0.707953C2.19936 0.744872 2.2623 0.803994 2.30388 0.877484C2.35112 0.960962 2.35799 1.07101 2.37175 1.2911L3.12695 13.3743C3.1407 13.5944 3.14758 13.7044 3.19482 13.7879C3.2364 13.8614 3.29933 13.9205 3.37528 13.9574C3.46154 13.9993 3.5718 13.9993 3.79232 13.9993H14.8327M5.24935 16.916H5.25768M12.7493 16.916H12.7577M5.66602 16.916C5.66602 17.1461 5.47947 17.3327 5.24935 17.3327C5.01923 17.3327 4.83268 17.1461 4.83268 16.916C4.83268 16.6859 5.01923 16.4993 5.24935 16.4993C5.47947 16.4993 5.66602 16.6859 5.66602 16.916ZM13.166 16.916C13.166 17.1461 12.9795 17.3327 12.7493 17.3327C12.5192 17.3327 12.3327 17.1461 12.3327 16.916C12.3327 16.6859 12.5192 16.4993 12.7493 16.4993C12.9795 16.4993 13.166 16.6859 13.166 16.916Z" stroke="#515164" stroke-width="1.25" stroke-linecap="round" stroke-linejoin="round"/>
</svg>
