<svg width="20" height="21" viewBox="0 0 20 21" fill="none" xmlns="http://www.w3.org/2000/svg">
<path d="M18.3327 17.668V16.0013C18.3327 14.4481 17.2704 13.143 15.8327 12.773M12.916 2.91027C14.1376 3.40476 14.9993 4.60239 14.9993 6.0013C14.9993 7.40021 14.1376 8.59785 12.916 9.09234M14.166 17.668C14.166 16.1148 14.166 15.3383 13.9123 14.7257C13.574 13.9089 12.9251 13.26 12.1083 12.9217C11.4957 12.668 10.7192 12.668 9.16602 12.668H6.66602C5.11288 12.668 4.33631 12.668 3.72374 12.9217C2.90698 13.26 2.25806 13.9089 1.91975 14.7257C1.66602 15.3383 1.66602 16.1148 1.66602 17.668M11.2493 6.0013C11.2493 7.84225 9.75696 9.33464 7.91602 9.33464C6.07507 9.33464 4.58268 7.84225 4.58268 6.0013C4.58268 4.16035 6.07507 2.66797 7.91602 2.66797C9.75696 2.66797 11.2493 4.16035 11.2493 6.0013Z" stroke="#515164" stroke-width="1.25" stroke-linecap="round" stroke-linejoin="round"/>
</svg>
