<svg width="978" height="333" viewBox="0 0 978 333" fill="none" xmlns="http://www.w3.org/2000/svg">
<g clip-path="url(#clip0_758_46471)">
<rect width="978" height="333" rx="24" fill="#FF355E"/>
<path opacity="0.1" d="M56.2633 -49.1272C53.4525 -77.6108 58.5387 -102.099 71.6348 -122.603C82.768 -139.958 98.2512 -152.399 118.31 -159.949C124.222 -162.238 130.984 -159.381 133.16 -153.457L149.763 -109.624C151.928 -103.812 148.892 -97.7149 143.238 -95.1107C136.603 -92.0687 131.295 -87.1113 127.189 -80.3401C121.131 -70.3068 118.717 -57.9049 120.161 -43.269L130.138 57.8309C132.715 83.9502 127.925 105.681 115.677 123.26C100.136 145.483 76.5626 155.426 44.7089 152.885C44.146 152.941 43.4482 152.782 42.8631 152.613C23.9787 149.019 8.70148 141.66 -2.74348 130.512C-7.27421 126.071 -14.5573 125.994 -18.7622 130.615C-39.685 153.597 -66.4709 166.699 -99.0075 169.909C-135.597 173.52 -167.509 163.482 -194.629 139.785C-221.75 116.087 -237.334 84.8855 -241.167 46.0442C-243.133 26.117 -241.386 6.96004 -236.026 -11.3029C-234.341 -17.2668 -237.879 -23.1701 -243.753 -25.0914C-254.78 -28.5504 -264.149 -34.7877 -271.86 -43.8033C-282.133 -55.749 -288.191 -71.0663 -290.025 -89.6426L-291.247 -102.027C-291.858 -108.219 -287.291 -113.785 -281.099 -114.396L-243.609 -118.096C-237.417 -118.707 -231.851 -114.14 -231.24 -107.948L-230.351 -98.9416C-229.462 -89.935 -226.466 -82.6141 -221.25 -76.9901C-217.563 -73.0341 -213.21 -70.3943 -208.326 -69.2848C-204.714 -68.3907 -200.851 -69.5677 -198.034 -72.1193C-177.894 -90.363 -153.813 -100.924 -125.892 -103.68C-89.415 -107.279 -57.7177 -97.1065 -30.4733 -73.3077C-3.34151 -49.4977 12.2534 -18.1832 16.0641 20.4329C17.8195 38.2211 16.9425 54.6775 13.4553 70.0274C12.5043 74.2137 13.8494 78.6281 17.2002 81.4805C25.8921 88.9214 36.4371 90.9502 48.8465 87.6793C50.2878 87.3097 51.8085 86.5913 53.0817 85.6699C63.4594 77.9387 67.7968 66.5974 66.3192 51.6238L56.3425 -49.4761L56.2633 -49.1272ZM-180.023 40.1241C-178.045 60.164 -169.973 76.3057 -155.816 88.4365C-141.659 100.567 -124.893 105.734 -105.529 103.823C-86.1647 101.912 -71.0696 93.6015 -59.5572 78.9376C-48.0448 64.2736 -43.2829 46.8654 -45.2605 26.8256C-47.2381 6.78572 -55.2774 -9.01819 -69.6591 -21.1269C-83.9172 -33.1341 -100.559 -38.1989 -119.474 -36.3324C-138.388 -34.4659 -154.282 -26.1904 -165.805 -11.639C-177.329 2.91238 -182.102 20.208 -180.135 40.1353L-180.023 40.1241Z" fill="white"/>
<path opacity="0.1" d="M889.052 323.54C881.644 351.186 868.254 372.311 848.772 386.884C832.237 399.202 813.362 405.388 791.93 405.384C785.59 405.442 780.269 400.386 780.32 394.075L780.231 347.203C780.253 341.001 785.243 336.365 791.452 335.921C798.733 335.412 805.448 332.643 811.677 327.754C820.883 320.499 827.512 309.744 831.319 295.538L857.612 197.409C864.405 172.057 876.547 153.408 894.204 141.274C916.58 125.954 942.145 124.957 971.06 138.561C971.606 138.707 972.203 139.101 972.691 139.466C989.097 149.484 1000.8 161.755 1007.58 176.222C1010.26 181.975 1017.05 184.613 1022.61 181.771C1050.29 167.637 1079.97 164.816 1111.56 173.278C1147.07 182.794 1173.4 203.434 1190.42 235.169C1207.45 266.904 1211.04 301.596 1200.94 339.297C1195.76 358.638 1187.37 375.95 1175.92 391.153C1172.24 396.14 1173.47 402.911 1178.29 406.78C1187.39 413.903 1193.96 423.042 1198 434.196C1203.4 448.996 1203.67 465.466 1198.84 483.496L1195.62 495.517C1194.01 501.527 1187.78 505.127 1181.77 503.516L1145.38 493.766C1139.37 492.155 1135.77 485.92 1137.38 479.91L1139.72 471.168C1142.06 462.426 1141.84 454.519 1138.94 447.418C1136.88 442.416 1133.74 438.412 1129.56 435.652C1126.5 433.542 1122.47 433.282 1118.93 434.677C1093.65 444.653 1067.4 446.05 1040.29 438.788C1004.89 429.301 978.811 408.61 961.702 376.737C944.702 344.893 941.144 310.091 951.187 272.61C955.813 255.344 962.434 240.253 971.107 227.117C973.472 223.534 973.769 218.929 971.639 215.079C966.127 205.052 956.973 199.437 944.207 198.124C942.728 197.962 941.052 198.099 939.536 198.512C927.099 202.09 919.043 211.175 915.149 225.709L888.855 323.838L889.052 323.54ZM1141.63 323.288C1146.84 303.837 1144.98 285.886 1136.01 269.544C1127.03 253.203 1113.16 242.459 1094.37 237.423C1075.57 232.387 1058.52 234.844 1042.58 244.51C1026.63 254.175 1016.04 268.789 1010.83 288.24C1005.62 307.691 1007.57 325.314 1016.76 341.714C1025.88 357.976 1039.66 368.581 1058.02 373.5C1076.38 378.419 1094.17 376.276 1110.08 366.719C1126 357.163 1136.56 342.659 1141.74 323.317L1141.63 323.288Z" fill="white"/>
</g>
<defs>
<clipPath id="clip0_758_46471">
<rect width="978" height="333" fill="white"/>
</clipPath>
</defs>
</svg>
