<svg width="172" height="26" viewBox="0 0 172 26" fill="none" xmlns="http://www.w3.org/2000/svg">
<g clip-path="url(#clip0_645_5145)">
<path d="M11.9396 20.2935C13.4926 20.2935 14.7879 20.6987 15.8253 21.5151C16.7031 22.2087 17.2924 23.1111 17.5931 24.2344C17.6852 24.5659 17.4949 24.9158 17.1635 25.0017L14.7081 25.6647C14.3827 25.7506 14.0697 25.5542 13.9592 25.235C13.8303 24.8605 13.5909 24.5475 13.2471 24.2897C12.7376 23.9091 12.0808 23.7126 11.2828 23.7126H5.77044C4.34631 23.7126 3.19841 23.3382 2.31447 22.5832C1.19727 21.6256 0.785991 20.2997 1.09292 18.5932C1.09292 18.5625 1.10519 18.5256 1.11747 18.4949C1.41212 17.4944 1.89092 16.7086 2.55387 16.15C2.81783 15.9291 2.8608 15.5362 2.63367 15.2845C1.50419 14.0323 0.939453 12.5161 0.939453 10.742C0.939453 8.74703 1.65152 7.07736 3.07564 5.73917C4.49977 4.40099 6.26765 3.72575 8.38543 3.72575C9.47194 3.72575 10.4971 3.92218 11.4547 4.30891C11.7677 4.43168 12.1053 4.27208 12.2404 3.96515C12.4859 3.38814 12.8727 2.91547 13.4006 2.54716C14.1004 2.05609 14.9597 1.81055 15.9726 1.81055H16.6478C16.9854 1.81055 17.2617 2.08678 17.2617 2.42439V4.46851C17.2617 4.80613 16.9854 5.08236 16.6478 5.08236H16.1567C15.6657 5.08236 15.2544 5.20513 14.9229 5.4568C14.6896 5.63482 14.5239 5.85581 14.438 6.11362C14.3704 6.30391 14.4134 6.51876 14.5362 6.6845C15.414 7.86923 15.856 9.22583 15.856 10.7482C15.856 12.737 15.1378 14.3944 13.7075 15.7388C12.2772 17.0769 10.5032 17.7522 8.39771 17.7522C7.42783 17.7522 6.54389 17.6171 5.73361 17.347C5.51262 17.2734 5.26708 17.3225 5.0952 17.4882C4.6471 17.9179 4.48136 18.4765 4.59185 19.164C4.60413 19.2438 4.63482 19.3298 4.67779 19.4034C5.03996 20.005 5.62925 20.2996 6.44567 20.2996H11.958L11.9396 20.2935ZM8.37929 7.05895C7.28664 7.05895 6.37201 7.40884 5.64153 8.10863C4.91105 8.80841 4.54274 9.68622 4.54274 10.742C4.54274 11.7979 4.91105 12.6572 5.64153 13.357C6.37201 14.0568 7.28664 14.4067 8.37929 14.4067C9.47194 14.4067 10.3682 14.0568 11.0986 13.3448C11.823 12.6388 12.1851 11.7672 12.1851 10.7359C12.1851 9.70463 11.823 8.80228 11.0986 8.10249C10.3743 7.4027 9.4658 7.05281 8.37929 7.05281V7.05895Z" fill="#FF355E"/>
<path d="M33.719 11.9022C33.719 12.1723 33.7067 12.4362 33.6883 12.7002C33.6637 13.0132 33.3875 13.2526 33.0744 13.2526H21.8226C21.3868 13.2526 21.0737 13.7008 21.2517 14.0998C21.5771 14.8425 22.0743 15.4625 22.7372 15.9597C23.6396 16.6349 24.7261 16.9726 25.9906 16.9726C26.9667 16.9726 27.8813 16.77 28.7223 16.3587C29.3607 16.0457 29.8947 15.6773 30.3183 15.2477C30.5454 15.0205 30.9076 15.0021 31.147 15.2108L32.5404 16.4078C32.8105 16.6411 32.8228 17.0462 32.5834 17.304C31.8529 18.0898 30.9689 18.722 29.9315 19.207C28.6916 19.784 27.3411 20.0725 25.8986 20.0725C23.4248 20.0725 21.3622 19.2868 19.7232 17.7092C18.0843 16.1316 17.2617 14.1734 17.2617 11.8285C17.2617 10.3123 17.6239 8.93116 18.3421 7.69118C19.0603 6.45121 20.0486 5.47519 21.3131 4.76313C22.5776 4.0572 23.9772 3.70117 25.5118 3.70117C27.8567 3.70117 29.8088 4.48076 31.3741 6.04607C32.9333 7.60525 33.719 9.56342 33.719 11.9206V11.9022ZM25.4873 6.78269C24.3824 6.78269 23.4125 7.11417 22.5899 7.78326C21.9883 8.27434 21.5341 8.87591 21.221 9.59411C21.0492 9.99311 21.3622 10.4351 21.7919 10.4351H29.2072C29.6369 10.4351 29.95 9.99925 29.7842 9.60025C29.4834 8.88205 29.023 8.27434 28.4153 7.78326C27.5805 7.11417 26.6045 6.78269 25.4873 6.78269Z" fill="#FF355E"/>
<path d="M43.6503 7.16974H40.4644C40.1268 7.16974 39.8505 7.44598 39.8505 7.78359V14.5666C39.8505 15.2848 40.047 15.825 40.4398 16.1933C40.8327 16.5555 41.3974 16.7396 42.1218 16.7396C42.5515 16.7396 42.9934 16.666 43.4477 16.5248C43.8528 16.3959 44.2641 16.6783 44.2641 17.1018V19.0231C44.2641 19.2626 44.1291 19.4897 43.9081 19.5818C43.153 19.901 42.3182 20.0606 41.4097 20.0606C39.7646 20.0606 38.5185 19.6247 37.6836 18.7592C36.8427 17.8937 36.4253 16.6783 36.4253 15.1191V7.78359C36.4253 7.44598 36.149 7.16974 35.8114 7.16974H34.3873C34.0497 7.16974 33.7734 6.89351 33.7734 6.5559V4.67138C33.7734 4.33377 34.0497 4.05754 34.3873 4.05754H35.8114C36.149 4.05754 36.4253 3.7813 36.4253 3.44369V0.613848C36.4253 0.276232 36.7015 0 37.0391 0H39.2367C39.5743 0 39.8505 0.276232 39.8505 0.613848V3.44369C39.8505 3.7813 40.1268 4.05754 40.4644 4.05754H43.6503C43.9879 4.05754 44.2641 4.33377 44.2641 4.67138V6.5559C44.2641 6.89351 43.9879 7.16974 43.6503 7.16974Z" fill="#FF355E"/>
<path d="M139.892 20.9071C141.414 20.9071 142.666 21.2877 143.649 22.055C144.477 22.6995 145.011 23.5466 145.251 24.5963C145.324 24.9278 145.134 25.2593 144.803 25.3452L143.237 25.7503C142.912 25.8363 142.562 25.6644 142.464 25.3452C142.329 24.8909 142.059 24.5104 141.648 24.1973C141.07 23.7615 140.328 23.5466 139.413 23.5466H133.508C132.176 23.5466 131.102 23.1967 130.279 22.4908C129.456 21.7849 129.045 20.8702 129.045 19.7469C129.045 18.9919 129.223 18.2798 129.573 17.623C129.806 17.181 130.101 16.8127 130.451 16.5181C130.721 16.2909 130.776 15.9042 130.543 15.6403C130.07 15.1123 129.69 14.5169 129.401 13.8601C129.015 12.9884 128.824 12.0554 128.824 11.0548C128.824 9.07208 129.524 7.41469 130.917 6.08878C132.311 4.76287 134.054 4.09991 136.141 4.09991C137.32 4.09991 138.419 4.33931 139.444 4.81812C139.769 4.97158 140.131 4.79356 140.26 4.46208C140.469 3.92804 140.813 3.47993 141.279 3.12389C141.936 2.62054 142.746 2.375 143.716 2.375H144.33C144.668 2.375 144.944 2.65123 144.944 2.98885V4.27793C144.944 4.61555 144.668 4.89178 144.33 4.89178H143.87C143.286 4.89178 142.814 5.05138 142.452 5.37672C142.145 5.64681 141.961 5.9967 141.911 6.42026C141.893 6.57372 141.948 6.72104 142.047 6.84381C142.992 8.04082 143.458 9.44653 143.458 11.061C143.458 13.0375 142.759 14.6888 141.359 16.0208C139.959 17.3529 138.222 18.022 136.141 18.022C135.024 18.022 134.005 17.8256 133.09 17.4266C132.863 17.3283 132.599 17.359 132.415 17.5309C132.256 17.6844 132.114 17.8624 132.004 18.0588C131.826 18.378 131.734 18.7156 131.734 19.0655C131.734 19.6303 131.943 20.0784 132.36 20.416C132.777 20.7536 133.324 20.9194 133.999 20.9194H139.873L139.892 20.9071ZM136.147 6.67194C134.846 6.67194 133.772 7.08935 132.912 7.92419C132.053 8.75902 131.623 9.79642 131.623 11.0487C131.623 12.3009 132.053 13.3506 132.919 14.1854C133.784 15.0203 134.858 15.4377 136.147 15.4377C137.437 15.4377 138.511 15.0203 139.376 14.1854C140.242 13.3506 140.671 12.3071 140.671 11.0487C140.671 9.79028 140.242 8.75902 139.376 7.92419C138.511 7.08935 137.437 6.67194 136.147 6.67194Z" fill="#25253D"/>
<path d="M67.0343 4.3457C68.8083 4.3457 70.2263 4.87361 71.2883 5.93557C72.3502 6.99753 72.8781 8.41552 72.8781 10.1895V19.5753C72.8781 19.8945 72.6203 20.1523 72.3011 20.1523H70.8586C70.5394 20.1523 70.2816 19.8945 70.2816 19.5753V10.9139C70.2816 9.68004 69.9132 8.69789 69.1828 7.96127C68.4462 7.22465 67.4701 6.86248 66.2486 6.86248C65.027 6.86248 63.9712 7.23693 63.2039 7.98582C62.4366 8.73472 62.0499 9.72915 62.0499 10.9753V19.5814C62.0499 19.9006 61.792 20.1584 61.4728 20.1584H60.0303C59.7111 20.1584 59.4533 19.9006 59.4533 19.5814V10.92C59.4533 9.68618 59.085 8.70402 58.3545 7.96741C57.6179 7.23079 56.6419 6.86862 55.4203 6.86862C54.1987 6.86862 53.1429 7.24307 52.3756 7.99196C51.6083 8.74086 51.2216 9.73529 51.2216 10.9814V19.5876C51.2216 19.9068 50.9638 20.1646 50.6446 20.1646H49.202C48.8828 20.1646 48.625 19.9068 48.625 19.5876V5.29717C48.625 4.97797 48.8828 4.72015 49.202 4.72015H50.6446C50.9638 4.72015 51.2216 4.97797 51.2216 5.29717C51.2216 5.8128 51.8109 6.05834 52.1976 5.72686C53.2718 4.80609 54.6284 4.3457 56.2797 4.3457C57.4828 4.3457 58.5325 4.60966 59.4287 5.14371C60.0671 5.52429 60.595 6.01537 61.0125 6.6108C61.2396 6.94228 61.7061 6.9607 61.9578 6.64763C62.4611 6.02151 63.0627 5.51201 63.7686 5.13143C64.7324 4.60966 65.825 4.3457 67.0589 4.3457H67.0343Z" fill="#25253D"/>
<path d="M88.7828 4.71429H90.1579C90.4955 4.71429 90.7717 4.99052 90.7717 5.32814V19.5387C90.7717 19.8763 90.4955 20.1526 90.1579 20.1526H88.7828C88.4452 20.1526 88.169 19.8763 88.169 19.5387V19.0415C88.169 18.4952 87.5245 18.2312 87.1255 18.6057C86.6774 19.0292 86.174 19.3853 85.6154 19.686C84.578 20.2446 83.424 20.5209 82.1656 20.5209C80.7169 20.5209 79.4033 20.171 78.2185 19.4651C77.0338 18.7591 76.113 17.7893 75.4439 16.5493C74.781 15.3093 74.4434 13.9404 74.4434 12.4304C74.4434 10.9203 74.7748 9.55141 75.4439 8.31144C76.113 7.07147 77.0338 6.10159 78.2185 5.39566C79.4033 4.68974 80.7169 4.33984 82.1656 4.33984C83.4301 4.33984 84.578 4.61608 85.6154 5.17468C86.174 5.47546 86.6774 5.83149 87.1255 6.25505C87.5245 6.6295 88.169 6.36554 88.169 5.81922V5.322C88.169 4.98438 88.4452 4.70815 88.7828 4.70815V4.71429ZM82.6505 18.0102C84.2281 18.0102 85.5417 17.4762 86.5914 16.4142C87.6411 15.3523 88.169 14.0264 88.169 12.4365C88.169 10.8466 87.6472 9.52072 86.5914 8.45876C85.5417 7.39681 84.2281 6.86276 82.6505 6.86276C81.0729 6.86276 79.7409 7.39681 78.6851 8.45876C77.6292 9.52072 77.1013 10.8466 77.1013 12.4365C77.1013 14.0264 77.6292 15.3523 78.6851 16.4142C79.7409 17.4823 81.0606 18.0102 82.6505 18.0102Z" fill="#25253D"/>
<path d="M101.692 4.3457C103.576 4.3457 105.092 4.91658 106.24 6.05834C107.388 7.2001 107.965 8.72244 107.965 10.6131V19.5384C107.965 19.8761 107.689 20.1523 107.351 20.1523H105.976C105.639 20.1523 105.362 19.8761 105.362 19.5384V11.4295C105.362 10.0484 104.951 8.94343 104.135 8.10859C103.318 7.27376 102.219 6.85634 100.851 6.85634C99.4817 6.85634 98.2785 7.2799 97.4191 8.12701C96.5598 8.97412 96.1301 10.0913 96.1301 11.4848V19.5384C96.1301 19.8761 95.8538 20.1523 95.5162 20.1523H94.1412C93.8036 20.1523 93.5273 19.8761 93.5273 19.5384V5.32786C93.5273 4.99024 93.8036 4.71401 94.1412 4.71401H95.5162C95.8538 4.71401 96.1301 4.99024 96.1301 5.32786V5.44449C96.1301 5.98468 96.7623 6.24249 97.1675 5.88646C98.3338 4.8552 99.8438 4.3457 101.692 4.3457Z" fill="#25253D"/>
<path d="M123.9 4.71429H125.275C125.613 4.71429 125.889 4.99052 125.889 5.32814V19.5387C125.889 19.8763 125.613 20.1526 125.275 20.1526H123.9C123.562 20.1526 123.286 19.8763 123.286 19.5387V19.0415C123.286 18.4952 122.642 18.2312 122.243 18.6057C121.795 19.0292 121.291 19.3853 120.733 19.686C119.695 20.2446 118.541 20.5209 117.283 20.5209C115.834 20.5209 114.52 20.171 113.336 19.4651C112.151 18.7591 111.23 17.7893 110.561 16.5493C109.898 15.3093 109.561 13.9404 109.561 12.4304C109.561 10.9203 109.892 9.55141 110.561 8.31144C111.23 7.07147 112.151 6.10159 113.336 5.39566C114.52 4.68974 115.834 4.33984 117.283 4.33984C118.547 4.33984 119.695 4.61608 120.733 5.17468C121.291 5.47546 121.795 5.83149 122.243 6.25505C122.642 6.6295 123.286 6.36554 123.286 5.81922V5.322C123.286 4.98438 123.562 4.70815 123.9 4.70815V4.71429ZM117.768 18.0102C119.345 18.0102 120.659 17.4762 121.709 16.4142C122.758 15.3523 123.286 14.0264 123.286 12.4365C123.286 10.8466 122.764 9.52072 121.709 8.45876C120.659 7.39681 119.345 6.86276 117.768 6.86276C116.19 6.86276 114.858 7.39681 113.802 8.45876C112.746 9.52072 112.219 10.8466 112.219 12.4365C112.219 14.0264 112.746 15.3523 113.802 16.4142C114.858 17.4823 116.178 18.0102 117.768 18.0102Z" fill="#25253D"/>
<path d="M161.955 12.4359C161.955 12.528 161.942 12.7245 161.924 13.013C161.9 13.3322 161.636 13.59 161.31 13.59H149.383C148.966 13.59 148.659 14.0013 148.794 14.3941C149.131 15.3886 149.708 16.2172 150.525 16.8802C151.556 17.715 152.815 18.1325 154.3 18.1325C155.405 18.1325 156.418 17.8992 157.345 17.4327C158.069 17.0644 158.671 16.6162 159.149 16.0822C159.37 15.8367 159.745 15.8182 159.997 16.0331L160.856 16.7697C161.12 16.9968 161.138 17.3897 160.911 17.6536C160.199 18.4701 159.321 19.1269 158.29 19.6302C157.05 20.2318 155.693 20.5326 154.214 20.5326C151.796 20.5326 149.788 19.753 148.18 18.1938C146.572 16.6347 145.768 14.701 145.768 12.3807C145.768 10.8829 146.117 9.52016 146.823 8.29247C147.529 7.06477 148.499 6.10103 149.745 5.40124C150.985 4.70146 152.366 4.35156 153.883 4.35156C156.08 4.35156 157.989 5.09432 159.604 6.58597C159.622 6.60438 159.641 6.6228 159.659 6.64122C161.181 8.26791 161.942 10.2015 161.942 12.4421L161.955 12.4359ZM153.864 6.73943C152.526 6.73943 151.366 7.15685 150.39 7.99168C149.616 8.6485 149.076 9.45878 148.757 10.4225C148.628 10.8154 148.935 11.2205 149.346 11.2205H158.394C158.806 11.2205 159.113 10.8154 158.984 10.4225C158.671 9.4465 158.124 8.63008 157.351 7.97327C156.375 7.15071 155.209 6.73943 153.858 6.73943H153.864Z" fill="#25253D"/>
<path d="M171.481 4.46289H171.996V7.15155H171.481C169.854 7.15155 168.571 7.63035 167.626 8.57567C166.687 9.52714 166.214 10.8101 166.214 12.4306V19.5329C166.214 19.8705 165.938 20.1467 165.6 20.1467H164.225C163.888 20.1467 163.611 19.8705 163.611 19.5329V5.32842C163.611 4.9908 163.888 4.71457 164.225 4.71457H165.6C165.938 4.71457 166.214 4.9908 166.214 5.32842V5.63534C166.214 6.16939 166.859 6.46404 167.239 6.08959C168.35 5.00308 169.762 4.46289 171.481 4.46289Z" fill="#25253D"/>
</g>
<defs>
<clipPath id="clip0_645_5145">
<rect width="171.067" height="25.7693" fill="white" transform="translate(0.933594)"/>
</clipPath>
</defs>
</svg>
