<svg width="213" height="32" viewBox="0 0 213 32" fill="none" xmlns="http://www.w3.org/2000/svg">
<g clip-path="url(#clip0_368_21819)">
<path d="M13.6657 25.1999C15.5942 25.1999 17.2026 25.703 18.4909 26.7168C19.5809 27.5782 20.3127 28.6987 20.6862 30.0937C20.8005 30.5053 20.5642 30.9398 20.1526 31.0465L17.1035 31.8698C16.6995 31.9765 16.3108 31.7326 16.1736 31.3362C16.0135 30.8712 15.7162 30.4824 15.2893 30.1623C14.6566 29.6897 13.841 29.4458 12.8501 29.4458H6.00491C4.23645 29.4458 2.811 28.9808 1.71334 28.0432C0.326012 26.854 -0.184708 25.2076 0.196426 23.0884C0.196426 23.0503 0.211672 23.0046 0.226917 22.9665C0.592806 21.724 1.18737 20.7483 2.01062 20.0546C2.3384 19.7802 2.39176 19.2924 2.10972 18.9798C0.707146 17.4248 0.00585938 15.542 0.00585938 13.339C0.00585938 10.8617 0.89009 8.7883 2.65855 7.12656C4.42701 5.46482 6.62234 4.62632 9.25217 4.62632C10.6014 4.62632 11.8744 4.87025 13.0635 5.35048C13.4523 5.50293 13.8715 5.30474 14.0392 4.92361C14.3441 4.20707 14.8243 3.62013 15.4799 3.16277C16.3489 2.55295 17.4161 2.24805 18.6738 2.24805H19.5123C19.9315 2.24805 20.2746 2.59107 20.2746 3.01031V5.54867C20.2746 5.96791 19.9315 6.31093 19.5123 6.31093H18.9025C18.2927 6.31093 17.7819 6.46339 17.3703 6.77592C17.0807 6.99698 16.8748 7.27139 16.7681 7.59154C16.6843 7.82785 16.7376 8.09464 16.8901 8.30045C17.9801 9.77163 18.529 11.4562 18.529 13.3467C18.529 15.8164 17.6371 17.8745 15.861 19.5439C14.0849 21.2056 11.882 22.0441 9.26741 22.0441C8.06303 22.0441 6.96536 21.8764 5.95917 21.541C5.68475 21.4496 5.37985 21.5106 5.16641 21.7164C4.60996 22.25 4.40414 22.9436 4.54135 23.7974C4.5566 23.8964 4.59471 24.0032 4.64807 24.0946C5.09781 24.8417 5.82958 25.2075 6.8434 25.2075H13.6886L13.6657 25.1999ZM9.24454 8.76544C7.88771 8.76544 6.75193 9.19993 5.84483 10.0689C4.93773 10.9379 4.48037 12.0279 4.48037 13.339C4.48037 14.6501 4.93773 15.7173 5.84483 16.5863C6.75193 17.4553 7.88771 17.8898 9.24454 17.8898C10.6014 17.8898 11.7143 17.4553 12.6214 16.5711C13.5209 15.6944 13.9706 14.612 13.9706 13.3314C13.9706 12.0508 13.5209 10.9303 12.6214 10.0613C11.7219 9.19231 10.5938 8.75781 9.24454 8.75781V8.76544Z" fill="#FF355E"/>
<path d="M40.7118 14.7796C40.7118 15.115 40.6965 15.4428 40.6737 15.7705C40.6432 16.1593 40.3002 16.4566 39.9114 16.4566H25.939C25.3978 16.4566 25.0091 17.013 25.2301 17.5085C25.6341 18.4309 26.2516 19.2008 27.0748 19.8182C28.1954 20.6567 29.5446 21.0759 31.1148 21.0759C32.3268 21.0759 33.4626 20.8244 34.5069 20.3137C35.2997 19.9249 35.9629 19.4675 36.4888 18.934C36.7709 18.6519 37.2206 18.6291 37.5179 18.8882L39.2482 20.3746C39.5836 20.6643 39.5989 21.1674 39.3016 21.4876C38.3945 22.4633 37.2968 23.2484 36.0086 23.8506C34.4688 24.5671 32.7918 24.9254 31.0005 24.9254C27.9286 24.9254 25.3673 23.9497 23.3321 21.9907C21.2968 20.0316 20.2754 17.6 20.2754 14.6881C20.2754 12.8053 20.7251 11.0902 21.617 9.55044C22.5088 8.01066 23.7361 6.79866 25.3064 5.91443C26.8766 5.03782 28.6146 4.5957 30.5203 4.5957C33.4321 4.5957 35.8561 5.56378 37.7999 7.50757C39.7361 9.44373 40.7118 11.8754 40.7118 14.8025V14.7796ZM30.4898 8.42229C29.1177 8.42229 27.9133 8.83391 26.8919 9.66478C26.1449 10.2746 25.5808 11.0216 25.192 11.9135C24.9786 12.4089 25.3673 12.9578 25.9009 12.9578H35.1091C35.6427 12.9578 36.0315 12.4166 35.8257 11.9211C35.4521 11.0292 34.8804 10.2746 34.1258 9.66478C33.0891 8.83391 31.8771 8.42229 30.4898 8.42229Z" fill="#FF355E"/>
<path d="M53.0442 8.90329H49.088C48.6688 8.90329 48.3257 9.24631 48.3257 9.66556V18.0886C48.3257 18.9805 48.5697 19.6513 49.0575 20.1086C49.5454 20.5584 50.2467 20.787 51.1461 20.787C51.6797 20.787 52.2286 20.6956 52.7926 20.5202C53.2957 20.3602 53.8065 20.7108 53.8065 21.2368V23.6227C53.8065 23.92 53.6388 24.202 53.3643 24.3163C52.4267 24.7127 51.3901 24.9109 50.2619 24.9109C48.219 24.9109 46.6716 24.3697 45.6349 23.2949C44.5906 22.2201 44.0723 20.7108 44.0723 18.7747V9.66556C44.0723 9.24631 43.7293 8.90329 43.31 8.90329H41.5416C41.1223 8.90329 40.7793 8.56027 40.7793 8.14102V5.80086C40.7793 5.38161 41.1223 5.03859 41.5416 5.03859H43.31C43.7293 5.03859 44.0723 4.69557 44.0723 4.27632V0.762268C44.0723 0.34302 44.4153 0 44.8346 0H47.5635C47.9827 0 48.3257 0.34302 48.3257 0.762268V4.27632C48.3257 4.69557 48.6688 5.03859 49.088 5.03859H53.0442C53.4634 5.03859 53.8065 5.38161 53.8065 5.80086V8.14102C53.8065 8.56027 53.4634 8.90329 53.0442 8.90329Z" fill="#FF355E"/>
<path d="M172.556 25.9621C174.447 25.9621 176.002 26.4347 177.221 27.3875C178.25 28.1879 178.914 29.2398 179.211 30.5433C179.302 30.9549 179.066 31.3666 178.654 31.4733L176.711 31.9764C176.307 32.0831 175.872 31.8697 175.75 31.4733C175.582 30.9092 175.247 30.4366 174.736 30.0478C174.02 29.5066 173.097 29.2398 171.962 29.2398H164.629C162.974 29.2398 161.641 28.8053 160.619 27.9287C159.598 27.0521 159.087 25.9163 159.087 24.5214C159.087 23.5838 159.308 22.6996 159.742 21.884C160.032 21.3351 160.398 20.8778 160.833 20.5119C161.168 20.2298 161.237 19.7496 160.947 19.4218C160.36 18.7663 159.887 18.0269 159.529 17.2112C159.049 16.1288 158.812 14.9702 158.812 13.7277C158.812 11.2656 159.681 9.20744 161.412 7.56094C163.142 5.91444 165.307 5.09119 167.899 5.09119C169.362 5.09119 170.727 5.38848 172 5.98304C172.404 6.17361 172.853 5.95255 173.014 5.54093C173.273 4.87776 173.7 4.3213 174.279 3.87919C175.095 3.25413 176.101 2.94922 177.305 2.94922H178.067C178.487 2.94922 178.83 3.29224 178.83 3.71149V5.31225C178.83 5.7315 178.487 6.07452 178.067 6.07452H177.496C176.772 6.07452 176.185 6.27271 175.735 6.67671C175.354 7.01211 175.125 7.4466 175.064 7.97256C175.041 8.16313 175.11 8.34607 175.232 8.49853C176.406 9.98495 176.985 11.7305 176.985 13.7353C176.985 16.1898 176.116 18.2403 174.378 19.8944C172.64 21.5486 170.483 22.3794 167.899 22.3794C166.511 22.3794 165.246 22.1355 164.11 21.64C163.828 21.5181 163.5 21.5562 163.272 21.7696C163.074 21.9602 162.898 22.1812 162.761 22.4252C162.54 22.8215 162.426 23.2408 162.426 23.6753C162.426 24.3766 162.685 24.933 163.203 25.3523C163.722 25.7715 164.4 25.9773 165.238 25.9773H172.533L172.556 25.9621ZM167.906 8.28509C166.29 8.28509 164.956 8.80344 163.889 9.84012C162.822 10.8768 162.288 12.165 162.288 13.7201C162.288 15.2751 162.822 16.5786 163.897 17.6153C164.972 18.6519 166.306 19.1703 167.906 19.1703C169.507 19.1703 170.841 18.6519 171.916 17.6153C172.991 16.5786 173.524 15.2827 173.524 13.7201C173.524 12.1574 172.991 10.8768 171.916 9.84012C170.841 8.80344 169.507 8.28509 167.906 8.28509Z" fill="#25253D"/>
<path d="M82.0831 5.39648C84.286 5.39648 86.0469 6.05203 87.3656 7.37076C88.6843 8.68948 89.3399 10.4503 89.3399 12.6533V24.3083C89.3399 24.7047 89.0197 25.0249 88.6233 25.0249H86.832C86.4356 25.0249 86.1155 24.7047 86.1155 24.3083V13.5528C86.1155 12.0206 85.6581 10.801 84.751 9.88624C83.8363 8.97152 82.6243 8.52178 81.1074 8.52178C79.5905 8.52178 78.2794 8.98677 77.3265 9.91673C76.3737 10.8467 75.8934 12.0816 75.8934 13.629V24.316C75.8934 24.7124 75.5733 25.0325 75.1769 25.0325H73.3856C72.9892 25.0325 72.6691 24.7124 72.6691 24.316V13.5604C72.6691 12.0282 72.2117 10.8086 71.3046 9.89386C70.3899 8.97914 69.1779 8.5294 67.661 8.5294C66.144 8.5294 64.8329 8.99439 63.8801 9.92436C62.9273 10.8543 62.447 12.0892 62.447 13.6366V24.3236C62.447 24.72 62.1269 25.0401 61.7305 25.0401H59.9392C59.5428 25.0401 59.2227 24.72 59.2227 24.3236V6.578C59.2227 6.18162 59.5428 5.86147 59.9392 5.86147H61.7305C62.1269 5.86147 62.447 6.18162 62.447 6.578C62.447 7.2183 63.1788 7.52321 63.6591 7.11159C64.993 5.96819 66.6776 5.39648 68.7281 5.39648C70.2222 5.39648 71.5257 5.72426 72.6386 6.38743C73.4313 6.86004 74.0869 7.46985 74.6052 8.20925C74.8873 8.62088 75.4666 8.64375 75.7791 8.25499C76.4042 7.47748 77.1512 6.84479 78.0278 6.37219C79.2246 5.72426 80.5814 5.39648 82.1136 5.39648H82.0831Z" fill="#25253D"/>
<path d="M109.09 5.85365H110.797C111.217 5.85365 111.56 6.19668 111.56 6.61592V24.2624C111.56 24.6817 111.217 25.0247 110.797 25.0247H109.09C108.671 25.0247 108.328 24.6817 108.328 24.2624V23.645C108.328 22.9666 107.527 22.6388 107.032 23.1038C106.475 23.6297 105.85 24.0719 105.156 24.4454C103.868 25.139 102.435 25.4821 100.873 25.4821C99.0736 25.4821 97.4423 25.0476 95.9712 24.1709C94.5 23.2943 93.3566 22.09 92.5257 20.5502C91.7024 19.0104 91.2832 17.3105 91.2832 15.4354C91.2832 13.5602 91.6948 11.8603 92.5257 10.3205C93.3566 8.78076 94.5 7.57638 95.9712 6.69977C97.4423 5.82316 99.0736 5.38867 100.873 5.38867C102.443 5.38867 103.868 5.73169 105.156 6.42536C105.85 6.79887 106.475 7.24098 107.032 7.76695C107.527 8.23193 108.328 7.90416 108.328 7.22574V6.6083C108.328 6.18905 108.671 5.84603 109.09 5.84603V5.85365ZM101.475 22.3644C103.434 22.3644 105.065 21.7012 106.368 20.3825C107.672 19.0638 108.328 17.4173 108.328 15.443C108.328 13.4687 107.68 11.8222 106.368 10.5035C105.065 9.18477 103.434 8.52159 101.475 8.52159C99.5157 8.52159 97.8616 9.18477 96.5505 10.5035C95.2394 11.8222 94.5838 13.4687 94.5838 15.443C94.5838 17.4173 95.2394 19.0638 96.5505 20.3825C97.8616 21.7088 99.5004 22.3644 101.475 22.3644Z" fill="#25253D"/>
<path d="M125.121 5.39648C127.461 5.39648 129.344 6.10539 130.769 7.52321C132.194 8.94103 132.911 10.8315 132.911 13.1792V24.2626C132.911 24.6819 132.568 25.0249 132.149 25.0249H130.441C130.022 25.0249 129.679 24.6819 129.679 24.2626V14.1931C129.679 12.478 129.168 11.1059 128.154 10.0692C127.141 9.0325 125.776 8.51416 124.076 8.51416C122.376 8.51416 120.882 9.04012 119.815 10.0921C118.748 11.144 118.214 12.5313 118.214 14.2617V24.2626C118.214 24.6819 117.871 25.0249 117.452 25.0249H115.745C115.325 25.0249 114.982 24.6819 114.982 24.2626V6.61611C114.982 6.19687 115.325 5.85384 115.745 5.85384H117.452C117.871 5.85384 118.214 6.19687 118.214 6.61611V6.76094C118.214 7.43174 119 7.75189 119.503 7.30978C120.951 6.02917 122.826 5.39648 125.121 5.39648Z" fill="#25253D"/>
<path d="M152.697 5.85365H154.405C154.824 5.85365 155.167 6.19668 155.167 6.61592V24.2624C155.167 24.6817 154.824 25.0247 154.405 25.0247H152.697C152.278 25.0247 151.935 24.6817 151.935 24.2624V23.645C151.935 22.9666 151.135 22.6388 150.639 23.1038C150.083 23.6297 149.458 24.0719 148.764 24.4454C147.476 25.139 146.043 25.4821 144.48 25.4821C142.681 25.4821 141.05 25.0476 139.579 24.1709C138.107 23.2943 136.964 22.09 136.133 20.5502C135.31 19.0104 134.891 17.3105 134.891 15.4354C134.891 13.5602 135.302 11.8603 136.133 10.3205C136.964 8.78076 138.107 7.57638 139.579 6.69977C141.05 5.82316 142.681 5.38867 144.48 5.38867C146.05 5.38867 147.476 5.73169 148.764 6.42536C149.458 6.79887 150.083 7.24098 150.639 7.76695C151.135 8.23193 151.935 7.90416 151.935 7.22574V6.6083C151.935 6.18905 152.278 5.84603 152.697 5.84603V5.85365ZM145.082 22.3644C147.041 22.3644 148.672 21.7012 149.976 20.3825C151.279 19.0638 151.935 17.4173 151.935 15.443C151.935 13.4687 151.287 11.8222 149.976 10.5035C148.672 9.18477 147.041 8.52159 145.082 8.52159C143.123 8.52159 141.469 9.18477 140.158 10.5035C138.847 11.8222 138.191 13.4687 138.191 15.443C138.191 17.4173 138.847 19.0638 140.158 20.3825C141.469 21.7088 143.108 22.3644 145.082 22.3644Z" fill="#25253D"/>
<path d="M199.955 15.4414C199.955 15.5558 199.939 15.7997 199.916 16.1579C199.886 16.5543 199.558 16.8745 199.154 16.8745H184.343C183.825 16.8745 183.444 17.3852 183.611 17.873C184.031 19.1079 184.747 20.137 185.761 20.9602C187.042 21.9969 188.604 22.5153 190.449 22.5153C191.821 22.5153 193.079 22.2256 194.23 21.6463C195.129 21.1889 195.876 20.6325 196.471 19.9693C196.745 19.6644 197.21 19.6415 197.523 19.9083L198.59 20.823C198.918 21.1051 198.941 21.5929 198.659 21.9207C197.774 22.9345 196.684 23.7501 195.404 24.3752C193.864 25.1222 192.179 25.4957 190.342 25.4957C187.339 25.4957 184.846 24.5276 182.849 22.5915C180.852 20.6553 179.854 18.2542 179.854 15.3728C179.854 13.5129 180.288 11.8206 181.165 10.2961C182.041 8.77157 183.246 7.57481 184.793 6.70582C186.333 5.83684 188.048 5.40234 189.931 5.40234C192.66 5.40234 195.03 6.32469 197.035 8.177C197.058 8.19987 197.081 8.22273 197.104 8.2456C198.994 10.2656 199.939 12.6668 199.939 15.449L199.955 15.4414ZM189.908 8.36756C188.246 8.36756 186.805 8.88591 185.593 9.92259C184.633 10.7382 183.962 11.7444 183.566 12.9412C183.406 13.429 183.787 13.9321 184.298 13.9321H195.533C196.044 13.9321 196.425 13.429 196.265 12.9412C195.876 11.7292 195.198 10.7153 194.238 9.89972C193.025 8.87828 191.577 8.36756 189.9 8.36756H189.908Z" fill="#25253D"/>
<path d="M211.784 5.54102H212.424V8.87975H211.784C209.764 8.87975 208.171 9.47432 206.997 10.6482C205.831 11.8297 205.244 13.4229 205.244 15.4353V24.2547C205.244 24.6739 204.901 25.017 204.481 25.017H202.774C202.355 25.017 202.012 24.6739 202.012 24.2547V6.61581C202.012 6.19657 202.355 5.85355 202.774 5.85355H204.481C204.901 5.85355 205.244 6.19657 205.244 6.61581V6.99695C205.244 7.66012 206.044 8.02601 206.517 7.56103C207.896 6.21181 209.65 5.54102 211.784 5.54102V5.54102Z" fill="#25253D"/>
</g>
<defs>
<clipPath id="clip0_368_21819">
<rect width="212.429" height="32" fill="white"/>
</clipPath>
</defs>
</svg>
