<svg width="233" height="35" viewBox="0 0 233 35" fill="none" xmlns="http://www.w3.org/2000/svg">
<g clip-path="url(#clip0_682_36173)">
<path d="M14.9473 27.5646C17.0566 27.5646 18.8158 28.1148 20.2248 29.2237C21.417 30.1658 22.2174 31.3914 22.6259 32.9171C22.751 33.3673 22.4925 33.8425 22.0423 33.9593L18.7074 34.8597C18.2655 34.9764 17.8403 34.7096 17.6903 34.2761C17.5152 33.7675 17.19 33.3423 16.7231 32.9921C16.0311 32.4752 15.139 32.2084 14.0552 32.2084H6.56829C4.63404 32.2084 3.07496 31.6999 1.87439 30.6744C0.357003 29.3738 -0.201597 27.5729 0.215269 25.2551C0.215269 25.2134 0.231943 25.1634 0.248618 25.1217C0.648808 23.7627 1.29912 22.6956 2.19955 21.9369C2.55805 21.6367 2.61641 21.1031 2.30793 20.7613C0.773868 19.0605 0.00683594 17.0012 0.00683594 14.5917C0.00683594 11.8821 0.973963 9.61434 2.90822 7.79681C4.84247 5.97928 7.24362 5.06218 10.12 5.06218C11.5957 5.06218 12.988 5.32897 14.2886 5.85422C14.7138 6.02097 15.1724 5.8042 15.3558 5.38733C15.6893 4.60362 16.2146 3.96165 16.9316 3.46141C17.882 2.79443 19.0492 2.46094 20.4249 2.46094H21.342C21.8005 2.46094 22.1757 2.83612 22.1757 3.29467V6.07099C22.1757 6.52954 21.8005 6.90472 21.342 6.90472H20.675C20.008 6.90472 19.4494 7.07147 18.9992 7.4133C18.6824 7.65508 18.4573 7.95522 18.3406 8.30539C18.2489 8.56384 18.3072 8.85565 18.474 9.08076C19.6662 10.6899 20.2665 12.5324 20.2665 14.6001C20.2665 17.3013 19.291 19.5524 17.3484 21.3783C15.4058 23.1958 12.9964 24.1129 10.1367 24.1129C8.81937 24.1129 7.61879 23.9295 6.51827 23.5627C6.21813 23.4626 5.88463 23.5293 5.65119 23.7544C5.04257 24.338 4.81746 25.0967 4.96753 26.0305C4.98421 26.1389 5.02589 26.2556 5.08425 26.3556C5.57615 27.1727 6.37653 27.5729 7.4854 27.5729H14.9723L14.9473 27.5646ZM10.1116 9.58933C8.62761 9.58933 7.38535 10.0646 6.39321 11.015C5.40107 11.9655 4.90083 13.1577 4.90083 14.5917C4.90083 16.0257 5.40107 17.193 6.39321 18.1434C7.38535 19.0939 8.62761 19.5691 10.1116 19.5691C11.5957 19.5691 12.8129 19.0939 13.8051 18.1267C14.7889 17.1679 15.2808 15.984 15.2808 14.5834C15.2808 13.1827 14.7889 11.9571 13.8051 11.0067C12.8213 10.0562 11.5873 9.58099 10.1116 9.58099V9.58933Z" fill="#FF355E"/>
<path d="M44.5261 16.1679C44.5261 16.5348 44.5095 16.8933 44.4845 17.2518C44.4511 17.677 44.0759 18.0021 43.6507 18.0021H28.3684C27.7765 18.0021 27.3513 18.6108 27.5931 19.1527C28.035 20.1615 28.7103 21.0036 29.6107 21.6789C30.8363 22.596 32.312 23.0545 34.0295 23.0545C35.3551 23.0545 36.5974 22.7794 37.7396 22.2208C38.6067 21.7956 39.332 21.2954 39.9073 20.7118C40.2157 20.4033 40.7077 20.3783 41.0328 20.6617L42.9254 22.2875C43.2922 22.6043 43.3089 23.1546 42.9837 23.5048C41.9916 24.5719 40.791 25.4307 39.382 26.0893C37.6979 26.873 35.8637 27.2649 33.9044 27.2649C30.5445 27.2649 27.7431 26.1977 25.5171 24.055C23.291 21.9123 22.1738 19.2527 22.1738 16.0679C22.1738 14.0086 22.6657 12.1327 23.6412 10.4485C24.6167 8.76441 25.959 7.43878 27.6764 6.47165C29.3939 5.51286 31.2948 5.0293 33.3792 5.0293C36.564 5.0293 39.2153 6.08813 41.3413 8.21415C43.459 10.3318 44.5261 12.9914 44.5261 16.1929V16.1679ZM33.3458 9.21462C31.8451 9.21462 30.5278 9.66484 29.4106 10.5736C28.5935 11.2406 27.9766 12.0576 27.5514 13.0331C27.3179 13.575 27.7431 14.1753 28.3268 14.1753H38.3982C38.9818 14.1753 39.407 13.5834 39.1819 13.0414C38.7734 12.066 38.1481 11.2406 37.3227 10.5736C36.1888 9.66484 34.8632 9.21462 33.3458 9.21462Z" fill="#FF355E"/>
<path d="M58.0182 9.73797H53.6912C53.2326 9.73797 52.8574 10.1131 52.8574 10.5717V19.7844C52.8574 20.7599 53.1242 21.4936 53.6578 21.9938C54.1914 22.4857 54.9584 22.7358 55.9422 22.7358C56.5259 22.7358 57.1261 22.6358 57.7431 22.444C58.2934 22.2689 58.852 22.6525 58.852 23.2277V25.8373C58.852 26.1625 58.6685 26.4709 58.3684 26.596C57.3429 27.0295 56.209 27.2463 54.9751 27.2463C52.7407 27.2463 51.0483 26.6544 49.9144 25.4788C48.7722 24.3032 48.2052 22.6525 48.2052 20.5348V10.5717C48.2052 10.1131 47.8301 9.73797 47.3715 9.73797H45.4372C44.9787 9.73797 44.6035 9.36279 44.6035 8.90424V6.34469C44.6035 5.88614 44.9787 5.51096 45.4372 5.51096H47.3715C47.8301 5.51096 48.2052 5.13578 48.2052 4.67723V0.83373C48.2052 0.375179 48.5804 0 49.039 0H52.0237C52.4823 0 52.8574 0.375179 52.8574 0.83373V4.67723C52.8574 5.13578 53.2326 5.51096 53.6912 5.51096H58.0182C58.4768 5.51096 58.852 5.88614 58.852 6.34469V8.90424C58.852 9.36279 58.4768 9.73797 58.0182 9.73797Z" fill="#FF355E"/>
<path d="M188.732 28.3949C190.8 28.3949 192.501 28.9118 193.835 29.954C194.96 30.8294 195.686 31.98 196.011 33.4056C196.111 33.8559 195.852 34.3061 195.402 34.4228L193.276 34.9731C192.834 35.0898 192.359 34.8563 192.226 34.4228C192.042 33.8058 191.675 33.2889 191.117 32.8637C190.333 32.2718 189.324 31.98 188.082 31.98H180.062C178.252 31.98 176.793 31.5047 175.676 30.546C174.559 29.5872 174 28.3449 174 26.8192C174 25.7937 174.242 24.8266 174.717 23.9345C175.034 23.3342 175.434 22.8339 175.91 22.4338C176.276 22.1253 176.351 21.6 176.035 21.2415C175.393 20.5245 174.876 19.7158 174.484 18.8237C173.959 17.6398 173.7 16.3725 173.7 15.0136C173.7 12.3206 174.651 10.0695 176.543 8.26868C178.436 6.46782 180.804 5.56739 183.638 5.56739C185.239 5.56739 186.731 5.89255 188.124 6.54286C188.566 6.75129 189.058 6.50951 189.233 6.05929C189.516 5.33395 189.983 4.72532 190.617 4.24176C191.509 3.5581 192.609 3.22461 193.927 3.22461H194.76C195.219 3.22461 195.594 3.59979 195.594 4.05834V5.80917C195.594 6.26772 195.219 6.6429 194.76 6.6429H194.135C193.343 6.6429 192.701 6.85967 192.209 7.30155C191.792 7.66839 191.542 8.14362 191.475 8.71889C191.45 8.92733 191.525 9.12742 191.659 9.29417C192.943 10.9199 193.576 12.8292 193.576 15.0219C193.576 17.7065 192.626 19.9492 190.725 21.7584C188.824 23.5676 186.465 24.4764 183.638 24.4764C182.121 24.4764 180.737 24.2096 179.495 23.6677C179.186 23.5343 178.828 23.576 178.578 23.8094C178.361 24.0178 178.169 24.2596 178.019 24.5264C177.777 24.96 177.652 25.4185 177.652 25.8937C177.652 26.6608 177.936 27.2694 178.502 27.7279C179.069 28.1865 179.811 28.4116 180.729 28.4116H188.707L188.732 28.3949ZM183.647 9.06072C181.879 9.06072 180.42 9.62766 179.253 10.7615C178.086 11.8954 177.502 13.3044 177.502 15.0052C177.502 16.706 178.086 18.1317 179.261 19.2656C180.437 20.3995 181.896 20.9664 183.647 20.9664C185.397 20.9664 186.856 20.3995 188.032 19.2656C189.208 18.1317 189.791 16.7144 189.791 15.0052C189.791 13.2961 189.208 11.8954 188.032 10.7615C186.856 9.62766 185.397 9.06072 183.647 9.06072Z" fill="#25253D"/>
<path d="M89.777 5.89844C92.1865 5.89844 94.1124 6.61545 95.5548 8.0578C96.9971 9.50015 97.7141 11.4261 97.7141 13.8356V26.5833C97.7141 27.0168 97.364 27.367 96.9304 27.367H94.9712C94.5376 27.367 94.1874 27.0168 94.1874 26.5833V14.8194C94.1874 13.1436 93.6872 11.8096 92.6951 10.8091C91.6946 9.80863 90.369 9.31673 88.7098 9.31673C87.0507 9.31673 85.6167 9.82531 84.5745 10.8425C83.5324 11.8596 83.0071 13.2103 83.0071 14.9027V26.5916C83.0071 27.0252 82.657 27.3753 82.2234 27.3753H80.2641C79.8306 27.3753 79.4804 27.0252 79.4804 26.5916V14.8277C79.4804 13.1519 78.9802 11.8179 77.9881 10.8174C76.9876 9.81697 75.662 9.32507 74.0028 9.32507C72.3437 9.32507 70.9097 9.83365 69.8675 10.8508C68.8254 11.8679 68.3001 13.2186 68.3001 14.9111V26.6C68.3001 27.0335 67.95 27.3837 67.5164 27.3837H65.5571C65.1236 27.3837 64.7734 27.0335 64.7734 26.6V7.19072C64.7734 6.75718 65.1236 6.40701 65.5571 6.40701H67.5164C67.95 6.40701 68.3001 6.75718 68.3001 7.19072C68.3001 7.89105 69.1005 8.22455 69.6257 7.77433C71.0848 6.52374 72.9273 5.89844 75.1701 5.89844C76.8042 5.89844 78.2298 6.25694 79.4471 6.98229C80.3142 7.4992 81.0312 8.16618 81.5981 8.9749C81.9066 9.42512 82.5402 9.45013 82.8821 9.02493C83.5657 8.17452 84.3828 7.48253 85.3416 6.96561C86.6505 6.25694 88.1346 5.89844 89.8104 5.89844H89.777Z" fill="#25253D"/>
<path d="M119.316 6.40115H121.183C121.642 6.40115 122.017 6.77633 122.017 7.23488V26.5357C122.017 26.9943 121.642 27.3695 121.183 27.3695H119.316C118.857 27.3695 118.482 26.9943 118.482 26.5357V25.8604C118.482 25.1184 117.607 24.7599 117.065 25.2685C116.456 25.8437 115.772 26.3273 115.014 26.7358C113.605 27.4945 112.037 27.8697 110.328 27.8697C108.361 27.8697 106.576 27.3945 104.967 26.4357C103.358 25.4769 102.108 24.1596 101.199 22.4755C100.298 20.7913 99.8398 18.9321 99.8398 16.8811C99.8398 14.8302 100.29 12.9709 101.199 11.2868C102.108 9.60268 103.358 8.28538 104.967 7.32659C106.576 6.3678 108.361 5.89258 110.328 5.89258C112.046 5.89258 113.605 6.26776 115.014 7.02645C115.772 7.43498 116.456 7.91854 117.065 8.49382C117.607 9.00239 118.482 8.64389 118.482 7.90187V7.22655C118.482 6.76799 118.857 6.39282 119.316 6.39282V6.40115ZM110.987 24.4598C113.13 24.4598 114.914 23.7344 116.339 22.2921C117.765 20.8497 118.482 19.0488 118.482 16.8895C118.482 14.7301 117.773 12.9293 116.339 11.4869C114.914 10.0446 113.13 9.31921 110.987 9.31921C108.844 9.31921 107.035 10.0446 105.601 11.4869C104.167 12.9293 103.45 14.7301 103.45 16.8895C103.45 19.0488 104.167 20.8497 105.601 22.2921C107.035 23.7427 108.827 24.4598 110.987 24.4598Z" fill="#25253D"/>
<path d="M136.849 5.89844C139.409 5.89844 141.468 6.67381 143.027 8.22455C144.586 9.77528 145.37 11.8429 145.37 14.4108V26.5333C145.37 26.9918 144.995 27.367 144.536 27.367H142.669C142.21 27.367 141.835 26.9918 141.835 26.5333V15.5197C141.835 13.6438 141.276 12.1431 140.168 11.0092C139.059 9.87533 137.566 9.30839 135.707 9.30839C133.848 9.30839 132.214 9.88367 131.047 11.0342C129.879 12.1848 129.296 13.7022 129.296 15.5947V26.5333C129.296 26.9918 128.921 27.367 128.462 27.367H126.594C126.136 27.367 125.761 26.9918 125.761 26.5333V7.23241C125.761 6.77385 126.136 6.39868 126.594 6.39868H128.462C128.921 6.39868 129.296 6.77385 129.296 7.23241V7.39081C129.296 8.1245 130.155 8.47466 130.705 7.9911C132.289 6.59043 134.34 5.89844 136.849 5.89844Z" fill="#25253D"/>
<path d="M167.012 6.40115H168.88C169.338 6.40115 169.713 6.77633 169.713 7.23488V26.5357C169.713 26.9943 169.338 27.3695 168.88 27.3695H167.012C166.554 27.3695 166.178 26.9943 166.178 26.5357V25.8604C166.178 25.1184 165.303 24.7599 164.761 25.2685C164.152 25.8437 163.469 26.3273 162.71 26.7358C161.301 27.4945 159.734 27.8697 158.024 27.8697C156.057 27.8697 154.273 27.3945 152.664 26.4357C151.054 25.4769 149.804 24.1596 148.895 22.4755C147.995 20.7913 147.536 18.9321 147.536 16.8811C147.536 14.8302 147.986 12.9709 148.895 11.2868C149.804 9.60268 151.054 8.28538 152.664 7.32659C154.273 6.3678 156.057 5.89258 158.024 5.89258C159.742 5.89258 161.301 6.26776 162.71 7.02645C163.469 7.43498 164.152 7.91854 164.761 8.49382C165.303 9.00239 166.178 8.64389 166.178 7.90187V7.22655C166.178 6.76799 166.554 6.39282 167.012 6.39282V6.40115ZM158.683 24.4598C160.826 24.4598 162.61 23.7344 164.036 22.2921C165.461 20.8497 166.178 19.0488 166.178 16.8895C166.178 14.7301 165.47 12.9293 164.036 11.4869C162.61 10.0446 160.826 9.31921 158.683 9.31921C156.54 9.31921 154.731 10.0446 153.297 11.4869C151.863 12.9293 151.146 14.7301 151.146 16.8895C151.146 19.0488 151.863 20.8497 153.297 22.2921C154.731 23.7427 156.524 24.4598 158.683 24.4598Z" fill="#25253D"/>
<path d="M218.696 16.8884C218.696 17.0135 218.68 17.2803 218.655 17.6721C218.621 18.1057 218.263 18.4558 217.821 18.4558H201.622C201.055 18.4558 200.638 19.0144 200.821 19.548C201.28 20.8987 202.063 22.0242 203.172 22.9246C204.573 24.0585 206.282 24.6254 208.3 24.6254C209.8 24.6254 211.176 24.3086 212.435 23.675C213.419 23.1748 214.236 22.5661 214.886 21.8408C215.186 21.5073 215.695 21.4823 216.037 21.7741L217.204 22.7746C217.563 23.083 217.588 23.6166 217.279 23.9751C216.312 25.084 215.12 25.9761 213.719 26.6597C212.035 27.4768 210.192 27.8853 208.183 27.8853C204.898 27.8853 202.172 26.8265 199.987 24.7088C197.803 22.5911 196.711 19.9649 196.711 16.8134C196.711 14.7791 197.186 12.9282 198.145 11.2608C199.104 9.59329 200.421 8.28433 202.114 7.33388C203.798 6.38343 205.674 5.9082 207.733 5.9082C210.718 5.9082 213.311 6.91702 215.503 8.94298C215.528 8.96799 215.553 8.993 215.578 9.01802C217.646 11.2274 218.68 13.8537 218.68 16.8968L218.696 16.8884ZM207.708 9.15141C205.89 9.15141 204.315 9.71835 202.989 10.8522C201.938 11.7443 201.205 12.8448 200.771 14.1538C200.596 14.6874 201.013 15.2376 201.572 15.2376H213.861C214.419 15.2376 214.836 14.6874 214.661 14.1538C214.236 12.8282 213.494 11.7193 212.443 10.8272C211.118 9.71001 209.534 9.15141 207.699 9.15141H207.708Z" fill="#25253D"/>
<path d="M231.637 6.05664H232.337V9.70838H231.637C229.427 9.70838 227.685 10.3587 226.401 11.6426C225.125 12.9349 224.483 14.6774 224.483 16.8785V26.5247C224.483 26.9833 224.108 27.3585 223.65 27.3585H221.782C221.323 27.3585 220.948 26.9833 220.948 26.5247V7.2322C220.948 6.77365 221.323 6.39847 221.782 6.39847H223.65C224.108 6.39847 224.483 6.77365 224.483 7.2322V7.64907C224.483 8.37441 225.359 8.7746 225.876 8.26603C227.385 6.79032 229.302 6.05664 231.637 6.05664Z" fill="#25253D"/>
</g>
<defs>
<clipPath id="clip0_682_36173">
<rect width="232.344" height="35" fill="white"/>
</clipPath>
</defs>
</svg>
