<svg width="33" height="36" viewBox="0 0 33 36" fill="none" xmlns="http://www.w3.org/2000/svg">
<path d="M24.6115 16.9633C24.8637 16.9329 25.1055 16.9322 25.3273 16.9633C25.4558 16.6683 25.4779 16.1604 25.3625 15.6077C25.1905 14.7854 24.9583 14.2879 24.4781 14.3653C23.9979 14.4427 23.9799 15.0383 24.152 15.8606C24.2487 16.3228 24.4201 16.7187 24.6115 16.9633Z" fill="black"/>
<path d="M20.4863 17.6142C20.8304 17.7648 21.0412 17.865 21.1241 17.7779C21.1773 17.7234 21.1614 17.6197 21.0792 17.4857C20.9099 17.2086 20.5602 16.9281 20.1906 16.7698C19.4333 16.4437 18.5302 16.5522 17.8337 17.0531C17.6036 17.2217 17.3859 17.4553 17.417 17.5969C17.4274 17.6425 17.4613 17.6771 17.5421 17.6888C17.7314 17.7102 18.3941 17.3758 19.1576 17.3288C19.6965 17.2956 20.1429 17.4636 20.4863 17.6142Z" fill="black"/>
<path d="M19.7924 18.0091C19.3446 18.0795 19.098 18.2274 18.9391 18.3649C18.8036 18.4831 18.72 18.6137 18.7207 18.7056L18.7553 18.7871L18.8292 18.8154C18.9301 18.8154 19.1567 18.7249 19.1567 18.7249C19.78 18.5017 20.1911 18.5287 20.5981 18.575C20.8233 18.6005 20.9297 18.6144 20.9788 18.537C20.9933 18.5149 21.0113 18.4672 20.9663 18.3939C20.8613 18.224 20.4094 17.9365 19.7931 18.0098L19.7924 18.0091Z" fill="black"/>
<path d="M23.2216 19.4597C23.5256 19.6089 23.8601 19.5502 23.9692 19.3284C24.0784 19.1066 23.9202 18.806 23.6162 18.6568C23.3121 18.5075 22.9777 18.5662 22.8685 18.788C22.7594 19.0098 22.9176 19.3104 23.2216 19.4597Z" fill="black"/>
<path d="M25.1704 17.752C24.9237 17.7479 24.7185 18.0187 24.713 18.358C24.7075 18.6966 24.903 18.9743 25.1497 18.9785C25.3964 18.9826 25.6016 18.7118 25.6071 18.3732C25.6126 18.0346 25.4171 17.7568 25.1704 17.752Z" fill="black"/>
<path d="M8.58355 23.8563C8.52206 23.7796 8.42117 23.8031 8.32375 23.8252C8.25534 23.8411 8.17796 23.859 8.09366 23.8577C7.91193 23.8542 7.75785 23.7768 7.67148 23.6442C7.55885 23.4714 7.56576 23.2137 7.68944 22.9186L7.74748 22.7867C7.94579 22.3424 8.27676 21.5982 7.90502 20.89C7.62518 20.3565 7.16776 20.0242 6.61845 19.9544C6.09124 19.8874 5.54814 20.0829 5.20197 20.465C4.65541 21.0675 4.57043 21.8877 4.67614 22.1779C4.71484 22.2843 4.77564 22.3134 4.81917 22.3196C4.91245 22.332 5.04926 22.2643 5.13563 22.0328L5.16051 21.9575C5.1992 21.8352 5.27037 21.6072 5.38715 21.4241C5.5281 21.2037 5.74783 21.0517 6.00625 20.9964C6.26882 20.9404 6.5376 20.9902 6.76217 21.1373C7.14496 21.3882 7.29214 21.8566 7.12907 22.3044C7.04477 22.5358 6.90727 22.9781 6.93767 23.3415C6.99917 24.0774 7.45175 24.3731 7.85804 24.4042C8.25327 24.4194 8.52966 24.1969 8.59944 24.0345C8.6409 23.9385 8.60566 23.8805 8.58355 23.8549V23.8563Z" fill="black"/>
<path d="M31.4051 22.5112C31.3899 22.458 31.2918 22.0994 31.1571 21.6675L30.8828 20.9316C31.4231 20.1225 31.4328 19.3991 31.3609 18.9893C31.2842 18.4815 31.0728 18.0482 30.6464 17.6012C30.2201 17.1534 29.3488 16.6953 28.1237 16.3519L27.4811 16.1736C27.4777 16.1474 27.4473 14.6584 27.4196 14.0192C27.3996 13.557 27.3595 12.8363 27.1357 12.1253C26.8689 11.1635 26.4046 10.3225 25.8242 9.78429C27.4252 8.12528 28.4243 6.29698 28.4215 4.72918C28.4167 1.71381 24.7138 0.801047 20.15 2.69084L19.1833 3.10127C19.1792 3.09712 17.4352 1.38629 17.4089 1.36349C12.206 -3.17477 -4.06281 14.9078 1.13878 19.2996L2.27542 20.2628C1.98037 21.0263 1.86498 21.9017 1.95964 22.8428C2.08125 24.0513 2.70451 25.2101 3.71539 26.1056C4.67445 26.9555 5.93615 27.4937 7.15985 27.4923C9.18369 32.157 13.8083 35.0183 19.231 35.1793C25.0476 35.3521 29.9306 32.6228 31.9766 27.7197C32.1106 27.3756 32.6786 25.825 32.6786 24.4562C32.6786 23.0805 31.9012 22.5105 31.4058 22.5105L31.4051 22.5112ZM7.6069 26.1823C7.43002 26.2127 7.24967 26.2244 7.06795 26.2203C5.31083 26.1733 3.41344 24.5917 3.2248 22.7157C3.01613 20.6428 4.07538 19.0467 5.95135 18.6687C6.17522 18.6238 6.44677 18.5975 6.73905 18.6127C7.79001 18.6701 9.33846 19.4771 9.69224 21.7663C10.0052 23.7936 9.50775 25.8582 7.6069 26.1823ZM5.64525 17.4284C4.47752 17.6558 3.44867 18.317 2.81921 19.2312C2.44332 18.9175 1.74199 18.3101 1.61831 18.0738C0.613645 16.166 2.71487 12.4569 4.18248 10.3626C7.81005 5.18591 13.4912 1.26814 16.1217 1.97845C16.5494 2.09937 17.9652 3.7411 17.9652 3.7411C17.9652 3.7411 15.336 5.19973 12.8983 7.23324C9.61347 9.76287 7.13152 13.4388 5.64525 17.4284ZM24.0857 25.407C24.1237 25.3911 24.15 25.3469 24.1458 25.3041C24.1403 25.2508 24.0926 25.2122 24.0394 25.2177C24.0394 25.2177 21.2873 25.6254 18.6872 24.6732C18.9705 23.7528 19.7237 24.0852 20.8617 24.1771C22.9132 24.2994 24.7518 23.9995 26.1103 23.6098C27.2877 23.2719 28.834 22.6058 30.0356 21.6578C30.4405 22.5478 30.5836 23.5269 30.5836 23.5269C30.5836 23.5269 30.8973 23.4709 31.1591 23.6319C31.4065 23.7846 31.5882 24.1011 31.4645 24.9206C31.2117 26.4511 30.5615 27.6927 29.4684 28.8356C28.803 29.5521 27.9952 30.1747 27.0707 30.6272C26.5801 30.885 26.0571 31.1082 25.505 31.2885C21.3841 32.6345 17.165 31.1545 15.8052 27.9767C15.6967 27.7376 15.6048 27.4875 15.5323 27.2263C14.9526 25.132 15.4445 22.6197 16.9826 21.038C17.0773 20.9372 17.174 20.8183 17.174 20.6691C17.174 20.544 17.0945 20.4127 17.0261 20.3194C16.4879 19.5393 14.6243 18.2092 14.9988 15.6354C15.2676 13.7864 16.8845 12.4846 18.3922 12.562L18.7743 12.5841C19.4272 12.6228 19.9973 12.7064 20.5356 12.7292C21.4359 12.7679 22.245 12.6373 23.2034 11.8385C23.5267 11.569 23.7859 11.3355 24.2246 11.2609C24.2709 11.2533 24.3856 11.2118 24.6143 11.2229C24.8486 11.2353 25.071 11.2996 25.2714 11.4329C26.0398 11.9442 26.149 13.1831 26.189 14.089C26.2118 14.6065 26.274 15.8579 26.2954 16.2165C26.3445 17.038 26.5601 17.1534 26.9968 17.2978C27.2428 17.3787 27.4708 17.4388 27.8066 17.5335C28.8237 17.8188 29.4269 18.109 29.8076 18.4808C30.0343 18.7136 30.14 18.9603 30.1724 19.1966C30.2927 20.0721 29.4932 21.1527 27.3768 22.1353C25.0634 23.209 22.2574 23.4806 20.3186 23.265L19.6394 23.1883C18.0882 22.9796 17.2037 24.9841 18.1344 26.3571C18.7342 27.2422 20.3683 27.8178 22.0032 27.8185C25.7516 27.8192 28.633 26.2182 29.7047 24.8356L29.7903 24.7133C29.8429 24.6338 29.7993 24.5903 29.7337 24.6352C28.8582 25.2343 24.9688 27.6133 20.8085 26.8974C20.8085 26.8974 20.3027 26.8145 19.8418 26.6349C19.4749 26.4925 18.708 26.1394 18.6147 25.3517C21.9721 26.3902 24.0857 25.4084 24.0857 25.4084V25.407ZM18.7674 24.7789L18.7681 24.7796L18.7688 24.781L18.7674 24.7789ZM12.3449 10.3405C13.6342 8.8501 15.222 7.55454 16.644 6.82695C16.6931 6.80208 16.7456 6.85528 16.7187 6.90365C16.606 7.10818 16.3884 7.54625 16.3193 7.87791C16.3082 7.92974 16.3649 7.96843 16.4084 7.93872C17.2929 7.3355 18.8323 6.68945 20.1825 6.60654C20.2405 6.60308 20.2681 6.67702 20.2225 6.71295C20.0173 6.87049 19.7928 7.08814 19.629 7.30856C19.6014 7.34587 19.6276 7.39977 19.6739 7.40046C20.6219 7.40737 21.9583 7.73903 22.8289 8.22754C22.8876 8.26071 22.8461 8.37472 22.7798 8.35952C21.4621 8.05756 19.3049 7.82816 17.0641 8.37472C15.0638 8.86254 13.5368 9.61569 12.4229 10.4262C12.367 10.467 12.2992 10.3937 12.3449 10.3405Z" fill="black"/>
</svg>
