<svg width="21" height="22" viewBox="0 0 21 22" fill="none" xmlns="http://www.w3.org/2000/svg">
<path d="M5.70898 10.4993L8.41732 13.2077L13.834 7.79102" stroke="#FF355E" stroke-linecap="round" stroke-linejoin="round"/>
<path d="M6.64987 17.0614C6.03603 17.0767 5.4192 17.1418 4.80378 17.2562C4.49602 17.3133 4.18468 17.3821 3.86895 17.4537C3.5997 17.5429 3.32418 17.5767 3.05533 17.5532C3.00332 17.5389 2.95387 17.5165 2.90824 17.4865C2.88349 17.4726 2.862 17.4526 2.84507 17.4277C2.82814 17.4028 2.81614 17.3735 2.80979 17.3417L2.70979 16.9762L2.77545 14.8793L2.84745 13.0554C2.89502 12.0666 2.92227 11.0757 2.99894 10.0832C3.06284 9.2561 3.12992 8.42999 3.23288 7.58958C3.27599 7.17949 3.33186 6.77334 3.39171 6.34302L3.48787 5.71647L3.51021 5.554L3.5517 5.32973L3.63148 4.88018C3.68451 4.73726 3.75045 4.60002 3.82807 4.47103C3.95605 4.40032 4.09462 4.37131 4.22791 4.38734C4.37779 4.39988 4.54203 4.4338 4.68514 4.45694L4.96776 4.51481C5.34645 4.58972 5.71877 4.66266 6.09347 4.72787C6.83173 4.87139 7.58497 4.94462 8.34613 4.94689C8.65462 4.94066 8.96527 4.89486 9.27258 4.81031L10.2465 4.49788C10.9051 4.27836 11.5624 4.09658 12.219 3.93995C13.0747 3.72438 13.9361 3.58344 14.7958 3.51833C15.666 3.4462 16.5256 3.53378 17.3435 3.77787C17.8569 3.93685 17.693 4.16135 17.2166 4.28908C16.4912 4.45401 15.7615 4.5441 15.0365 4.55828C13.3654 4.6659 11.6895 4.99953 10.0422 5.55252L9.39403 5.74985C9.14951 5.81524 8.90291 5.85647 8.65694 5.87308C8.20183 5.90237 7.74904 5.89376 7.30199 5.84733C6.42779 5.75872 5.5843 5.58223 4.75397 5.39712L4.48969 5.33646L4.41634 5.31375C4.39171 5.29995 4.36473 5.29159 4.33662 5.28906C4.32441 5.31762 4.31517 5.34747 4.3091 5.37793L4.27319 5.5616L4.25884 5.60796L4.23252 5.69297L4.20418 5.87475C4.16947 6.1223 4.12838 6.36787 4.10004 6.6174C4.03579 7.11834 3.98549 7.61936 3.9352 8.12039C3.84298 9.12926 3.77746 10.1422 3.72072 11.1493C3.66399 12.0549 3.6256 12.9576 3.57963 13.8623L3.49956 16.3781L3.49077 16.5194C3.51548 16.5524 3.56093 16.5411 3.60438 16.5249L3.72318 16.5024L3.97193 16.4439C4.35065 16.3495 4.75807 16.2639 5.14834 16.2111C5.88138 16.0963 6.61475 16.0487 7.34164 16.0688C7.68925 16.0748 8.06596 16.111 8.42193 16.1577C8.77791 16.2044 9.13387 16.285 9.4735 16.3393C10.5042 16.5385 11.5611 16.6118 12.6279 16.5581C13.6747 16.4842 14.7754 16.2703 15.6799 15.64C15.758 15.5866 15.8328 15.5262 15.9036 15.4594C15.951 15.4191 16.0073 15.3729 16.0001 15.2945L16.0803 14.6291C16.1366 14.1427 16.1929 13.6562 16.2511 13.1746C16.3593 12.2045 16.4694 11.2393 16.5808 10.2702C16.6239 9.86011 16.6742 9.42684 16.7233 8.99742C16.9244 7.39981 17.0457 6.89535 17.3072 6.56983C17.3603 6.49113 17.4202 6.41877 17.4858 6.35413C17.6728 6.21301 17.7265 6.85211 17.6136 8.04087C17.4543 9.77424 17.2571 11.5509 17.034 13.3662C16.9777 13.8188 16.9259 14.2685 16.8684 14.7249L16.763 15.5392L16.7299 15.7026C16.7144 15.7528 16.7188 15.8177 16.6833 15.8533C16.615 15.9392 16.5422 16.0199 16.4652 16.0948C16.397 16.1653 16.3253 16.2308 16.2507 16.291C16.2001 16.3303 16.147 16.3774 16.0944 16.4119C15.3127 16.9416 14.4607 17.2799 13.596 17.4041C12.3816 17.5977 11.1679 17.6049 9.9864 17.4255C9.4072 17.3435 8.80886 17.2218 8.28546 17.1402C7.74206 17.065 7.19057 17.0357 6.63513 17.0526L6.64987 17.0614Z" fill="#FF355E"/>
</svg>
