<svg width="180" height="145" viewBox="0 0 180 145" fill="none" xmlns="http://www.w3.org/2000/svg">
<path d="M127.957 53.2141L126.414 53.2827C127.041 53.8246 127.185 54.5714 127.871 55.0175C128.44 55.3884 127.743 55.5404 127.493 55.7222C125.181 57.4033 122.396 57.4835 119.751 57.9676C110.607 59.6413 101.459 61.3001 92.291 62.835C82.8791 64.4104 73.4482 65.847 63.9537 66.8483C59.0356 67.3671 54.1142 67.8024 49.1639 67.7207C47.0173 67.6851 44.8757 67.5554 42.7489 67.2349C42.3352 67.1898 41.9369 67.0517 41.584 66.8309C42.63 66.2171 43.7306 66.0874 44.8162 65.999C46.9554 65.8256 49.1019 65.7438 51.2436 65.6017C60.6665 64.9906 70.0482 63.8565 79.3455 62.2047C85.8843 61.0349 92.4371 59.9362 98.9866 58.8251C99.5585 58.7434 100.097 58.5076 100.545 58.1427C101.494 57.3579 102.398 56.531 103.128 55.5322C104.949 53.0431 104.886 50.5036 102.897 48.1492C100.886 45.7683 98.218 44.3202 95.4316 43.0901C90.733 41.0157 85.7984 39.7485 80.7358 38.9785C79.0309 38.72 77.3294 39.0355 75.636 39.1925C70.6486 39.6535 65.6462 39.9525 60.6835 40.6977C60.1799 40.7728 59.6631 40.8315 59.1652 40.663C58.9043 40.5746 58.6253 40.4341 58.6402 40.1111C58.6542 39.8294 58.9341 39.7807 59.1595 39.6981C60.3624 39.2958 61.6173 39.1289 62.8631 38.9777C69.1584 38.2152 75.4949 37.86 81.805 37.2941C85.2329 36.9876 88.6723 36.7712 92.0846 36.3416C94.5358 36.0334 96.7236 36.7051 98.9123 37.5956C103.937 39.6386 108.635 42.3317 113.405 44.8819C117.574 47.1124 121.61 49.5908 125.88 51.6313C126.62 51.9882 127.379 52.3764 127.957 53.2141Z" fill="#25253D"/>
<path d="M163.871 126.495C164.766 125.731 165.721 125.448 166.63 125.071C167.631 124.657 168.557 124.889 169.43 125.44C171.98 127.047 173.98 129.232 175.802 131.589C177.264 133.478 178.575 135.466 179.328 137.766C179.392 137.96 179.456 138.153 179.508 138.35C180.317 141.374 179.352 143.081 176.279 143.591C172.979 144.133 169.625 144.268 166.293 143.994C165.668 143.945 164.687 143.994 164.605 143.19C164.522 142.385 165.487 142.271 166.091 142.049C167.426 141.56 168.836 141.337 170.399 141.034C167.532 138.373 165.197 135.494 163.692 131.977L162.858 132.631C164.207 133.967 164.349 135.499 163.232 137.031C162.989 137.361 162.954 137.481 163.265 137.815C164.776 139.432 164.217 142.497 162.254 143.528C160.541 144.427 158.627 144.469 156.78 144.616C151.373 145.043 145.956 145.188 140.544 144.664C139.8 144.58 139.064 144.437 138.343 144.238C137.969 144.141 137.51 144.026 137.483 143.499C137.46 143.048 137.829 142.853 138.144 142.663C139.059 142.11 140.092 141.865 141.111 141.597C141.571 141.476 142.036 141.333 142.506 141.299C143.231 141.245 143.559 140.994 143.285 140.23C143.22 140.047 143.193 139.779 143.28 139.625C144.016 138.33 143.162 137.355 142.747 136.228C142.301 135.019 141.912 133.662 143.17 132.566C143.487 132.289 143.076 132.138 142.964 131.971C142.091 130.668 142.165 128.886 143.154 127.689C143.456 127.324 143.83 126.987 144.28 127.266C144.748 127.555 144.289 127.936 144.169 128.236C143.93 128.838 143.619 129.403 143.613 130.079C143.608 130.705 143.793 131.2 144.419 131.558C144.478 130.887 144.517 130.267 144.593 129.651C144.623 129.403 144.604 129.028 144.998 129.066C145.416 129.107 145.548 129.421 145.489 129.815C145.414 130.316 145.324 130.792 145.547 131.309C146.165 132.748 147.513 132.492 148.729 132.867C148.361 131.687 148.055 130.65 148.334 129.548C148.5 128.901 148.012 128.945 147.605 128.877C146.359 128.671 145.226 128.257 144.565 127.06C144.4 126.762 144.257 126.46 144.243 126.103C144.227 125.671 144.263 125.187 144.682 125.052C145.141 124.904 145.117 125.471 145.26 125.728C145.55 126.254 145.88 126.691 146.54 126.844C146.56 126.733 146.58 126.648 146.588 126.563C146.715 125.246 146.327 124.385 144.967 123.775C143.638 123.18 143.752 121.658 145.045 120.833C146.516 119.897 148.205 119.599 149.896 119.374C153.511 118.895 157.105 118.952 160.618 120.051C163.939 121.094 164.933 123.004 163.871 126.495Z" fill="#25253D"/>
<path d="M31.6202 140.554C29.1153 139.631 26.5989 138.752 24.2096 137.524C19.2469 134.974 14.749 131.73 10.2932 128.413C8.16315 126.827 5.88614 125.439 3.9311 123.621C3.73874 123.442 3.48198 123.333 3.13853 123.119C3.43327 125.143 4.24731 126.719 5.81595 127.863C7.69173 129.229 9.76813 130.269 11.7421 131.475C12.022 131.646 12.377 131.723 12.5909 132.161C11.2121 131.991 9.95389 131.67 8.76006 131.136C6.7588 130.239 4.98788 128.988 3.27145 127.625C1.58721 126.286 1.52942 124.419 1.32302 122.563C0.628689 116.321 0.453655 110.047 0.212578 103.78C-0.231597 92.2504 0.0367255 80.7311 0.863981 69.2225C1.23633 64.0536 1.5385 58.8788 2.14863 53.7296C2.27247 52.6829 2.40373 51.6338 2.75049 50.6292C2.89084 50.2236 3.04193 49.8196 3.56866 49.4727C3.88404 51.9394 3.37794 54.2542 3.36886 56.6706C3.7214 56.217 3.55627 55.6561 4.02935 55.2447C4.3117 56.7565 4.28776 58.2187 4.15319 59.6603C3.77176 63.7677 3.54142 67.8735 3.52078 72.0057C3.49519 77.083 2.8314 82.1537 2.98909 87.2343C3.24667 95.5582 4.00458 103.828 6.19078 111.914C7.98234 118.538 11.7 123.94 16.2384 128.993C19.7885 132.949 24.279 135.035 29.0212 136.889C31.3065 137.783 33.6446 138.49 36.0083 139.14C36.3057 139.215 36.598 139.309 36.8835 139.422C37.3871 139.635 38.0641 139.881 37.9567 140.483C37.8494 141.085 37.1534 140.674 36.7357 140.788C34.9903 141.267 33.302 140.696 31.5922 140.529L31.6202 140.554Z" fill="#25253D"/>
<path d="M52.9087 50.9844C54.8679 50.1079 56.7792 50.0178 58.6632 49.8022C60.4581 49.5957 62.2414 49.3371 63.9619 48.763C64.3524 48.6438 64.7319 48.4912 65.0963 48.307C65.5364 48.069 66.1778 47.8386 66.1052 47.2875C66.0507 46.8679 65.377 46.91 64.9749 46.7696C64.1279 46.4755 63.4261 46.6779 62.6071 47.1496C59.9949 48.6564 57.1301 49.5453 54.1488 49.9873C53.2646 50.1195 52.448 50.2607 51.6893 50.7985C50.5739 51.5891 49.305 52.1005 47.8915 52.5433C48.7692 53.7824 50.0794 53.8064 51.4689 54.1269C51.0495 53.3661 51.0231 52.7052 51.0957 52.0344C51.1246 51.7642 51.118 51.4255 51.5002 51.4503C51.8462 51.4726 51.8652 51.7989 51.8899 52.0707C51.9048 52.236 51.8899 52.4119 51.9031 52.5821C51.9774 53.9526 53.2002 54.7069 54.4394 54.1699C54.7251 54.046 54.6343 53.8931 54.593 53.6924C54.531 53.3933 54.4576 53.0835 54.4741 52.7837C54.4906 52.4838 54.2768 51.9617 54.711 51.9047C55.2138 51.8378 55.3022 52.369 55.3715 52.7655C55.4797 53.3768 55.3352 54.1401 56.3532 54.0873C57.135 54.0435 57.8847 54.0179 57.2968 52.9002C57.2654 52.8385 57.2542 52.7686 57.2646 52.7002C57.3422 52.2715 57.0095 51.5652 57.6328 51.4958C58.2562 51.4264 58.0514 52.1567 58.1365 52.5416C58.3965 53.7304 59.199 54.0848 60.3449 53.5016C60.5398 53.4024 60.5926 53.3363 60.5183 53.1447C60.4564 52.9869 60.3606 52.8217 60.3664 52.6622C60.3813 52.2574 59.9908 51.6544 60.5183 51.4933C61.1119 51.3132 61.0963 51.9989 61.2407 52.3863C61.3852 52.7738 61.3547 53.3297 62.0556 53.1298C62.6063 52.9695 63.365 53.0687 63.152 52.0963C63.1173 51.9369 63.1693 51.7568 63.1859 51.5875C63.2073 51.3743 63.0678 51.0662 63.4476 51.043C63.7663 51.024 63.9669 51.2083 64.004 51.5197C64.0412 51.8312 64.0362 52.1269 64.0536 52.5111C65.4282 52.1509 66.7516 51.8617 66.925 50.0988C66.9498 49.8427 67.0076 49.3264 67.4534 49.3669C67.8414 49.4024 67.9025 49.8427 67.9942 50.1608C68.3327 51.3347 67.7275 52.5813 66.4718 53.1703C64.4499 54.1187 62.2727 54.5433 60.0898 54.9051C57.3596 55.3537 54.6128 55.4586 51.8404 55.4115C50.1933 55.3834 48.538 55.8337 46.8868 56.0377C42.8892 56.5334 38.885 56.8795 34.8594 56.3682C33.6358 56.212 32.4445 55.9262 31.3794 55.281C30.5538 54.7779 30.5629 54.2351 31.4116 53.7667C32.7392 53.0332 34.2385 52.8101 35.7585 52.4037C34.0371 49.8914 34.8602 47.6717 36.6427 45.7229C40.8467 41.1264 45.9538 37.931 51.9609 36.2226C52.2238 36.1498 52.4936 36.1052 52.7659 36.0896C54.6037 35.9723 55.3443 36.9471 54.7705 38.7166C54.7391 38.8133 54.7077 38.9108 54.6706 39.0058C54.1001 40.4589 54.1859 40.6695 55.6481 41.4073C56.4877 41.8302 56.7536 41.6667 56.7065 40.7216C56.6644 39.8674 56.1699 39.1966 55.7686 38.4853C55.5292 38.0599 55.0726 37.4733 55.4821 37.1247C55.8685 36.7943 56.4341 37.2569 56.8304 37.5758C58.4428 38.8727 58.8564 40.9727 57.8954 42.8108C57.225 44.0946 56.2508 45.1454 55.199 46.3284C57.2567 45.6882 59.3838 45.2976 61.5346 45.1653C63.0669 45.0609 64.6052 45.245 66.0697 45.708C67.8381 46.2805 68.0693 47.3396 66.8548 48.7646C66.1356 49.6361 65.136 50.2304 64.0272 50.4458C60.4217 51.1719 56.7891 51.5536 52.9087 50.9844Z" fill="#25253D"/>
<path d="M112.897 67.6598C111.08 69.7516 108.481 69.8994 106.028 70.2481C96.416 71.612 86.7911 72.8511 77.172 74.1936C71.0353 75.0511 64.8656 75.6946 58.7924 76.99C57.9875 77.1618 57.7034 77.5112 57.734 78.2688C57.7392 78.6098 57.7204 78.9507 57.6779 79.289C57.5953 80.1457 57.4401 80.9041 58.8254 80.7909C59.6263 80.7256 59.7666 81.6641 59.8789 82.3267C60.0795 83.5088 60.044 84.7108 59.9871 85.9012C59.9045 87.7278 59.9821 89.5865 59.0971 91.3296C58.1617 88.4795 59.0294 85.4816 58.482 82.415C56.9563 83.9128 56.1224 85.5873 55.7765 87.5369C55.5618 88.7472 55.6246 89.9178 56.2529 91.0017C56.6062 91.613 57.0231 92.1194 57.8843 91.8526C58.2739 91.7328 58.766 91.7857 58.9683 92.2045C59.1631 92.606 58.7206 92.7638 58.4787 92.9827C58.406 93.0488 58.3136 93.1206 58.2888 93.2066C57.3897 96.34 56.2578 99.4264 56.5848 102.789C56.6591 103.552 56.8935 103.833 57.6341 103.686C58.4993 103.515 59.1722 103.78 59.3183 104.704C59.8269 107.93 59.6676 111.129 58.8717 114.496C58.3111 113.737 58.2236 113.086 58.2236 112.406C58.2236 110.359 58.2351 108.311 58.2079 106.264C58.2029 105.857 58.3053 105.286 57.8339 105.108C57.3476 104.922 57.0553 105.415 56.7606 105.73C54.226 108.441 54.0551 111.704 56.2983 114.178C56.6591 114.576 57.0198 114.871 57.611 114.764C57.9908 114.695 58.4498 114.776 58.5703 115.157C58.7123 115.602 58.264 115.797 57.9222 115.93C57.6184 116.049 57.4211 116.188 57.289 116.516C56.4238 118.664 56.1389 120.903 56.238 123.208C56.2562 123.631 56.5947 124.282 55.8995 124.37C55.1251 124.471 54.9773 123.778 54.9666 123.185C54.9344 121.278 54.747 119.366 54.9666 117.464C55.0599 116.667 54.7403 116.407 54.0303 116.424C53.0619 116.446 52.5203 115.949 52.2817 115.04C51.4264 111.792 51.6154 108.558 52.4229 105.338C52.6772 104.324 53.4417 103.919 54.4167 103.921C55.031 103.921 55.0838 103.745 55.0054 103.15C54.6644 100.56 55.0797 97.9823 55.2654 95.4015C55.2844 95.1298 55.3158 94.8588 55.3521 94.5886C55.4512 93.8641 55.2861 93.4461 54.4085 93.4974C53.4681 93.5527 52.9083 93.0149 52.6796 92.0971C51.8598 88.8116 51.9952 85.5518 52.8852 82.3027C53.1791 81.2288 54.0295 81.0189 54.9418 80.9917C55.5965 80.9727 55.8004 80.8132 55.7261 80.1061C55.6188 79.0941 55.6601 78.0656 55.7641 77.042C55.8714 75.9796 56.3767 75.4055 57.4442 75.1824C62.5828 74.1085 67.7874 73.4625 72.9837 72.7677C79.7033 71.8697 86.4221 70.9585 93.1549 70.1679C98.9771 69.4839 104.751 68.5248 110.517 67.4954C111.335 67.3418 112.022 67.4029 112.897 67.6598Z" fill="#25253D"/>
<path d="M31.5919 140.529C33.5329 141.74 35.5945 142.659 37.8665 143.008C39.6919 143.286 42.7483 142.372 44.8842 140.942C43.3791 140.694 41.912 140.754 40.3714 140.217C42.144 139.869 43.7836 139.82 45.4076 139.811C51.2983 139.782 57.094 138.903 62.8493 137.806C75.2884 135.428 87.7658 133.263 100.281 131.311C107.612 130.18 114.944 128.998 122.02 126.648C123.505 126.152 124.954 125.557 126.359 124.867C126.933 124.587 127.507 124.308 128.242 124.238C128.003 125.352 127.033 125.736 126.096 126.488C127.042 126.29 127.613 126.328 127.806 127.186C128.06 128.316 127.816 129.202 126.944 129.681C125.623 130.406 124.169 130.801 122.716 131.15C120.074 131.787 117.437 132.483 114.738 132.885C113.768 133.03 113.087 132.927 113.039 131.781C113.019 131.298 112.741 131.335 112.418 131.395C107.363 132.35 102.28 133.13 97.192 133.873C89.8119 134.955 82.4723 136.269 75.1483 137.673C69.3322 138.788 63.5068 139.856 57.6719 140.877C55.0911 141.333 52.5061 141.818 49.8675 141.834C49.2978 141.839 48.7414 141.824 48.4054 142.464C48.2295 142.799 47.7928 142.887 47.4361 142.984C44.9054 143.673 42.325 144.164 39.7183 144.453C38.6888 144.568 37.6907 144.429 36.6991 144.105C34.82 143.49 33.0334 142.654 31.2047 141.919C31.0774 141.871 30.9565 141.807 30.8447 141.73C30.4939 141.472 29.8466 141.234 29.9531 140.851C30.0992 140.323 30.7638 140.585 31.2146 140.549C31.3492 140.539 31.4854 140.554 31.6208 140.556L31.5919 140.529Z" fill="#25253D"/>
<path d="M93.6756 82.5761C96.5653 80.2167 99.7975 79.4146 103.408 80.5273C106.954 81.6195 108.917 84.2448 110.033 87.6088C110.694 89.5997 110.752 91.6452 110.706 93.7534C110.666 95.6113 110.608 97.3974 109.876 99.1124C108.344 102.699 105.98 105.404 102.047 106.414C100.947 106.698 99.828 106.7 98.7011 106.604C88.6568 105.753 84.8409 95.5799 87.2987 88.8892C88.2894 86.1961 89.6459 83.7583 91.7776 81.7987C91.9811 81.6181 92.1974 81.4524 92.4248 81.3031C92.8682 81.0015 93.3949 80.7405 93.8201 81.1824C94.2808 81.6616 93.7252 82.03 93.4899 82.4109C92.5817 83.4138 91.5993 84.3564 90.8331 85.4848C88.1086 89.4997 87.5464 93.5229 88.5214 96.4598C87.496 93.171 88.2382 88.648 91.5596 84.5902C92.1829 83.8268 92.732 82.9982 93.6756 82.5761Z" fill="#25253D"/>
<path d="M38.318 137.798C37.8804 137.257 37.7979 136.682 37.7508 136.108C37.5532 133.697 37.3644 131.285 37.1844 128.872C36.8649 124.693 36.4719 120.518 36.2482 116.335C35.7735 107.44 35.7372 98.5411 36.3308 89.6513C36.642 84.9928 36.7527 80.3055 37.6138 75.709C37.9556 73.8915 38.5219 72.0799 39.0767 69.998C39.8478 71.9345 39.7001 73.6586 39.5548 75.3678C38.9265 82.7367 38.1826 90.0932 38.1265 97.5076C38.0769 104.025 38.1099 110.54 38.2255 117.055C38.323 122.988 38.6747 128.911 39.0173 134.834C39.0776 135.846 39.2336 136.94 38.318 137.798Z" fill="#25253D"/>
<path d="M116.454 113.285C115.272 114.635 113.993 115.218 112.588 115.542C110.369 116.055 108.147 116.559 105.912 116.987C105.302 117.105 105.439 117.866 104.741 117.928C103.632 118.027 102.553 118.419 101.447 118.602C93.0263 120.003 84.5953 121.373 76.1716 122.77C71.6391 123.522 67.1156 124.322 62.5822 125.065C61.3083 125.274 60.0145 125.361 58.7291 125.489C58.4912 125.506 58.2521 125.491 58.0182 125.444C57.6442 125.377 57.2215 125.266 57.2207 124.813C57.2207 124.413 57.6385 124.286 57.9563 124.211C59.5459 123.839 61.139 123.484 62.7357 123.148C71.398 121.335 80.156 120.048 88.8529 118.432C96.9438 116.93 105.074 115.623 113.067 113.627C113.789 113.447 114.543 113.385 115.285 113.291C115.575 113.255 115.875 113.285 116.454 113.285Z" fill="#25253D"/>
<path d="M128.287 122.024C127.961 120.306 128.034 118.754 128.141 117.201C128.527 111.592 129.132 105.987 129.253 100.372C129.478 90.1145 129.561 79.8484 128.863 69.598C128.654 66.5373 128.227 63.498 127.772 60.4637C127.655 59.6855 127.555 58.9023 127.736 58.1274C127.801 57.8499 127.907 57.4533 128.218 57.4071C128.573 57.3542 128.682 57.7582 128.81 58.02C129.234 58.8891 129.347 59.8449 129.514 60.7801C130.543 66.5323 130.785 72.3506 130.993 78.1747C131.202 83.9988 131.135 89.8328 131.032 95.6586C130.902 103.052 130.587 110.446 129.716 117.798C129.55 119.22 129.332 120.676 128.287 122.024Z" fill="#25253D"/>
<path d="M4.28125 48.2831C5.4049 48.1344 6.32792 48.3847 7.21957 48.8506C9.27203 49.9246 11.2551 51.1125 13.2465 52.298C20.5177 56.6411 28.0416 60.5459 35.7781 63.9916C36.7688 64.4336 37.7801 64.84 38.7692 65.2886C39.136 65.4674 39.488 65.6751 39.8219 65.9098C40.0885 66.0875 40.3172 66.3906 40.2223 66.6765C40.0918 67.0821 39.6931 66.8681 39.4198 66.8219C37.3277 66.4691 35.3686 65.6653 33.3929 64.9441C23.7977 61.4488 14.8077 56.7226 6.12565 51.3802C5.33224 50.8919 4.71222 50.3442 4.74937 49.2901C4.75432 49.0001 4.48105 48.6986 4.28125 48.2831Z" fill="#25253D"/>
<path d="M117.07 108.878C116.286 108.052 116.059 107.115 115.992 106.076C115.786 102.907 115.999 99.7422 115.992 96.5757C115.981 89.8223 116.27 83.068 115.992 76.3153C115.929 74.8184 115.725 73.3273 115.644 71.8303C115.605 71.1339 115.546 70.1484 116.401 70.0716C117.144 70.0055 117.152 70.9803 117.277 71.5875C117.874 74.5136 117.845 77.4876 117.875 80.4525C117.966 89.353 117.535 98.247 117.462 107.146C117.471 107.746 117.337 108.34 117.07 108.878Z" fill="#25253D"/>
<path d="M36.8091 42.9618C35.6343 43.1898 35.3049 44.4884 33.9954 44.7272C30.3677 45.3881 26.6996 45.6467 23.0529 46.1076C19.0982 46.6082 15.1271 46.9825 11.1914 47.6227C10.1883 47.7879 9.15878 47.7987 8.13668 47.8416C7.76351 47.8573 7.31934 47.7739 7.26568 47.3137C7.21696 46.9007 7.62811 46.7933 7.94184 46.6677C9.88779 45.8862 11.9485 45.5773 14.0018 45.3013C20.6859 44.4031 27.3733 43.5387 34.064 42.7082C34.9209 42.6008 35.8035 42.6933 36.6737 42.6933C36.7265 42.7825 36.7662 42.8726 36.8091 42.9618Z" fill="#25253D"/>
<path d="M103.552 11.6532C103.496 12.0911 103.438 12.3967 103.423 12.6983C103.4 13.165 103.217 13.4682 102.726 13.5591C102.263 13.6417 101.944 13.5004 101.7 13.0923C100.654 11.3335 99.7024 9.53342 99.2236 7.52431C99.1039 7.02121 98.961 6.50407 98.6184 6.13397C97.2331 4.6354 97.3197 2.68247 96.9672 0.875756C96.8293 0.174386 97.5072 -0.193232 98.199 0.103342C99.3342 0.590749 99.9411 1.60852 100.593 2.55194C102.517 5.3219 102.846 8.60818 103.552 11.6532Z" fill="#25253D"/>
<path d="M126.709 14.1369C126.399 14.7341 126.108 15.3215 125.599 15.8097C123.82 17.5099 121.725 18.7664 119.698 20.1212C118.739 20.7623 117.809 21.448 116.843 22.0791C116.519 22.2906 116.1 22.602 115.736 22.2262C115.39 21.8668 115.79 21.5405 115.967 21.2398C117.041 19.4141 118.231 17.6875 120.076 16.5227C120.341 16.365 120.569 16.1533 120.747 15.9014C121.884 14.1426 123.761 13.7081 125.581 13.1943C126.31 12.9894 126.469 13.6131 126.709 14.1369Z" fill="#25253D"/>
<path d="M93.6754 82.5776C91.3192 84.733 89.45 87.1956 88.8258 90.4191C88.2785 93.2461 88.4799 96.0367 89.4442 98.9363C86.3672 94.296 88.3057 86.6438 93.4897 82.4141L93.6754 82.5776Z" fill="#F3F5FA"/>
<path d="M162.201 122.4C160.384 122.788 158.806 123.17 157.21 123.459C153.936 124.049 150.656 124.165 147.39 123.376C147.192 123.333 146.996 123.275 146.806 123.203C146.292 122.994 145.485 122.968 145.496 122.295C145.51 121.686 146.262 121.487 146.797 121.308C149.616 120.372 152.528 120.257 155.46 120.419C157.334 120.523 159.186 120.78 160.929 121.524C162.482 122.185 163.168 124.159 162.4 125.686C162.245 125.995 162.064 126.353 161.68 126.31C161.34 126.272 161.349 125.849 161.193 125.601C160.992 125.283 161.193 124.518 160.689 124.665C160.185 124.812 160.553 125.469 160.579 125.913C160.596 126.21 161.197 126.574 160.518 126.811C159.905 127.023 159.754 126.585 159.627 126.134C159.39 125.295 159.132 124.542 160.334 124.092C160.98 123.844 161.579 123.289 162.201 122.4Z" fill="#F3F5FA"/>
<path d="M176.391 134.42C177.341 135.943 178.057 137.292 178.45 138.789C178.767 140.003 178.408 141.019 177.427 141.783C176.469 142.527 175.437 142.661 174.207 142.006C175.152 141.554 175.815 140.964 176.312 140.174C176.683 139.584 177.409 140.174 177.953 139.741C176.984 139.26 176.019 138.88 175.159 138.337C171.283 135.884 168.714 132.443 167.532 127.991C167.452 127.731 167.41 127.461 167.409 127.188C167.425 126.761 167.122 126.172 167.822 126.013C168.367 125.889 169.209 126.564 169.278 127.137C169.346 127.711 169.378 128.294 169.451 128.865C169.525 129.435 169.377 130.131 170.346 130.138C170.616 130.138 170.93 130.485 170.893 130.9C170.821 131.702 171.212 132.069 171.874 132.568C172.805 133.27 174.176 133.754 174.275 135.266C174.28 135.349 174.458 135.425 174.682 135.606V133.882C175.177 134.37 175.896 134.414 175.766 135.232C175.733 135.438 175.743 135.804 176.047 135.802C176.49 135.797 176.244 135.388 176.306 135.164C176.352 135.004 176.348 134.838 176.391 134.42Z" fill="#F3F5FA"/>
<path d="M158.708 132.703C156.827 133.135 156.376 132.735 156.657 130.942C156.73 130.479 156.74 130.033 156.244 129.975C155.711 129.912 155.844 130.495 155.77 130.801C155.676 131.189 155.678 131.61 155.687 132.014C155.7 132.377 155.784 132.737 155.852 133.22H154.103C152.874 133.22 152.686 133.044 152.656 131.826C152.651 131.589 152.673 131.35 152.68 131.112C152.686 130.826 152.661 130.527 152.314 130.48C151.927 130.429 151.901 130.754 151.873 131.022C151.839 131.361 151.886 131.718 151.797 132.038C151.689 132.424 152.271 132.925 151.686 133.172C150.972 133.472 149.885 133.044 149.551 132.42C149.343 132.03 149.205 131.605 149.145 131.167C148.906 129.443 149.11 129.192 150.796 129.297C152.907 129.429 155.014 129.495 157.107 129.102C157.71 128.99 158.057 129.064 157.965 129.833C157.85 130.842 158.11 131.795 158.708 132.703Z" fill="#F3F5FA"/>
<path d="M171.556 140.233C172.089 139.929 172.629 139.638 173.056 139.186C173.216 139.014 173.361 138.773 173.129 138.557C172.93 138.373 172.772 138.55 172.602 138.669C170.814 139.922 170.841 140.057 169.067 137.739C169.438 137.501 169.82 137.283 170.17 137.02C170.342 136.891 170.364 136.665 170.253 136.46C170.142 136.255 170.005 136.327 169.833 136.396C168.255 137.028 168.253 137.023 167.246 135.46C167.254 135.216 167.499 135.304 167.606 135.212C168.752 134.233 169.405 134.862 170.137 135.837C171.41 137.53 173.262 138.518 175.105 139.457C175.744 139.782 175.646 139.975 175.249 140.382C173.981 141.684 172.991 141.654 171.556 140.233Z" fill="#F3F5FA"/>
<path d="M158.68 143.35C156.337 143.651 156.059 143.423 155.946 141.235C155.926 140.856 155.968 140.349 155.479 140.392C155.052 140.43 155.253 140.947 155.22 141.257C155.138 142.053 155.394 142.801 155.598 143.555C153.369 143.959 152.089 142.777 152.441 140.701C152.51 140.288 152.621 140.084 153.061 140.122C154.528 140.238 155.979 140.04 157.437 139.909C157.724 139.884 158.003 139.827 157.932 140.283C157.76 141.366 158.11 142.344 158.68 143.35Z" fill="#F3F5FA"/>
<path d="M156.004 126.59C156.417 127.483 155.839 127.545 155.206 127.533C154.546 127.521 153.729 127.84 153.637 126.678C153.574 125.836 153.572 125.274 154.711 125.257C155.885 125.241 157.057 124.965 158.229 124.792C158.59 124.739 158.823 124.758 158.744 125.237C158.694 125.505 158.711 125.781 158.795 126.041C159.159 127.036 158.755 127.248 157.804 127.333C157.014 127.404 156.761 127.227 156.731 126.482C156.716 126.112 156.86 125.441 156.341 125.485C155.748 125.536 156.186 126.216 156.004 126.59Z" fill="#F3F5FA"/>
<path d="M147.877 137.906C147.051 137.906 146.325 137.696 145.662 137.399C144.907 137.06 144.69 136.336 144.794 135.527C144.849 135.103 145.077 134.592 144.511 134.371C143.874 134.123 144.247 135.055 143.755 135.07C143.59 134.979 143.664 134.79 143.659 134.649C143.612 133.169 143.654 133.141 144.975 133.663C145.034 133.697 145.097 133.724 145.161 133.746C146.594 134.025 147.857 134.392 147.383 136.362C147.282 136.779 147.673 137.312 147.877 137.906Z" fill="#F3F5FA"/>
<path d="M145.263 142.219C144.655 141.25 144.486 140.323 144.505 139.356C144.515 138.884 144.601 138.613 145.238 138.848C146.063 139.156 146.944 139.309 147.811 139.484C148.212 139.567 148.451 139.669 148.299 140.137C147.934 141.254 148.233 142.285 148.785 143.28C146.922 143.34 145.977 142.371 146.091 140.58C146.11 140.377 146.117 140.172 146.112 139.967C146.113 139.907 146.101 139.847 146.078 139.791C146.054 139.735 146.019 139.685 145.974 139.644C145.929 139.603 145.877 139.572 145.819 139.553C145.762 139.534 145.701 139.527 145.641 139.533C145.398 139.541 145.334 139.754 145.297 139.967C145.179 140.666 145.21 141.372 145.263 142.219Z" fill="#F3F5FA"/>
<path d="M152.279 143.588C149.816 143.875 148.39 142.368 149.104 140.333C149.259 139.891 149.42 139.695 149.892 139.858C150.085 139.928 150.291 139.956 150.496 139.94C151.45 139.835 151.872 140.143 151.627 141.179C151.417 142.056 151.992 142.794 152.279 143.588Z" fill="#F3F5FA"/>
<path d="M155.124 135.424C154.616 135.277 154.477 135.473 154.509 135.981C154.559 136.764 154.839 137.481 155.146 138.336C154.066 138.123 152.935 138.859 152.183 137.643C151.973 137.296 151.826 136.914 151.749 136.516C151.501 135.344 151.738 135.049 152.886 135.065C153.696 135.077 154.505 135.08 155.315 135.087C155.344 135.253 155.269 135.358 155.124 135.424Z" fill="#F3F5FA"/>
<path d="M151.513 138.255C149.174 138.447 147.963 137.502 148.112 135.637C148.166 134.957 148.311 134.397 149.214 134.765C149.425 134.848 149.682 134.842 149.918 134.843C150.717 134.843 151.157 135.064 150.954 136.025C150.792 136.801 151.156 137.546 151.513 138.255Z" fill="#F3F5FA"/>
<path d="M161.376 142.597C160.715 142.816 160.107 143.388 159.394 142.82C158.834 142.372 158.422 140.664 158.604 140.06C158.699 139.747 158.914 139.745 159.137 139.693C159.633 139.577 160.135 139.478 160.623 139.338C161.835 138.992 162.036 139.116 162.099 140.393C162.121 140.85 162.223 141.345 161.835 141.792C161.333 141.316 161.31 140.709 161.257 140.114C161.235 139.862 161.164 139.583 160.897 139.568C160.505 139.545 160.667 139.903 160.649 140.101C160.549 141.148 160.722 141.738 161.376 142.597Z" fill="#F3F5FA"/>
<path d="M161.798 131.685C161.24 131.272 161.197 130.642 161.093 130.047C161.043 129.757 161.136 129.304 160.733 129.319C160.184 129.339 160.485 129.845 160.457 130.126C160.382 130.818 160.613 131.458 160.938 132.064C159.799 132.547 159.486 132.435 159.05 131.373C158.948 131.12 158.865 130.859 158.802 130.593C158.472 129.219 159.506 128.145 160.93 128.38C161.157 128.418 161.26 128.603 161.382 128.765C161.976 129.558 162.136 130.653 161.798 131.685Z" fill="#F3F5FA"/>
<path d="M155.125 135.423L155.316 135.087C155.38 135.066 155.446 135.05 155.512 135.039C156.116 134.972 156.801 134.699 157.302 134.897C157.906 135.135 157.394 135.971 157.665 136.494C157.878 136.907 158.011 137.359 158.18 137.791C158.15 137.815 158.13 137.846 158.105 137.852C155.942 138.338 155.643 138.132 155.276 135.901C155.237 135.738 155.187 135.579 155.125 135.423Z" fill="#F3F5FA"/>
<path d="M151.721 125.391C152.103 125.607 153.086 124.912 152.815 126.022C152.688 126.542 153.661 127.543 152.32 127.614C150.961 127.687 150.476 127.24 150.454 126.02C150.43 124.928 151.269 125.598 151.721 125.391Z" fill="#F3F5FA"/>
<path d="M149.96 127.397C147.814 127.61 147.615 127.011 147.347 125.654C147.265 125.256 147.368 124.87 147.954 125.092C148.079 125.146 148.213 125.174 148.349 125.175C149.3 125.143 149.872 125.468 149.768 126.546C149.744 126.801 149.88 127.066 149.96 127.397Z" fill="#F3F5FA"/>
<path d="M159.841 134.657C159.862 135.33 159.794 136.005 160.019 136.667C160.098 136.896 160.509 137.229 160.019 137.422C159.655 137.564 159.235 137.661 158.921 137.228C158.492 136.635 158.162 135.976 158.212 135.26C158.286 134.203 159.233 134.605 159.832 134.434C159.857 134.449 159.876 134.471 159.888 134.498C159.899 134.524 159.901 134.554 159.895 134.582C159.877 134.631 159.859 134.657 159.841 134.657Z" fill="#F3F5FA"/>
<path d="M166.875 134.512C166.17 134.347 165.802 133.589 165.864 133.199C165.963 132.596 166.876 132.398 167.378 132.402C167.935 132.402 168.411 133.274 168.368 133.724C168.312 134.373 167.441 134.302 166.875 134.512Z" fill="#F3F5FA"/>
<path d="M159.841 134.656C159.841 134.581 159.833 134.505 159.83 134.43C160.351 134.214 160.972 133.65 161.418 134.227C161.951 134.915 161.902 135.837 161.583 136.661C161.433 137.049 161.116 137.015 160.899 136.666C160.607 136.196 160.513 135.661 160.472 135.12C160.443 134.696 160.306 134.464 159.841 134.656Z" fill="#F3F5FA"/>
<path d="M165.892 131.954C164.94 132.061 164.921 131.338 164.894 130.895C164.847 130.115 165.785 130.069 166.133 130.053C166.692 130.029 166.876 130.879 166.914 131.328C166.962 131.943 166.222 131.848 165.892 131.954Z" fill="#F3F5FA"/>
<path d="M165.734 126.752C165.779 127.395 165.739 127.975 165.937 128.524C166.154 129.127 165.719 129.34 165.301 129.453C164.687 129.618 164.919 129.019 164.848 128.792C164.397 127.332 164.416 127.325 165.734 126.752Z" fill="#F3F5FA"/>
<path d="M172.539 131.447C171.783 130.933 171.17 130.538 171.376 129.547C171.82 130.136 172.678 130.363 172.539 131.447Z" fill="#F3F5FA"/>
<path d="M170.005 128.432C170.704 128.737 170.891 129.216 170.831 129.836C169.969 129.519 169.969 129.519 170.005 128.432Z" fill="#F3F5FA"/>
<path d="M173.003 131.115C173.456 131.604 174.167 131.798 174.083 132.705C173.489 132.297 172.861 132.042 173.003 131.115Z" fill="#F3F5FA"/>
<path d="M174.603 132.621C175.099 133.061 175.768 133.216 175.846 134.135C175.249 133.689 174.513 133.593 174.603 132.621Z" fill="#F3F5FA"/>
<path d="M171.522 131.125C172.009 131.576 172.608 131.786 172.639 132.63C172.002 132.272 171.517 131.965 171.522 131.125Z" fill="#F3F5FA"/>
<path d="M172.491 129.776C171.887 129.446 171.308 129.08 171.148 128.348C171.714 128.706 172.226 129.119 172.491 129.776Z" fill="#F3F5FA"/>
<path d="M173.99 133.628C173.62 133.395 173.042 133.34 173.137 132.596C173.567 132.893 173.932 133.12 173.99 133.628Z" fill="#F3F5FA"/>
<path d="M169.914 127.119C170.314 127.454 170.782 127.605 170.632 128.332C170.27 127.966 169.75 127.869 169.914 127.119Z" fill="#F3F5FA"/>
<path d="M173.954 131.013C173.404 130.795 172.865 130.566 172.76 129.691L173.954 131.013Z" fill="#F3F5FA"/>
<path d="M44.7153 43.6108L48.7814 40.8706C48.731 40.7929 48.6815 40.7153 48.6319 40.6376C47.5991 41.1589 46.7776 42.1246 45.5334 42.1957C45.2123 42.2122 44.8845 42.3361 44.5212 42.17C45.4913 41.1068 46.7297 40.6541 48.0614 40.4947C48.0482 40.0098 47.628 40.2939 47.5562 40.0362C48.073 39.6545 48.5816 39.258 49.2544 39.1597C49.5318 39.1192 49.8926 39.0771 49.4113 38.7103C49.2098 38.5574 49.4939 38.517 49.5649 38.4839C50.5903 38.0155 51.6454 37.6388 52.7732 37.5025C53.5162 37.4133 53.5988 37.7503 53.3313 38.3336C52.599 39.9552 51.4068 41.2175 50.1246 42.4005C46.724 45.5398 42.6694 47.4737 38.2764 48.774C37.8966 48.8872 37.4805 48.9293 37.1643 49.2308C37.208 49.2928 37.2386 49.3738 37.2691 49.3738C38.4563 49.3671 39.2002 49.8901 39.689 51.021C39.9705 51.6728 40.6376 52.1569 41.0925 52.6732C39.6634 53.3077 38.2854 53.0318 37.2312 51.805C36.0984 50.4832 36.0117 49.3341 36.967 47.7909C37.2708 47.3002 37.6828 46.8748 37.9767 46.3791C38.8964 44.8243 40.5278 44.9797 41.9643 44.712C42.6182 44.5897 41.8595 45.0846 42.2566 45.263C43.6246 43.9578 45.7407 44.4476 47.5628 43.3555C46.501 43.1721 45.7407 43.7132 44.7153 43.6108Z" fill="#F3F5FA"/>
<path d="M48.775 49.2824C46.8563 51.1709 45.39 50.9735 43.7148 48.5984C44.5933 48.1606 45.4676 47.7302 46.337 47.2898C46.5566 47.1783 46.6589 47.0627 46.8323 47.4253C47.239 48.2555 47.9276 48.9138 48.775 49.2824Z" fill="#F3F5FA"/>
<path d="M45.158 51.3824C43.0783 52.5389 41.4742 52.1606 40.2044 50.2258C39.8741 49.7211 39.8122 49.3386 40.6172 49.3708C40.7529 49.3646 40.886 49.3312 41.0085 49.2725C42.1503 48.819 43.094 48.7966 43.7611 50.1159C44.031 50.6347 44.68 50.9619 45.158 51.3824Z" fill="#F3F5FA"/>
<path d="M47.166 46.8996C48.3219 45.5778 49.5537 45.0061 50.9844 46.5097C51.2073 46.7435 51.5723 46.8401 51.9933 47.0681C51.1413 47.596 50.6517 48.6146 49.5124 48.4643C48.5134 48.3313 47.9883 47.3928 47.166 46.8996Z" fill="#F3F5FA"/>
<path d="M54.0713 45.0359C53.5545 45.4696 53.3398 46.1586 52.7437 46.0463C51.8554 45.881 51.0215 45.4729 50.2669 44.9409C50.0671 44.7997 50.1497 44.6551 50.2719 44.5279C50.4618 44.3362 50.7004 44.1842 50.8613 43.9727C51.3493 43.3308 51.7844 43.2185 52.3004 43.9653C52.6785 44.5122 53.2837 44.7732 54.0713 45.0359Z" fill="#F3F5FA"/>
<path d="M52.1719 42.7212C52.6491 42.161 52.9859 41.4192 53.5052 41.2556C53.9907 41.1036 54.439 41.8876 54.8724 42.2718C55.1383 42.508 56.0365 42.2916 55.6427 43.0979C55.2869 43.8273 54.728 44.1173 53.8933 43.8298C53.2278 43.6034 52.8125 43.026 52.1719 42.7212Z" fill="#F3F5FA"/>
<path d="M45.3588 42.6935C44.2227 43.5717 43.1296 44.2119 41.7344 44.1805C42.6954 43.1504 43.7596 42.4358 45.3588 42.6935Z" fill="#F3F5FA"/>
<path d="M40.1309 44.4142C40.8615 43.7533 41.47 42.942 42.5383 42.8008C41.7466 43.365 41.2306 44.3126 40.1309 44.4142Z" fill="#F3F5FA"/>
<path d="M45.1056 41.0195C44.3733 41.5416 43.7847 42.3182 42.7832 42.3694C43.4866 41.7977 44.1562 41.1641 45.1056 41.0195Z" fill="#F3F5FA"/>
<path d="M47.3416 39.5898C47.0113 39.9963 46.5985 40.2557 45.7969 40.4597C46.3872 39.8922 46.8611 39.7377 47.3416 39.5898Z" fill="#F3F5FA"/>
<path d="M116.719 130.607C118.505 130.147 120.186 129.745 121.85 129.276C123.22 128.89 124.574 128.438 125.823 127.732C125.981 127.643 126.186 127.432 126.349 127.664C126.489 127.863 126.487 128.156 126.281 128.317C126.019 128.521 125.724 128.719 125.41 128.812C123.273 129.458 121.134 130.094 118.984 130.691C118.271 130.891 117.522 130.986 116.719 130.607Z" fill="#F3F5FA"/>
<path d="M90.1552 94.0134C90.1221 88.8287 92.414 85.3177 96.2729 82.8278C100.299 80.2264 105.66 81.9926 107.812 86.4503C108.494 87.8663 108.715 89.4549 109.317 90.8717C110.15 92.8288 110.118 94.5438 109.204 96.462C108.478 97.9862 108.023 99.6343 107.058 101.065C105.407 103.521 103.26 104.765 100.18 104.535C95.7123 104.204 91.7345 101.138 90.5358 96.828C90.2418 95.7722 90.1329 94.6933 90.1552 94.0134Z" fill="#F3F5FA"/>
<path d="M103.931 90.4655C104.95 90.1103 105.701 90.4845 106.28 91.2545C107.849 93.3454 106.615 97.1067 104.118 97.8774C102.528 98.3673 101.156 97.8774 100.198 96.4846C98.4069 93.8782 100.037 89.7625 103.053 89.2619C103.47 89.1925 103.915 89.1289 104.198 89.4717C104.48 89.8146 103.836 89.9864 103.931 90.4655Z" fill="#25253D"/>
<path d="M95.7676 93.8401C95.8708 90.3018 99.1352 87.0106 102.507 86.885C102.745 86.8649 102.984 86.8751 103.219 86.9156C103.55 86.9908 103.931 87.0726 103.949 87.5063C103.967 87.94 103.561 87.9044 103.289 87.9722C101.454 88.4199 99.8799 89.1973 98.7761 90.8636C97.3725 92.9867 97.6871 97.4832 101.217 98.4589C101.527 98.5415 102.133 98.5588 102.035 99.033C101.924 99.5741 101.34 99.5973 100.856 99.5741C98.8215 99.4799 96.3892 97.2081 95.9418 94.9842C95.8526 94.5522 95.8072 94.1102 95.7676 93.8401Z" fill="#25253D"/>
<path d="M104.856 92.1367C105.491 92.8802 105.527 93.7295 105.307 94.6151C105.16 95.2099 104.867 95.1933 104.494 94.7604C103.901 94.0682 104.029 93.0735 104.856 92.1367Z" fill="#F3F5FA"/>
</svg>
