<svg width="233" height="35" viewBox="0 0 233 35" fill="none" xmlns="http://www.w3.org/2000/svg">
<path d="M15.2803 27.5646C17.3896 27.5646 19.1488 28.1148 20.5578 29.2237C21.75 30.1658 22.5504 31.3914 22.9589 32.9171C23.084 33.3673 22.8256 33.8425 22.3753 33.9593L19.0404 34.8597C18.5985 34.9764 18.1733 34.7096 18.0233 34.2761C17.8482 33.7675 17.523 33.3423 17.0561 32.9921C16.3641 32.4752 15.472 32.2084 14.3882 32.2084H6.9013C4.96705 32.2084 3.40797 31.6999 2.2074 30.6744C0.69001 29.3738 0.131411 27.5729 0.548276 25.2551C0.548276 25.2134 0.564951 25.1634 0.581626 25.1217C0.981816 23.7627 1.63213 22.6956 2.53255 21.9369C2.89106 21.6367 2.94942 21.1031 2.64094 20.7613C1.10688 19.0605 0.339844 17.0012 0.339844 14.5917C0.339844 11.8821 1.30697 9.61434 3.24123 7.79681C5.17548 5.97928 7.57662 5.06218 10.453 5.06218C11.9287 5.06218 13.321 5.32897 14.6216 5.85422C15.0468 6.02097 15.5054 5.8042 15.6888 5.38733C16.0223 4.60362 16.5476 3.96165 17.2646 3.46141C18.215 2.79443 19.3822 2.46094 20.7579 2.46094H21.675C22.1336 2.46094 22.5087 2.83612 22.5087 3.29467V6.07099C22.5087 6.52954 22.1336 6.90472 21.675 6.90472H21.008C20.341 6.90472 19.7824 7.07147 19.3322 7.4133C19.0154 7.65508 18.7903 7.95522 18.6736 8.30539C18.5819 8.56384 18.6402 8.85565 18.807 9.08076C19.9992 10.6899 20.5995 12.5324 20.5995 14.6001C20.5995 17.3013 19.624 19.5524 17.6814 21.3783C15.7388 23.1958 13.3294 24.1129 10.4697 24.1129C9.15237 24.1129 7.9518 23.9295 6.85128 23.5627C6.55113 23.4626 6.21764 23.5293 5.9842 23.7544C5.37558 24.338 5.15047 25.0967 5.30054 26.0305C5.31721 26.1389 5.3589 26.2556 5.41726 26.3556C5.90916 27.1727 6.70954 27.5729 7.8184 27.5729H15.3053L15.2803 27.5646ZM10.4447 9.58933C8.96062 9.58933 7.71836 10.0646 6.72622 11.015C5.73408 11.9655 5.23384 13.1577 5.23384 14.5917C5.23384 16.0257 5.73408 17.193 6.72622 18.1434C7.71836 19.0939 8.96062 19.5691 10.4447 19.5691C11.9287 19.5691 13.1459 19.0939 14.1381 18.1267C15.1219 17.1679 15.6138 15.984 15.6138 14.5834C15.6138 13.1827 15.1219 11.9571 14.1381 11.0067C13.1543 10.0562 11.9204 9.58099 10.4447 9.58099V9.58933Z" fill="#FF355E"/>
<path d="M44.8591 16.1679C44.8591 16.5348 44.8425 16.8933 44.8175 17.2518C44.7841 17.677 44.4089 18.0021 43.9837 18.0021H28.7015C28.1095 18.0021 27.6843 18.6108 27.9261 19.1527C28.368 20.1615 29.0433 21.0036 29.9437 21.6789C31.1693 22.596 32.645 23.0545 34.3625 23.0545C35.6881 23.0545 36.9304 22.7794 38.0726 22.2208C38.9397 21.7956 39.665 21.2954 40.2403 20.7118C40.5488 20.4033 41.0407 20.3783 41.3658 20.6617L43.2584 22.2875C43.6252 22.6043 43.6419 23.1546 43.3167 23.5048C42.3246 24.5719 41.124 25.4307 39.715 26.0893C38.0309 26.873 36.1967 27.2649 34.2374 27.2649C30.8775 27.2649 28.0762 26.1977 25.8501 24.055C23.624 21.9123 22.5068 19.2527 22.5068 16.0679C22.5068 14.0086 22.9987 12.1327 23.9742 10.4485C24.9497 8.76441 26.292 7.43878 28.0095 6.47165C29.7269 5.51286 31.6278 5.0293 33.7122 5.0293C36.897 5.0293 39.5483 6.08813 41.6743 8.21415C43.792 10.3318 44.8591 12.9914 44.8591 16.1929V16.1679ZM33.6788 9.21462C32.1781 9.21462 30.8608 9.66484 29.7436 10.5736C28.9266 11.2406 28.3096 12.0576 27.8844 13.0331C27.651 13.575 28.0762 14.1753 28.6598 14.1753H38.7312C39.3148 14.1753 39.74 13.5834 39.5149 13.0414C39.1064 12.066 38.4811 11.2406 37.6557 10.5736C36.5218 9.66484 35.1962 9.21462 33.6788 9.21462Z" fill="#FF355E"/>
<path d="M58.3512 9.73797H54.0242C53.5656 9.73797 53.1905 10.1131 53.1905 10.5717V19.7844C53.1905 20.7599 53.4572 21.4936 53.9908 21.9938C54.5244 22.4857 55.2915 22.7358 56.2753 22.7358C56.8589 22.7358 57.4592 22.6358 58.0761 22.444C58.6264 22.2689 59.185 22.6525 59.185 23.2277V25.8373C59.185 26.1625 59.0016 26.4709 58.7014 26.596C57.6759 27.0295 56.5421 27.2463 55.3081 27.2463C53.0737 27.2463 51.3813 26.6544 50.2474 25.4788C49.1052 24.3032 48.5382 22.6525 48.5382 20.5348V10.5717C48.5382 10.1131 48.1631 9.73797 47.7045 9.73797H45.7703C45.3117 9.73797 44.9365 9.36279 44.9365 8.90424V6.34469C44.9365 5.88614 45.3117 5.51096 45.7703 5.51096H47.7045C48.1631 5.51096 48.5382 5.13578 48.5382 4.67723V0.83373C48.5382 0.375179 48.9134 0 49.372 0H52.3567C52.8153 0 53.1905 0.375179 53.1905 0.83373V4.67723C53.1905 5.13578 53.5656 5.51096 54.0242 5.51096H58.3512C58.8098 5.51096 59.185 5.88614 59.185 6.34469V8.90424C59.185 9.36279 58.8098 9.73797 58.3512 9.73797Z" fill="#FF355E"/>
<path d="M189.065 28.1703C191.133 28.1703 192.834 28.6872 194.168 29.7294C195.293 30.6048 196.019 31.7554 196.344 33.181C196.444 33.6313 196.185 34.0815 195.735 34.1982L193.609 34.7485C193.167 34.8652 192.692 34.6317 192.559 34.1982C192.375 33.5812 192.008 33.0643 191.45 32.6391C190.666 32.0472 189.657 31.7554 188.415 31.7554H180.395C178.585 31.7554 177.126 31.2801 176.009 30.3213C174.892 29.3626 174.333 28.1203 174.333 26.5946C174.333 25.5691 174.575 24.602 175.05 23.7099C175.367 23.1096 175.767 22.6093 176.243 22.2091C176.609 21.9007 176.684 21.3754 176.368 21.0169C175.726 20.2999 175.209 19.4912 174.817 18.5991C174.292 17.4152 174.033 16.1479 174.033 14.7889C174.033 12.096 174.984 9.84493 176.876 8.04407C178.769 6.24321 181.137 5.34278 183.971 5.34278C185.572 5.34278 187.064 5.66794 188.457 6.31825C188.899 6.52668 189.391 6.2849 189.566 5.83468C189.849 5.10934 190.316 4.50071 190.95 4.01715C191.842 3.33349 192.942 3 194.26 3H195.093C195.552 3 195.927 3.37518 195.927 3.83373V5.58456C195.927 6.04312 195.552 6.41829 195.093 6.41829H194.468C193.676 6.41829 193.034 6.63506 192.542 7.07694C192.125 7.44378 191.875 7.91901 191.808 8.49428C191.783 8.70272 191.858 8.90281 191.992 9.06956C193.276 10.6953 193.909 12.6046 193.909 14.7973C193.909 17.4819 192.959 19.7246 191.058 21.5338C189.157 23.343 186.798 24.2518 183.971 24.2518C182.454 24.2518 181.07 23.985 179.828 23.4431C179.519 23.3097 179.161 23.3514 178.911 23.5848C178.694 23.7932 178.502 24.035 178.352 24.3018C178.11 24.7353 177.985 25.1939 177.985 25.6691C177.985 26.4362 178.269 27.0448 178.835 27.5033C179.402 27.9619 180.144 28.187 181.062 28.187H189.04L189.065 28.1703ZM183.98 8.83611C182.212 8.83611 180.753 9.40305 179.586 10.5369C178.419 11.6708 177.835 13.0798 177.835 14.7806C177.835 16.4814 178.419 17.9071 179.594 19.041C180.77 20.1748 182.229 20.7418 183.98 20.7418C185.73 20.7418 187.189 20.1748 188.365 19.041C189.541 17.9071 190.124 16.4898 190.124 14.7806C190.124 13.0715 189.541 11.6708 188.365 10.5369C187.189 9.40305 185.73 8.83611 183.98 8.83611Z" fill="#25253D"/>
<path d="M90.11 5.67383C92.5195 5.67383 94.4454 6.39084 95.8878 7.83319C97.3301 9.27554 98.0471 11.2015 98.0471 13.6109V26.3587C98.0471 26.7922 97.697 27.1424 97.2634 27.1424H95.3042C94.8706 27.1424 94.5205 26.7922 94.5205 26.3587V14.5947C94.5205 12.9189 94.0202 11.585 93.0281 10.5845C92.0276 9.58402 90.702 9.09212 89.0428 9.09212C87.3837 9.09212 85.9497 9.6007 84.9075 10.6178C83.8654 11.635 83.3401 12.9856 83.3401 14.6781V26.367C83.3401 26.8006 82.99 27.1507 82.5564 27.1507H80.5971C80.1636 27.1507 79.8134 26.8006 79.8134 26.367V14.6031C79.8134 12.9273 79.3132 11.5933 78.3211 10.5928C77.3206 9.59236 75.995 9.10046 74.3358 9.10046C72.6767 9.10046 71.2427 9.60904 70.2005 10.6262C69.1584 11.6433 68.6331 12.994 68.6331 14.6865V26.3754C68.6331 26.8089 68.283 27.1591 67.8494 27.1591H65.8901C65.4566 27.1591 65.1064 26.8089 65.1064 26.3754V6.96611C65.1064 6.53257 65.4566 6.1824 65.8901 6.1824H67.8494C68.283 6.1824 68.6331 6.53257 68.6331 6.96611C68.6331 7.66644 69.4335 7.99994 69.9588 7.54972C71.4178 6.29913 73.2603 5.67383 75.5031 5.67383C77.1372 5.67383 78.5629 6.03233 79.7801 6.75768C80.6472 7.27459 81.3642 7.94158 81.9311 8.75029C82.2396 9.20051 82.8732 9.22552 83.2151 8.80032C83.8987 7.94991 84.7158 7.25792 85.6746 6.741C86.9835 6.03233 88.4676 5.67383 90.1434 5.67383H90.11Z" fill="#25253D"/>
<path d="M119.649 6.17654H121.516C121.975 6.17654 122.35 6.55172 122.35 7.01027V26.3111C122.35 26.7697 121.975 27.1449 121.516 27.1449H119.649C119.19 27.1449 118.815 26.7697 118.815 26.3111V25.6358C118.815 24.8938 117.94 24.5353 117.398 25.0439C116.789 25.6191 116.105 26.1027 115.347 26.5112C113.938 27.2699 112.37 27.6451 110.661 27.6451C108.694 27.6451 106.909 27.1699 105.3 26.2111C103.691 25.2523 102.441 23.935 101.532 22.2509C100.631 20.5667 100.173 18.7075 100.173 16.6565C100.173 14.6056 100.623 12.7463 101.532 11.0622C102.441 9.37807 103.691 8.06077 105.3 7.10198C106.909 6.14319 108.694 5.66797 110.661 5.66797C112.379 5.66797 113.938 6.04315 115.347 6.80184C116.105 7.21037 116.789 7.69393 117.398 8.26921C117.94 8.77778 118.815 8.41928 118.815 7.67726V7.00194C118.815 6.54339 119.19 6.16821 119.649 6.16821V6.17654ZM111.32 24.2351C113.463 24.2351 115.247 23.5098 116.672 22.0674C118.098 20.6251 118.815 18.8242 118.815 16.6649C118.815 14.5055 118.106 12.7047 116.672 11.2623C115.247 9.81995 113.463 9.0946 111.32 9.0946C109.177 9.0946 107.368 9.81995 105.934 11.2623C104.5 12.7047 103.783 14.5055 103.783 16.6649C103.783 18.8242 104.5 20.6251 105.934 22.0674C107.368 23.5181 109.16 24.2351 111.32 24.2351Z" fill="#25253D"/>
<path d="M137.182 5.67383C139.742 5.67383 141.801 6.4492 143.36 7.99994C144.919 9.55067 145.703 11.6183 145.703 14.1862V26.3087C145.703 26.7672 145.328 27.1424 144.869 27.1424H143.002C142.543 27.1424 142.168 26.7672 142.168 26.3087V15.2951C142.168 13.4192 141.609 11.9185 140.501 10.7846C139.392 9.65072 137.899 9.08379 136.04 9.08379C134.181 9.08379 132.547 9.65906 131.38 10.8096C130.212 11.9602 129.629 13.4775 129.629 15.3701V26.3087C129.629 26.7672 129.254 27.1424 128.795 27.1424H126.927C126.469 27.1424 126.094 26.7672 126.094 26.3087V7.0078C126.094 6.54925 126.469 6.17407 126.927 6.17407H128.795C129.254 6.17407 129.629 6.54925 129.629 7.0078V7.16621C129.629 7.89989 130.488 8.25006 131.038 7.76649C132.622 6.36582 134.673 5.67383 137.182 5.67383Z" fill="#25253D"/>
<path d="M167.345 6.17654H169.213C169.671 6.17654 170.046 6.55172 170.046 7.01027V26.3111C170.046 26.7697 169.671 27.1449 169.213 27.1449H167.345C166.887 27.1449 166.511 26.7697 166.511 26.3111V25.6358C166.511 24.8938 165.636 24.5353 165.094 25.0439C164.485 25.6191 163.802 26.1027 163.043 26.5112C161.634 27.2699 160.067 27.6451 158.357 27.6451C156.39 27.6451 154.606 27.1699 152.997 26.2111C151.387 25.2523 150.137 23.935 149.228 22.2509C148.328 20.5667 147.869 18.7075 147.869 16.6565C147.869 14.6056 148.319 12.7463 149.228 11.0622C150.137 9.37807 151.387 8.06077 152.997 7.10198C154.606 6.14319 156.39 5.66797 158.357 5.66797C160.075 5.66797 161.634 6.04315 163.043 6.80184C163.802 7.21037 164.485 7.69393 165.094 8.26921C165.636 8.77778 166.511 8.41928 166.511 7.67726V7.00194C166.511 6.54339 166.887 6.16821 167.345 6.16821V6.17654ZM159.016 24.2351C161.159 24.2351 162.943 23.5098 164.369 22.0674C165.794 20.6251 166.511 18.8242 166.511 16.6649C166.511 14.5055 165.803 12.7047 164.369 11.2623C162.943 9.81995 161.159 9.0946 159.016 9.0946C156.873 9.0946 155.064 9.81995 153.63 11.2623C152.196 12.7047 151.479 14.5055 151.479 16.6649C151.479 18.8242 152.196 20.6251 153.63 22.0674C155.064 23.5181 156.857 24.2351 159.016 24.2351Z" fill="#25253D"/>
<path d="M219.029 16.6638C219.029 16.7889 219.013 17.0557 218.988 17.4475C218.954 17.8811 218.596 18.2312 218.154 18.2312H201.955C201.388 18.2312 200.971 18.7898 201.154 19.3234C201.613 20.6741 202.396 21.7996 203.505 22.7C204.906 23.8339 206.615 24.4008 208.633 24.4008C210.134 24.4008 211.509 24.084 212.768 23.4504C213.752 22.9501 214.569 22.3415 215.219 21.6162C215.519 21.2827 216.028 21.2577 216.37 21.5495L217.537 22.55C217.896 22.8584 217.921 23.392 217.612 23.7505C216.645 24.8594 215.453 25.7515 214.052 26.4351C212.368 27.2522 210.525 27.6607 208.516 27.6607C205.231 27.6607 202.505 26.6019 200.32 24.4842C198.136 22.3665 197.044 19.7403 197.044 16.5888C197.044 14.5545 197.519 12.7036 198.478 11.0361C199.437 9.36868 200.754 8.05973 202.447 7.10927C204.131 6.15882 206.007 5.68359 208.066 5.68359C211.051 5.68359 213.644 6.69241 215.836 8.71837C215.861 8.74338 215.886 8.7684 215.911 8.79341C217.979 11.0028 219.013 13.629 219.013 16.6722L219.029 16.6638ZM208.041 8.9268C206.223 8.9268 204.648 9.49374 203.322 10.6276C202.271 11.5197 201.538 12.6202 201.104 13.9292C200.929 14.4628 201.346 15.013 201.905 15.013H214.194C214.752 15.013 215.169 14.4628 214.994 13.9292C214.569 12.6036 213.827 11.4947 212.776 10.6026C211.451 9.4854 209.867 8.9268 208.033 8.9268H208.041Z" fill="#25253D"/>
<path d="M231.97 5.83203H232.67V9.48377H231.97C229.76 9.48377 228.018 10.1341 226.734 11.418C225.458 12.7103 224.816 14.4528 224.816 16.6539V26.3001C224.816 26.7587 224.441 27.1338 223.983 27.1338H222.115C221.656 27.1338 221.281 26.7587 221.281 26.3001V7.00759C221.281 6.54904 221.656 6.17386 222.115 6.17386H223.983C224.441 6.17386 224.816 6.54904 224.816 7.00759V7.42446C224.816 8.1498 225.692 8.54999 226.209 8.04142C227.718 6.56571 229.635 5.83203 231.97 5.83203Z" fill="#25253D"/>
</svg>
