<svg width="304" height="323" viewBox="0 0 304 323" fill="none" xmlns="http://www.w3.org/2000/svg">
<g clip-path="url(#clip0_721_41301)">
<path d="M22.5412 29.988C22.5412 23.1138 28.1138 17.5412 34.988 17.5412H268.772C275.646 17.5412 281.219 23.1138 281.219 29.988V206.95H22.5412V29.988Z" fill="white"/>
<path d="M151.879 104.669C164.432 104.669 174.608 94.4928 174.608 81.9399C174.608 69.3871 164.432 59.2109 151.879 59.2109C139.327 59.2109 129.15 69.3871 129.15 81.9399C129.15 94.4928 139.327 104.669 151.879 104.669Z" fill="#FF355E" stroke="#FF355E" stroke-width="2.16467" stroke-linecap="round" stroke-linejoin="round"/>
<path d="M162.297 76.2578L148.407 89.5164L141.462 82.8871" stroke="white" stroke-width="4" stroke-linecap="round" stroke-linejoin="round"/>
<rect x="86.9404" y="120.904" width="129.88" height="25.976" rx="8.65867" fill="#F1F1F1"/>
<rect x="106.422" y="164.197" width="91.9984" height="8.65867" rx="4.32934" fill="#F1F1F1"/>
<path d="M22.5412 29.988C22.5412 23.1138 28.1138 17.5412 34.988 17.5412H268.772C275.646 17.5412 281.219 23.1138 281.219 29.988V206.95H22.5412V29.988Z" stroke="#E9E9EC" stroke-width="1.08233"/>
<path d="M22.5412 206.949H281.219V545.179C281.219 552.053 275.646 557.626 268.772 557.626H34.988C28.1138 557.626 22.5412 552.053 22.5412 545.179V206.949Z" fill="white"/>
<rect x="47.9766" y="241.043" width="91.9984" height="8.65867" rx="4.32934" fill="#F1F1F1"/>
<rect x="47.9766" y="310.312" width="91.9984" height="8.65867" rx="4.32934" fill="#F1F1F1"/>
<circle cx="69.6233" cy="271.349" r="4.32934" fill="#F1F1F1"/>
<circle cx="52.3059" cy="271.349" r="4.32934" fill="#F1F1F1"/>
<circle cx="86.9397" cy="271.349" r="4.32934" fill="#F1F1F1"/>
<circle cx="104.257" cy="271.349" r="4.32934" fill="#F1F1F1"/>
<path d="M22.5412 206.949H281.219V545.179C281.219 552.053 275.646 557.626 268.772 557.626H34.988C28.1138 557.626 22.5412 552.053 22.5412 545.179V206.949Z" stroke="#E9E9EC" stroke-width="1.08233"/>
</g>
<path fill-rule="evenodd" clip-rule="evenodd" d="M274.704 3.30213C273.86 3.64065 273.958 5.26624 274.874 6.29569C275.645 7.16105 279.599 8.44 282.627 8.84365C290.935 9.90927 294.736 13.2799 293.003 17.9903C290.491 24.9067 289.034 29.8789 288.83 32.3959C288.582 35.3089 288.579 35.0884 287.831 34.1353C287.104 33.2193 285.395 31.2873 284.42 30.2422C283.612 29.3982 282.171 28.1028 281.559 29.0992C280.554 30.743 278.237 33.0701 276.331 34.5664C272.004 37.9546 265.601 37.2738 260.577 34.9554C258.455 33.9791 258.601 33.2027 259.135 31.5584C261.027 25.6676 265.702 9.85954 267.306 6.68273C268.112 5.0797 268.6 4.89686 270.019 4.86929C272.503 4.84495 271.221 3.30968 268.413 2.90239C266.448 2.62685 265.178 3.03901 263.838 5.34584C261.771 8.96309 259.991 16.0755 255.408 30.3714C254.323 33.7186 255.999 35.4222 258.788 36.4831C260.438 37.1134 262.997 37.8619 267.312 39.0808C272.68 40.5819 275.349 41.391 277.234 41.6138C279.36 41.87 280.463 41.3816 283.323 40.423C292.369 37.3273 291.951 37.717 293.8 30.9364C298.029 15.3854 296.93 10.8258 288.203 8.04834C285.66 7.24134 283.251 6.2823 282.385 5.76806C280.108 4.43647 275.547 2.96361 274.704 3.30213ZM277.685 13.0077C275.502 12.6109 274.348 13.995 276.028 14.9786C277.411 15.7881 284.878 17.883 287.436 18.2861C289.004 18.5182 288.68 17.2709 287.592 16.4149C285.99 15.1388 282.352 13.8504 277.685 13.0077ZM272.399 17.989C267.304 16.8746 268.252 18.6026 270.358 19.6374C274.629 21.7227 286.565 25.0464 286.879 23.876C287.31 22.2666 281.763 20.0277 272.399 17.989ZM269.802 27.7992C271.895 28.2973 276.144 29.0595 276.968 29.0293C278.394 28.9725 276.956 27.0819 274.76 26.1485C271.806 24.8863 270.549 24.4243 269.802 24.2868C265.885 23.4567 266.735 27.0716 269.802 27.7992ZM287.797 36.1334C287.375 36.3027 283.101 38.7953 278.608 39.4104C276.914 39.6464 276.147 39.347 277.487 38.3261C278.661 37.104 283.006 31.7762 283.679 31.9565C284.051 32.0877 287.797 36.1334 287.797 36.1334Z" fill="black"/>
<g filter="url(#filter0_d_721_41301)">
<rect x="3" y="184" width="298" height="59.3363" rx="5.27434" fill="white"/>
<rect x="3.32965" y="184.33" width="297.341" height="58.677" rx="4.94469" stroke="#E9E9EC" stroke-width="0.659292"/>
</g>
<rect x="18.1641" y="201.143" width="26.3717" height="26.3717" rx="13.1858" fill="#D1FADF"/>
<g clip-path="url(#clip1_721_41301)">
<path d="M36.8446 213.822V214.327C36.844 215.512 36.4603 216.665 35.751 217.614C35.0416 218.563 34.0445 219.257 32.9083 219.593C31.7722 219.929 30.5579 219.888 29.4465 219.478C28.3352 219.067 27.3864 218.308 26.7415 217.315C26.0967 216.321 25.7904 215.145 25.8684 213.963C25.9463 212.78 26.4043 211.655 27.1741 210.755C27.9438 209.854 28.9841 209.226 30.1398 208.965C31.2954 208.704 32.5045 208.824 33.5866 209.306M36.8446 209.932L31.3505 215.432L29.7023 213.783" stroke="#039855" stroke-width="1.09882" stroke-linecap="round" stroke-linejoin="round"/>
</g>
<rect x="18.1641" y="201.143" width="26.3717" height="26.3717" rx="13.1858" stroke="#ECFDF3" stroke-width="4.39528"/>
<path d="M61.809 209.839C61.809 210.022 61.7421 210.177 61.6085 210.303C61.4749 210.423 61.3202 210.482 61.1444 210.482C60.9475 210.482 60.7892 210.423 60.6697 210.303C60.5501 210.177 60.4904 210.022 60.4904 209.839V203.742C60.4904 203.559 60.5537 203.408 60.6802 203.288C60.8068 203.162 60.9686 203.098 61.1655 203.098C61.3343 203.098 61.4819 203.162 61.6085 203.288C61.7421 203.408 61.809 203.559 61.809 203.742V209.839ZM66.3068 204.733C66.8272 204.733 67.221 204.842 67.4883 205.06C67.7625 205.278 67.9489 205.57 68.0473 205.936C68.1528 206.295 68.2056 206.695 68.2056 207.138V209.839C68.2056 210.022 68.1458 210.177 68.0262 210.303C67.9067 210.423 67.7555 210.482 67.5726 210.482C67.3898 210.482 67.2386 210.423 67.1191 210.303C66.9995 210.177 66.9397 210.022 66.9397 209.839V207.138C66.9397 206.906 66.9081 206.699 66.8448 206.516C66.7885 206.326 66.683 206.175 66.5283 206.063C66.3736 205.95 66.1521 205.894 65.8638 205.894C65.5825 205.894 65.3434 205.95 65.1465 206.063C64.9566 206.175 64.8089 206.326 64.7034 206.516C64.605 206.699 64.5557 206.906 64.5557 207.138V209.839C64.5557 210.022 64.496 210.177 64.3764 210.303C64.2568 210.423 64.1057 210.482 63.9228 210.482C63.74 210.482 63.5888 210.423 63.4692 210.303C63.3497 210.177 63.2899 210.022 63.2899 209.839V205.482C63.2899 205.3 63.3497 205.148 63.4692 205.029C63.5888 204.902 63.74 204.839 63.9228 204.839C64.1057 204.839 64.2568 204.902 64.3764 205.029C64.496 205.148 64.5557 205.3 64.5557 205.482V205.936L64.3975 205.904C64.4608 205.785 64.5522 205.658 64.6718 205.525C64.7913 205.384 64.932 205.254 65.0937 205.134C65.2555 205.015 65.4383 204.92 65.6422 204.849C65.8462 204.772 66.0677 204.733 66.3068 204.733ZM69.7754 204.839C69.909 204.839 70.0321 204.874 70.1446 204.944C70.2571 205.008 70.3415 205.106 70.3978 205.24L71.9485 208.784L71.7164 208.89L73.2987 205.25C73.4182 204.969 73.6046 204.835 73.8578 204.849C74.0336 204.849 74.1742 204.906 74.2797 205.018C74.3922 205.124 74.4485 205.257 74.4485 205.419C74.4485 205.468 74.4379 205.521 74.4168 205.577C74.4028 205.634 74.3852 205.686 74.3641 205.736L72.3915 210.082C72.279 210.335 72.0996 210.468 71.8535 210.482C71.7199 210.504 71.5898 210.479 71.4632 210.409C71.3437 210.338 71.2522 210.229 71.1889 210.082L69.2269 205.736C69.2128 205.7 69.1952 205.655 69.1742 205.598C69.1601 205.542 69.1531 205.475 69.1531 205.398C69.1531 205.271 69.2093 205.148 69.3218 205.029C69.4344 204.902 69.5855 204.839 69.7754 204.839ZM80.8688 207.666C80.8688 208.243 80.7387 208.752 80.4785 209.195C80.2254 209.631 79.8808 209.973 79.4448 210.219C79.0158 210.465 78.5341 210.588 77.9996 210.588C77.4651 210.588 76.9799 210.465 76.5439 210.219C76.1149 209.973 75.7703 209.631 75.5101 209.195C75.2569 208.752 75.1304 208.243 75.1304 207.666C75.1304 207.089 75.2569 206.583 75.5101 206.147C75.7703 205.704 76.1149 205.359 76.5439 205.113C76.9799 204.86 77.4651 204.733 77.9996 204.733C78.5341 204.733 79.0158 204.86 79.4448 205.113C79.8808 205.359 80.2254 205.704 80.4785 206.147C80.7387 206.583 80.8688 207.089 80.8688 207.666ZM79.603 207.666C79.603 207.307 79.5292 206.998 79.3815 206.738C79.2408 206.47 79.0474 206.263 78.8013 206.115C78.5622 205.968 78.295 205.894 77.9996 205.894C77.7042 205.894 77.4335 205.968 77.1874 206.115C76.9482 206.263 76.7549 206.47 76.6072 206.738C76.4665 206.998 76.3962 207.307 76.3962 207.666C76.3962 208.018 76.4665 208.327 76.6072 208.594C76.7549 208.854 76.9482 209.058 77.1874 209.206C77.4335 209.354 77.7042 209.428 77.9996 209.428C78.295 209.428 78.5622 209.354 78.8013 209.206C79.0474 209.058 79.2408 208.854 79.3815 208.594C79.5292 208.327 79.603 208.018 79.603 207.666ZM83.1687 209.839C83.1687 210.022 83.1089 210.177 82.9894 210.303C82.8698 210.423 82.7186 210.482 82.5358 210.482C82.3529 210.482 82.2017 210.423 82.0822 210.303C81.9626 210.177 81.9029 210.022 81.9029 209.839V205.482C81.9029 205.3 81.9626 205.148 82.0822 205.029C82.2017 204.902 82.3529 204.839 82.5358 204.839C82.7186 204.839 82.8698 204.902 82.9894 205.029C83.1089 205.148 83.1687 205.3 83.1687 205.482V209.839ZM82.5252 204.153C82.2861 204.153 82.1173 204.115 82.0189 204.037C81.9204 203.96 81.8712 203.823 81.8712 203.626V203.425C81.8712 203.221 81.924 203.084 82.0294 203.014C82.142 202.937 82.3107 202.898 82.5358 202.898C82.7819 202.898 82.9542 202.937 83.0527 203.014C83.1511 203.091 83.2003 203.228 83.2003 203.425V203.626C83.2003 203.83 83.1476 203.97 83.0421 204.048C82.9366 204.118 82.7643 204.153 82.5252 204.153ZM86.9802 204.733C87.3811 204.733 87.7292 204.776 88.0245 204.86C88.3269 204.944 88.559 205.064 88.7208 205.219C88.8895 205.366 88.9739 205.546 88.9739 205.757C88.9739 205.897 88.9317 206.031 88.8473 206.157C88.763 206.277 88.6399 206.337 88.4781 206.337C88.3656 206.337 88.2707 206.323 88.1933 206.295C88.123 206.259 88.0597 206.217 88.0035 206.168C87.9472 206.119 87.8804 206.073 87.803 206.031C87.7327 205.989 87.6237 205.957 87.476 205.936C87.3354 205.908 87.2299 205.894 87.1596 205.894C86.8009 205.894 86.495 205.971 86.2418 206.126C85.9957 206.281 85.8058 206.492 85.6722 206.759C85.5386 207.019 85.4718 207.321 85.4718 207.666C85.4718 208.003 85.5386 208.306 85.6722 208.573C85.8128 208.833 86.0027 209.041 86.2418 209.195C86.488 209.35 86.7693 209.428 87.0857 209.428C87.2615 209.428 87.4127 209.417 87.5393 209.396C87.6659 209.375 87.7714 209.343 87.8558 209.301C87.9542 209.245 88.0421 209.185 88.1195 209.122C88.1968 209.058 88.3129 209.027 88.4676 209.027C88.6504 209.027 88.7911 209.086 88.8895 209.206C88.988 209.319 89.0372 209.459 89.0372 209.628C89.0372 209.804 88.9388 209.966 88.7419 210.113C88.5449 210.254 88.2847 210.37 87.9613 210.461C87.6448 210.546 87.3002 210.588 86.9275 210.588C86.3719 210.588 85.8902 210.461 85.4823 210.208C85.0744 209.948 84.758 209.596 84.5329 209.153C84.3149 208.71 84.2059 208.214 84.2059 207.666C84.2059 207.089 84.322 206.583 84.554 206.147C84.7931 205.704 85.1201 205.359 85.5351 205.113C85.957 204.86 86.4387 204.733 86.9802 204.733ZM92.6083 210.588C92.0105 210.588 91.4901 210.465 91.0471 210.219C90.6111 209.966 90.2735 209.624 90.0344 209.195C89.8023 208.767 89.6863 208.281 89.6863 207.74C89.6863 207.107 89.8129 206.569 90.066 206.126C90.3262 205.676 90.6638 205.331 91.0787 205.092C91.4936 204.853 91.9332 204.733 92.3973 204.733C92.756 204.733 93.0935 204.807 93.41 204.955C93.7335 205.103 94.0183 205.307 94.2644 205.567C94.5106 205.82 94.7039 206.115 94.8446 206.453C94.9923 206.79 95.0661 207.149 95.0661 207.529C95.0591 207.698 94.9923 207.835 94.8657 207.94C94.7391 208.046 94.5914 208.098 94.4226 208.098H90.3931L90.0766 207.044H93.948L93.7159 207.255V206.97C93.7018 206.766 93.628 206.583 93.4944 206.421C93.3678 206.259 93.206 206.133 93.0091 206.041C92.8192 205.943 92.6153 205.894 92.3973 205.894C92.1863 205.894 91.9894 205.922 91.8066 205.978C91.6237 206.034 91.4655 206.129 91.3319 206.263C91.1983 206.397 91.0928 206.576 91.0154 206.801C90.9381 207.026 90.8994 207.311 90.8994 207.655C90.8994 208.035 90.9767 208.359 91.1315 208.626C91.2932 208.886 91.4971 209.086 91.7433 209.227C91.9965 209.361 92.2637 209.428 92.545 209.428C92.8052 209.428 93.0126 209.406 93.1674 209.364C93.3221 209.322 93.4451 209.273 93.5366 209.217C93.635 209.153 93.7229 209.101 93.8003 209.058C93.9269 208.995 94.0464 208.963 94.1589 208.963C94.3136 208.963 94.4402 209.016 94.5387 209.122C94.6442 209.227 94.6969 209.35 94.6969 209.491C94.6969 209.681 94.5985 209.853 94.4016 210.008C94.2187 210.162 93.962 210.3 93.6315 210.419C93.301 210.532 92.9599 210.588 92.6083 210.588ZM101.639 204.733C102.04 204.733 102.388 204.776 102.683 204.86C102.986 204.944 103.218 205.064 103.38 205.219C103.548 205.366 103.633 205.546 103.633 205.757C103.633 205.897 103.591 206.031 103.506 206.157C103.422 206.277 103.299 206.337 103.137 206.337C103.025 206.337 102.93 206.323 102.852 206.295C102.782 206.259 102.719 206.217 102.662 206.168C102.606 206.119 102.539 206.073 102.462 206.031C102.392 205.989 102.283 205.957 102.135 205.936C101.994 205.908 101.889 205.894 101.819 205.894C101.46 205.894 101.154 205.971 100.901 206.126C100.655 206.281 100.465 206.492 100.331 206.759C100.198 207.019 100.131 207.321 100.131 207.666C100.131 208.003 100.198 208.306 100.331 208.573C100.472 208.833 100.662 209.041 100.901 209.195C101.147 209.35 101.428 209.428 101.745 209.428C101.92 209.428 102.072 209.417 102.198 209.396C102.325 209.375 102.43 209.343 102.515 209.301C102.613 209.245 102.701 209.185 102.778 209.122C102.856 209.058 102.972 209.027 103.127 209.027C103.309 209.027 103.45 209.086 103.548 209.206C103.647 209.319 103.696 209.459 103.696 209.628C103.696 209.804 103.598 209.966 103.401 210.113C103.204 210.254 102.944 210.37 102.62 210.461C102.304 210.546 101.959 210.588 101.586 210.588C101.031 210.588 100.549 210.461 100.141 210.208C99.7334 209.948 99.4169 209.596 99.1919 209.153C98.9739 208.71 98.8649 208.214 98.8649 207.666C98.8649 207.089 98.9809 206.583 99.213 206.147C99.4521 205.704 99.7791 205.359 100.194 205.113C100.616 204.86 101.098 204.733 101.639 204.733ZM105.242 210.482C105.059 210.482 104.908 210.423 104.788 210.303C104.669 210.177 104.609 210.022 104.609 209.839V205.482C104.609 205.3 104.669 205.148 104.788 205.029C104.908 204.902 105.059 204.839 105.242 204.839C105.425 204.839 105.576 204.902 105.695 205.029C105.815 205.148 105.875 205.3 105.875 205.482V206.474L105.801 205.767C105.878 205.598 105.977 205.451 106.096 205.324C106.223 205.191 106.364 205.082 106.518 204.997C106.673 204.906 106.838 204.839 107.014 204.797C107.19 204.754 107.366 204.733 107.541 204.733C107.752 204.733 107.928 204.793 108.069 204.913C108.217 205.032 108.29 205.173 108.29 205.335C108.29 205.567 108.231 205.736 108.111 205.841C107.992 205.939 107.861 205.989 107.721 205.989C107.587 205.989 107.464 205.964 107.352 205.915C107.246 205.866 107.123 205.841 106.982 205.841C106.856 205.841 106.726 205.873 106.592 205.936C106.466 205.992 106.346 206.084 106.233 206.21C106.128 206.337 106.04 206.495 105.97 206.685C105.906 206.868 105.875 207.086 105.875 207.339V209.839C105.875 210.022 105.815 210.177 105.695 210.303C105.576 210.423 105.425 210.482 105.242 210.482ZM111.604 210.588C111.006 210.588 110.486 210.465 110.043 210.219C109.607 209.966 109.269 209.624 109.03 209.195C108.798 208.767 108.682 208.281 108.682 207.74C108.682 207.107 108.809 206.569 109.062 206.126C109.322 205.676 109.66 205.331 110.075 205.092C110.489 204.853 110.929 204.733 111.393 204.733C111.752 204.733 112.089 204.807 112.406 204.955C112.729 205.103 113.014 205.307 113.26 205.567C113.506 205.82 113.7 206.115 113.84 206.453C113.988 206.79 114.062 207.149 114.062 207.529C114.055 207.698 113.988 207.835 113.862 207.94C113.735 208.046 113.587 208.098 113.419 208.098H109.389L109.072 207.044H112.944L112.712 207.255V206.97C112.698 206.766 112.624 206.583 112.49 206.421C112.364 206.259 112.202 206.133 112.005 206.041C111.815 205.943 111.611 205.894 111.393 205.894C111.182 205.894 110.985 205.922 110.802 205.978C110.62 206.034 110.461 206.129 110.328 206.263C110.194 206.397 110.089 206.576 110.011 206.801C109.934 207.026 109.895 207.311 109.895 207.655C109.895 208.035 109.973 208.359 110.127 208.626C110.289 208.886 110.493 209.086 110.739 209.227C110.992 209.361 111.26 209.428 111.541 209.428C111.801 209.428 112.008 209.406 112.163 209.364C112.318 209.322 112.441 209.273 112.532 209.217C112.631 209.153 112.719 209.101 112.796 209.058C112.923 208.995 113.042 208.963 113.155 208.963C113.309 208.963 113.436 209.016 113.535 209.122C113.64 209.227 113.693 209.35 113.693 209.491C113.693 209.681 113.594 209.853 113.397 210.008C113.215 210.162 112.958 210.3 112.627 210.419C112.297 210.532 111.956 210.588 111.604 210.588ZM119.829 204.733C120.012 204.733 120.163 204.793 120.283 204.913C120.403 205.032 120.462 205.187 120.462 205.377V209.839C120.462 210.022 120.403 210.177 120.283 210.303C120.163 210.423 120.012 210.482 119.829 210.482C119.647 210.482 119.495 210.423 119.376 210.303C119.256 210.177 119.197 210.022 119.197 209.839V209.322L119.429 209.417C119.429 209.508 119.379 209.621 119.281 209.755C119.182 209.881 119.049 210.008 118.88 210.134C118.711 210.261 118.511 210.37 118.279 210.461C118.054 210.546 117.808 210.588 117.54 210.588C117.055 210.588 116.616 210.465 116.222 210.219C115.828 209.966 115.515 209.621 115.283 209.185C115.058 208.742 114.945 208.236 114.945 207.666C114.945 207.089 115.058 206.583 115.283 206.147C115.515 205.704 115.824 205.359 116.211 205.113C116.598 204.86 117.027 204.733 117.498 204.733C117.801 204.733 118.078 204.779 118.332 204.871C118.585 204.962 118.803 205.078 118.986 205.219C119.175 205.359 119.32 205.503 119.418 205.651C119.524 205.792 119.576 205.911 119.576 206.01L119.197 206.147V205.377C119.197 205.194 119.256 205.043 119.376 204.923C119.495 204.797 119.647 204.733 119.829 204.733ZM117.699 209.428C118.008 209.428 118.279 209.35 118.511 209.195C118.743 209.041 118.922 208.83 119.049 208.563C119.182 208.295 119.249 207.996 119.249 207.666C119.249 207.328 119.182 207.026 119.049 206.759C118.922 206.492 118.743 206.281 118.511 206.126C118.279 205.971 118.008 205.894 117.699 205.894C117.396 205.894 117.129 205.971 116.897 206.126C116.665 206.281 116.482 206.492 116.348 206.759C116.222 207.026 116.159 207.328 116.159 207.666C116.159 207.996 116.222 208.295 116.348 208.563C116.482 208.83 116.665 209.041 116.897 209.195C117.129 209.35 117.396 209.428 117.699 209.428ZM121.896 204.944H124.396C124.565 204.944 124.706 205.001 124.818 205.113C124.931 205.226 124.987 205.366 124.987 205.535C124.987 205.697 124.931 205.834 124.818 205.946C124.706 206.052 124.565 206.105 124.396 206.105H121.896C121.727 206.105 121.587 206.048 121.474 205.936C121.362 205.823 121.306 205.683 121.306 205.514C121.306 205.352 121.362 205.219 121.474 205.113C121.587 205.001 121.727 204.944 121.896 204.944ZM123.025 203.626C123.208 203.626 123.355 203.689 123.468 203.816C123.588 203.935 123.647 204.086 123.647 204.269V208.963C123.647 209.062 123.665 209.143 123.7 209.206C123.742 209.269 123.795 209.315 123.858 209.343C123.929 209.371 124.002 209.385 124.08 209.385C124.164 209.385 124.242 209.371 124.312 209.343C124.382 209.308 124.463 209.29 124.555 209.29C124.653 209.29 124.741 209.336 124.818 209.428C124.903 209.519 124.945 209.646 124.945 209.807C124.945 210.004 124.836 210.166 124.618 210.293C124.407 210.419 124.178 210.482 123.932 210.482C123.784 210.482 123.619 210.472 123.436 210.451C123.261 210.423 123.092 210.363 122.93 210.271C122.775 210.173 122.645 210.025 122.54 209.828C122.434 209.631 122.381 209.361 122.381 209.016V204.269C122.381 204.086 122.441 203.935 122.561 203.816C122.687 203.689 122.842 203.626 123.025 203.626ZM128.756 210.588C128.158 210.588 127.638 210.465 127.195 210.219C126.759 209.966 126.421 209.624 126.182 209.195C125.95 208.767 125.834 208.281 125.834 207.74C125.834 207.107 125.961 206.569 126.214 206.126C126.474 205.676 126.812 205.331 127.226 205.092C127.641 204.853 128.081 204.733 128.545 204.733C128.904 204.733 129.241 204.807 129.558 204.955C129.881 205.103 130.166 205.307 130.412 205.567C130.658 205.82 130.852 206.115 130.992 206.453C131.14 206.79 131.214 207.149 131.214 207.529C131.207 207.698 131.14 207.835 131.013 207.94C130.887 208.046 130.739 208.098 130.57 208.098H126.541L126.224 207.044H130.096L129.864 207.255V206.97C129.85 206.766 129.776 206.583 129.642 206.421C129.516 206.259 129.354 206.133 129.157 206.041C128.967 205.943 128.763 205.894 128.545 205.894C128.334 205.894 128.137 205.922 127.954 205.978C127.771 206.034 127.613 206.129 127.48 206.263C127.346 206.397 127.241 206.576 127.163 206.801C127.086 207.026 127.047 207.311 127.047 207.655C127.047 208.035 127.124 208.359 127.279 208.626C127.441 208.886 127.645 209.086 127.891 209.227C128.144 209.361 128.411 209.428 128.693 209.428C128.953 209.428 129.16 209.406 129.315 209.364C129.47 209.322 129.593 209.273 129.684 209.217C129.783 209.153 129.871 209.101 129.948 209.058C130.075 208.995 130.194 208.963 130.307 208.963C130.461 208.963 130.588 209.016 130.686 209.122C130.792 209.227 130.845 209.35 130.845 209.491C130.845 209.681 130.746 209.853 130.549 210.008C130.366 210.162 130.11 210.3 129.779 210.419C129.449 210.532 129.108 210.588 128.756 210.588ZM136.94 202.676C137.123 202.676 137.274 202.736 137.394 202.856C137.513 202.975 137.573 203.13 137.573 203.32V209.839C137.573 210.022 137.513 210.177 137.394 210.303C137.274 210.423 137.123 210.482 136.94 210.482C136.757 210.482 136.606 210.423 136.487 210.303C136.367 210.177 136.307 210.022 136.307 209.839V209.322L136.539 209.417C136.539 209.508 136.49 209.621 136.392 209.755C136.293 209.881 136.16 210.008 135.991 210.134C135.822 210.261 135.622 210.37 135.389 210.461C135.164 210.546 134.918 210.588 134.651 210.588C134.166 210.588 133.726 210.465 133.332 210.219C132.939 209.966 132.626 209.621 132.394 209.185C132.169 208.742 132.056 208.236 132.056 207.666C132.056 207.089 132.169 206.583 132.394 206.147C132.626 205.704 132.935 205.359 133.322 205.113C133.709 204.86 134.138 204.733 134.609 204.733C134.911 204.733 135.189 204.779 135.442 204.871C135.695 204.962 135.913 205.078 136.096 205.219C136.286 205.359 136.43 205.503 136.529 205.651C136.634 205.792 136.687 205.911 136.687 206.01L136.307 206.147V203.32C136.307 203.137 136.367 202.986 136.487 202.866C136.606 202.74 136.757 202.676 136.94 202.676ZM134.809 209.428C135.119 209.428 135.389 209.35 135.622 209.195C135.854 209.041 136.033 208.83 136.16 208.563C136.293 208.295 136.36 207.996 136.36 207.666C136.36 207.328 136.293 207.026 136.16 206.759C136.033 206.492 135.854 206.281 135.622 206.126C135.389 205.971 135.119 205.894 134.809 205.894C134.507 205.894 134.24 205.971 134.008 206.126C133.776 206.281 133.593 206.492 133.459 206.759C133.332 207.026 133.269 207.328 133.269 207.666C133.269 207.996 133.332 208.295 133.459 208.563C133.593 208.83 133.776 209.041 134.008 209.195C134.24 209.35 134.507 209.428 134.809 209.428Z" fill="#141414"/>
<path d="M62.5144 224.986C62.4036 224.986 62.3113 224.949 62.2375 224.876C62.1637 224.802 62.1267 224.713 62.1267 224.608V218.904H62.9113V224.608C62.9113 224.713 62.8744 224.802 62.8005 224.876C62.7267 224.949 62.6313 224.986 62.5144 224.986ZM60.373 219.227C60.2684 219.227 60.1792 219.196 60.1053 219.134C60.0377 219.067 60.0038 218.981 60.0038 218.876C60.0038 218.771 60.0377 218.688 60.1053 218.627C60.1792 218.559 60.2684 218.525 60.373 218.525H64.665C64.7696 218.525 64.8588 218.559 64.9327 218.627C65.0065 218.688 65.0434 218.771 65.0434 218.876C65.0434 218.987 65.0065 219.073 64.9327 219.134C64.8588 219.196 64.7696 219.227 64.665 219.227H60.373ZM68.3324 220.141C68.7385 220.141 69.0585 220.23 69.2923 220.408C69.5323 220.58 69.7015 220.814 69.8 221.11C69.9046 221.399 69.9569 221.722 69.9569 222.079V224.608C69.9569 224.713 69.92 224.802 69.8461 224.876C69.7784 224.949 69.6923 224.986 69.5877 224.986C69.4831 224.986 69.3938 224.949 69.32 224.876C69.2523 224.802 69.2185 224.713 69.2185 224.608V222.079C69.2185 221.845 69.1846 221.636 69.1169 221.451C69.0493 221.26 68.9354 221.11 68.7754 220.999C68.6216 220.882 68.4093 220.824 68.1385 220.824C67.8863 220.824 67.6555 220.882 67.4463 220.999C67.2371 221.11 67.0709 221.26 66.9479 221.451C66.8248 221.636 66.7633 221.845 66.7633 222.079V224.608C66.7633 224.713 66.7263 224.802 66.6525 224.876C66.5848 224.949 66.4987 224.986 66.3941 224.986C66.2895 224.986 66.2002 224.949 66.1264 224.876C66.0587 224.802 66.0249 224.713 66.0249 224.608V218.525C66.0249 218.421 66.0587 218.335 66.1264 218.267C66.2002 218.193 66.2895 218.156 66.3941 218.156C66.5048 218.156 66.594 218.193 66.6617 218.267C66.7294 218.335 66.7633 218.421 66.7633 218.525V221.285L66.5787 221.488C66.6094 221.328 66.6771 221.168 66.7817 221.008C66.8863 220.842 67.0186 220.694 67.1786 220.565C67.3386 220.436 67.5171 220.334 67.714 220.261C67.9109 220.181 68.117 220.141 68.3324 220.141ZM72.0357 224.608C72.0357 224.713 71.9987 224.802 71.9249 224.876C71.8572 224.949 71.7711 224.986 71.6665 224.986C71.5557 224.986 71.4665 224.949 71.3988 224.876C71.3311 224.802 71.2973 224.713 71.2973 224.608V220.51C71.2973 220.405 71.3311 220.319 71.3988 220.251C71.4726 220.177 71.5619 220.141 71.6665 220.141C71.7711 220.141 71.8572 220.177 71.9249 220.251C71.9987 220.319 72.0357 220.405 72.0357 220.51V224.608ZM71.6665 219.522C71.5126 219.522 71.3988 219.491 71.3249 219.43C71.2511 219.368 71.2142 219.273 71.2142 219.144V219.014C71.2142 218.885 71.2542 218.79 71.3342 218.728C71.4142 218.667 71.528 218.636 71.6757 218.636C71.8234 218.636 71.9341 218.667 72.008 218.728C72.0818 218.79 72.1187 218.885 72.1187 219.014V219.144C72.1187 219.273 72.0787 219.368 71.9987 219.43C71.9249 219.491 71.8141 219.522 71.6665 219.522ZM73.0944 224.229C73.039 224.149 73.0144 224.066 73.0205 223.98C73.0267 223.888 73.079 223.808 73.1775 223.74C73.239 223.697 73.3098 223.679 73.3897 223.685C73.4759 223.691 73.5528 223.731 73.6205 223.805C73.7928 224.008 73.9897 224.171 74.2112 224.294C74.4327 224.411 74.7035 224.469 75.0235 224.469C75.1712 224.463 75.3188 224.439 75.4665 224.396C75.6142 224.353 75.7373 224.279 75.8357 224.174C75.9403 224.063 75.9926 223.919 75.9926 223.74C75.9926 223.568 75.9403 223.433 75.8357 223.334C75.7311 223.23 75.5957 223.146 75.4296 223.085C75.2635 223.017 75.0819 222.959 74.885 222.91C74.682 222.854 74.482 222.793 74.2851 222.725C74.0882 222.651 73.9097 222.562 73.7497 222.457C73.5959 222.347 73.4697 222.211 73.3713 222.051C73.279 221.885 73.2328 221.685 73.2328 221.451C73.2328 221.174 73.3067 220.934 73.4544 220.731C73.6082 220.528 73.8113 220.371 74.0635 220.261C74.322 220.15 74.602 220.094 74.9035 220.094C75.0758 220.094 75.2542 220.116 75.4388 220.159C75.6296 220.196 75.8142 220.264 75.9926 220.362C76.1711 220.454 76.328 220.584 76.4634 220.75C76.5187 220.811 76.5495 220.888 76.5557 220.98C76.5618 221.073 76.5218 221.156 76.4357 221.23C76.368 221.279 76.2911 221.3 76.2049 221.294C76.1249 221.288 76.0572 221.257 76.0019 221.202C75.8726 221.048 75.7096 220.931 75.5127 220.851C75.3219 220.765 75.1096 220.722 74.8758 220.722C74.7281 220.722 74.5835 220.744 74.442 220.787C74.3004 220.83 74.1805 220.904 74.082 221.008C73.9897 221.107 73.9436 221.245 73.9436 221.424C73.9497 221.59 74.0051 221.725 74.1097 221.83C74.2143 221.934 74.3558 222.02 74.5343 222.088C74.7127 222.15 74.9096 222.211 75.125 222.273C75.3219 222.322 75.5096 222.38 75.688 222.448C75.8726 222.51 76.0388 222.593 76.1865 222.697C76.3341 222.802 76.4511 222.937 76.5372 223.103C76.6234 223.263 76.6664 223.466 76.6664 223.713C76.6664 223.996 76.5864 224.242 76.4264 224.451C76.2665 224.654 76.0542 224.811 75.7896 224.922C75.5311 225.026 75.2511 225.079 74.9496 225.079C74.6112 225.079 74.2758 225.014 73.9436 224.885C73.6174 224.756 73.3344 224.537 73.0944 224.229ZM80.9863 224.608C80.9863 224.713 80.9494 224.802 80.8756 224.876C80.8079 224.949 80.7217 224.986 80.6171 224.986C80.5064 224.986 80.4171 224.949 80.3494 224.876C80.2818 224.802 80.2479 224.713 80.2479 224.608V220.51C80.2479 220.405 80.2818 220.319 80.3494 220.251C80.4233 220.177 80.5125 220.141 80.6171 220.141C80.7217 220.141 80.8079 220.177 80.8756 220.251C80.9494 220.319 80.9863 220.405 80.9863 220.51V224.608ZM80.6171 219.522C80.4633 219.522 80.3494 219.491 80.2756 219.43C80.2018 219.368 80.1648 219.273 80.1648 219.144V219.014C80.1648 218.885 80.2048 218.79 80.2848 218.728C80.3648 218.667 80.4787 218.636 80.6264 218.636C80.774 218.636 80.8848 218.667 80.9586 218.728C81.0325 218.79 81.0694 218.885 81.0694 219.014V219.144C81.0694 219.273 81.0294 219.368 80.9494 219.43C80.8756 219.491 80.7648 219.522 80.6171 219.522ZM84.6849 220.094C85.1033 220.094 85.4325 220.181 85.6725 220.353C85.9125 220.525 86.0817 220.756 86.1801 221.045C86.2847 221.334 86.337 221.657 86.337 222.014V224.608C86.337 224.713 86.3001 224.802 86.2263 224.876C86.1586 224.949 86.0724 224.986 85.9678 224.986C85.8632 224.986 85.774 224.949 85.7002 224.876C85.6325 224.802 85.5986 224.713 85.5986 224.608V222.033C85.5986 221.799 85.5617 221.59 85.4879 221.405C85.4202 221.214 85.3033 221.064 85.1371 220.953C84.9771 220.836 84.7556 220.777 84.4726 220.777C84.2141 220.777 83.9772 220.836 83.7618 220.953C83.5465 221.064 83.3742 221.214 83.245 221.405C83.1157 221.59 83.0511 221.799 83.0511 222.033V224.608C83.0511 224.713 83.0142 224.802 82.9404 224.876C82.8727 224.949 82.7865 224.986 82.6819 224.986C82.5773 224.986 82.4881 224.949 82.4142 224.876C82.3466 224.802 82.3127 224.713 82.3127 224.608V220.584C82.3127 220.479 82.3466 220.393 82.4142 220.325C82.4881 220.251 82.5773 220.214 82.6819 220.214C82.7927 220.214 82.8819 220.251 82.9496 220.325C83.0173 220.393 83.0511 220.479 83.0511 220.584V221.239L82.8665 221.442C82.8973 221.282 82.9681 221.122 83.0788 220.962C83.1896 220.796 83.328 220.648 83.4942 220.519C83.6603 220.39 83.8449 220.288 84.048 220.214C84.251 220.134 84.4633 220.094 84.6849 220.094ZM87.6579 220.131C87.7317 220.131 87.8025 220.153 87.8702 220.196C87.9379 220.233 87.9871 220.288 88.0178 220.362L89.55 223.962L89.4024 224.036L90.9622 220.371C91.0299 220.205 91.1438 220.125 91.3038 220.131C91.3961 220.131 91.4761 220.162 91.5437 220.224C91.6114 220.285 91.6453 220.362 91.6453 220.454C91.6453 220.491 91.6391 220.528 91.6268 220.565C91.6207 220.596 91.6114 220.624 91.5991 220.648L89.8177 224.746C89.75 224.9 89.6423 224.98 89.4947 224.986C89.4147 224.992 89.3378 224.977 89.2639 224.94C89.1962 224.897 89.147 224.832 89.1162 224.746L87.3348 220.657C87.3225 220.633 87.3102 220.605 87.2979 220.574C87.2917 220.544 87.2887 220.507 87.2887 220.464C87.2887 220.384 87.3194 220.31 87.381 220.242C87.4487 220.168 87.541 220.131 87.6579 220.131ZM97.1294 222.587C97.1294 223.066 97.0217 223.494 96.8063 223.869C96.5971 224.245 96.311 224.54 95.9479 224.756C95.591 224.971 95.188 225.079 94.7388 225.079C94.2896 225.079 93.8835 224.971 93.5204 224.756C93.1574 224.54 92.8682 224.245 92.6528 223.869C92.4436 223.494 92.339 223.066 92.339 222.587C92.339 222.107 92.4436 221.679 92.6528 221.304C92.8682 220.928 93.1574 220.633 93.5204 220.417C93.8835 220.202 94.2896 220.094 94.7388 220.094C95.188 220.094 95.591 220.202 95.9479 220.417C96.311 220.633 96.5971 220.928 96.8063 221.304C97.0217 221.679 97.1294 222.107 97.1294 222.587ZM96.391 222.587C96.391 222.23 96.3171 221.916 96.1695 221.645C96.0279 221.374 95.831 221.162 95.5787 221.008C95.3326 220.854 95.0526 220.777 94.7388 220.777C94.425 220.777 94.1419 220.854 93.8896 221.008C93.6435 221.162 93.4466 221.374 93.2989 221.645C93.1512 221.916 93.0774 222.23 93.0774 222.587C93.0774 222.937 93.1512 223.248 93.2989 223.519C93.4466 223.789 93.6435 224.005 93.8896 224.165C94.1419 224.319 94.425 224.396 94.7388 224.396C95.0526 224.396 95.3326 224.319 95.5787 224.165C95.831 224.005 96.0279 223.789 96.1695 223.519C96.3171 223.248 96.391 222.937 96.391 222.587ZM98.9507 224.608C98.9507 224.713 98.9138 224.802 98.84 224.876C98.7723 224.949 98.6862 224.986 98.5815 224.986C98.4708 224.986 98.3816 224.949 98.3139 224.876C98.2462 224.802 98.2123 224.713 98.2123 224.608V220.51C98.2123 220.405 98.2462 220.319 98.3139 220.251C98.3877 220.177 98.4769 220.141 98.5815 220.141C98.6862 220.141 98.7723 220.177 98.84 220.251C98.9138 220.319 98.9507 220.405 98.9507 220.51V224.608ZM98.5815 219.522C98.4277 219.522 98.3139 219.491 98.24 219.43C98.1662 219.368 98.1293 219.273 98.1293 219.144V219.014C98.1293 218.885 98.1693 218.79 98.2493 218.728C98.3293 218.667 98.4431 218.636 98.5908 218.636C98.7385 218.636 98.8492 218.667 98.9231 218.728C98.9969 218.79 99.0338 218.885 99.0338 219.014V219.144C99.0338 219.273 98.9938 219.368 98.9138 219.43C98.84 219.491 98.7292 219.522 98.5815 219.522ZM102.4 220.094C102.714 220.094 102.997 220.128 103.249 220.196C103.502 220.264 103.702 220.356 103.849 220.473C103.997 220.59 104.071 220.722 104.071 220.87C104.071 220.95 104.043 221.027 103.988 221.1C103.932 221.174 103.858 221.211 103.766 221.211C103.68 221.211 103.609 221.196 103.554 221.165C103.505 221.134 103.455 221.094 103.406 221.045C103.363 220.996 103.302 220.953 103.222 220.916C103.148 220.873 103.04 220.839 102.898 220.814C102.757 220.79 102.615 220.777 102.474 220.777C102.135 220.777 101.837 220.857 101.579 221.017C101.326 221.177 101.126 221.393 100.979 221.663C100.831 221.934 100.757 222.242 100.757 222.587C100.757 222.931 100.828 223.239 100.969 223.51C101.111 223.78 101.308 223.996 101.56 224.156C101.812 224.316 102.105 224.396 102.437 224.396C102.652 224.396 102.825 224.377 102.954 224.34C103.083 224.303 103.191 224.26 103.277 224.211C103.388 224.149 103.471 224.088 103.526 224.026C103.588 223.965 103.668 223.934 103.766 223.934C103.871 223.934 103.951 223.968 104.006 224.036C104.068 224.103 104.098 224.186 104.098 224.285C104.098 224.396 104.021 224.513 103.868 224.636C103.714 224.759 103.505 224.863 103.24 224.949C102.982 225.036 102.686 225.079 102.354 225.079C101.886 225.079 101.477 224.971 101.126 224.756C100.776 224.534 100.502 224.236 100.305 223.86C100.114 223.479 100.019 223.054 100.019 222.587C100.019 222.119 100.117 221.697 100.314 221.322C100.517 220.947 100.797 220.648 101.154 220.427C101.511 220.205 101.926 220.094 102.4 220.094ZM107.269 225.079C106.777 225.079 106.346 224.974 105.977 224.765C105.608 224.556 105.319 224.269 105.11 223.906C104.907 223.537 104.805 223.113 104.805 222.633C104.805 222.097 104.91 221.642 105.119 221.267C105.334 220.885 105.611 220.596 105.95 220.399C106.294 220.196 106.657 220.094 107.039 220.094C107.322 220.094 107.596 220.147 107.86 220.251C108.125 220.356 108.359 220.51 108.562 220.713C108.765 220.91 108.928 221.15 109.051 221.433C109.174 221.71 109.239 222.02 109.245 222.365C109.245 222.463 109.208 222.547 109.134 222.614C109.06 222.682 108.974 222.716 108.875 222.716H105.23L105.063 222.079H108.617L108.469 222.208V222.005C108.445 221.753 108.359 221.537 108.211 221.359C108.069 221.174 107.894 221.033 107.685 220.934C107.482 220.836 107.266 220.787 107.039 220.787C106.854 220.787 106.669 220.82 106.485 220.888C106.306 220.95 106.143 221.054 105.996 221.202C105.854 221.344 105.737 221.528 105.645 221.756C105.559 221.983 105.516 222.257 105.516 222.577C105.516 222.934 105.586 223.248 105.728 223.519C105.876 223.789 106.079 224.005 106.337 224.165C106.596 224.319 106.897 224.396 107.242 224.396C107.457 224.396 107.645 224.368 107.805 224.313C107.965 224.257 108.103 224.189 108.22 224.109C108.337 224.023 108.436 223.937 108.515 223.851C108.595 223.796 108.672 223.768 108.746 223.768C108.839 223.768 108.912 223.799 108.968 223.86C109.029 223.922 109.06 223.996 109.06 224.082C109.06 224.186 109.011 224.279 108.912 224.359C108.74 224.549 108.506 224.719 108.211 224.866C107.916 225.008 107.602 225.079 107.269 225.079ZM115.204 220.141C115.61 220.141 115.93 220.23 116.164 220.408C116.404 220.58 116.573 220.814 116.672 221.11C116.776 221.399 116.828 221.722 116.828 222.079V224.608C116.828 224.713 116.791 224.802 116.718 224.876C116.65 224.949 116.564 224.986 116.459 224.986C116.355 224.986 116.265 224.949 116.192 224.876C116.124 224.802 116.09 224.713 116.09 224.608V222.079C116.09 221.845 116.056 221.636 115.988 221.451C115.921 221.26 115.807 221.11 115.647 220.999C115.493 220.882 115.281 220.824 115.01 220.824C114.758 220.824 114.527 220.882 114.318 220.999C114.109 221.11 113.942 221.26 113.819 221.451C113.696 221.636 113.635 221.845 113.635 222.079V224.608C113.635 224.713 113.598 224.802 113.524 224.876C113.456 224.949 113.37 224.986 113.266 224.986C113.161 224.986 113.072 224.949 112.998 224.876C112.93 224.802 112.896 224.713 112.896 224.608V218.525C112.896 218.421 112.93 218.335 112.998 218.267C113.072 218.193 113.161 218.156 113.266 218.156C113.376 218.156 113.466 218.193 113.533 218.267C113.601 218.335 113.635 218.421 113.635 218.525V221.285L113.45 221.488C113.481 221.328 113.549 221.168 113.653 221.008C113.758 220.842 113.89 220.694 114.05 220.565C114.21 220.436 114.389 220.334 114.586 220.261C114.782 220.181 114.989 220.141 115.204 220.141ZM122.129 220.168C122.233 220.168 122.319 220.205 122.387 220.279C122.461 220.347 122.498 220.433 122.498 220.537V224.608C122.498 224.713 122.461 224.802 122.387 224.876C122.319 224.949 122.233 224.986 122.129 224.986C122.018 224.986 121.929 224.949 121.861 224.876C121.793 224.802 121.759 224.713 121.759 224.608V223.731L121.935 223.713C121.935 223.848 121.889 223.996 121.796 224.156C121.704 224.316 121.578 224.466 121.418 224.608C121.258 224.743 121.067 224.857 120.846 224.949C120.63 225.036 120.396 225.079 120.144 225.079C119.726 225.079 119.35 224.971 119.018 224.756C118.686 224.534 118.421 224.236 118.224 223.86C118.033 223.485 117.938 223.057 117.938 222.577C117.938 222.091 118.033 221.663 118.224 221.294C118.421 220.919 118.686 220.627 119.018 220.417C119.35 220.202 119.719 220.094 120.126 220.094C120.39 220.094 120.636 220.137 120.864 220.224C121.092 220.31 121.289 220.427 121.455 220.574C121.627 220.722 121.759 220.885 121.852 221.064C121.95 221.242 121.999 221.42 121.999 221.599L121.759 221.544V220.537C121.759 220.433 121.793 220.347 121.861 220.279C121.929 220.205 122.018 220.168 122.129 220.168ZM120.227 224.396C120.535 224.396 120.806 224.316 121.039 224.156C121.279 223.996 121.464 223.78 121.593 223.51C121.729 223.233 121.796 222.922 121.796 222.577C121.796 222.239 121.729 221.934 121.593 221.663C121.464 221.387 121.279 221.171 121.039 221.017C120.806 220.857 120.535 220.777 120.227 220.777C119.926 220.777 119.655 220.854 119.415 221.008C119.181 221.162 118.996 221.374 118.861 221.645C118.726 221.916 118.658 222.227 118.658 222.577C118.658 222.922 118.723 223.233 118.852 223.51C118.987 223.78 119.172 223.996 119.406 224.156C119.646 224.316 119.919 224.396 120.227 224.396ZM123.598 224.229C123.543 224.149 123.518 224.066 123.525 223.98C123.531 223.888 123.583 223.808 123.682 223.74C123.743 223.697 123.814 223.679 123.894 223.685C123.98 223.691 124.057 223.731 124.125 223.805C124.297 224.008 124.494 224.171 124.715 224.294C124.937 224.411 125.208 224.469 125.528 224.469C125.675 224.463 125.823 224.439 125.971 224.396C126.118 224.353 126.241 224.279 126.34 224.174C126.444 224.063 126.497 223.919 126.497 223.74C126.497 223.568 126.444 223.433 126.34 223.334C126.235 223.23 126.1 223.146 125.934 223.085C125.768 223.017 125.586 222.959 125.389 222.91C125.186 222.854 124.986 222.793 124.789 222.725C124.592 222.651 124.414 222.562 124.254 222.457C124.1 222.347 123.974 222.211 123.875 222.051C123.783 221.885 123.737 221.685 123.737 221.451C123.737 221.174 123.811 220.934 123.958 220.731C124.112 220.528 124.315 220.371 124.568 220.261C124.826 220.15 125.106 220.094 125.408 220.094C125.58 220.094 125.758 220.116 125.943 220.159C126.134 220.196 126.318 220.264 126.497 220.362C126.675 220.454 126.832 220.584 126.967 220.75C127.023 220.811 127.054 220.888 127.06 220.98C127.066 221.073 127.026 221.156 126.94 221.23C126.872 221.279 126.795 221.3 126.709 221.294C126.629 221.288 126.561 221.257 126.506 221.202C126.377 221.048 126.214 220.931 126.017 220.851C125.826 220.765 125.614 220.722 125.38 220.722C125.232 220.722 125.088 220.744 124.946 220.787C124.805 220.83 124.685 220.904 124.586 221.008C124.494 221.107 124.448 221.245 124.448 221.424C124.454 221.59 124.509 221.725 124.614 221.83C124.718 221.934 124.86 222.02 125.038 222.088C125.217 222.15 125.414 222.211 125.629 222.273C125.826 222.322 126.014 222.38 126.192 222.448C126.377 222.51 126.543 222.593 126.691 222.697C126.838 222.802 126.955 222.937 127.041 223.103C127.127 223.263 127.171 223.466 127.171 223.713C127.171 223.996 127.091 224.242 126.931 224.451C126.771 224.654 126.558 224.811 126.294 224.922C126.035 225.026 125.755 225.079 125.454 225.079C125.115 225.079 124.78 225.014 124.448 224.885C124.122 224.756 123.838 224.537 123.598 224.229ZM133.133 220.094C133.552 220.094 133.927 220.202 134.259 220.417C134.592 220.627 134.853 220.916 135.044 221.285C135.241 221.654 135.339 222.082 135.339 222.568C135.339 223.054 135.241 223.485 135.044 223.86C134.853 224.236 134.592 224.534 134.259 224.756C133.933 224.971 133.564 225.079 133.152 225.079C132.924 225.079 132.709 225.045 132.506 224.977C132.309 224.903 132.127 224.808 131.961 224.691C131.801 224.568 131.666 224.436 131.555 224.294C131.444 224.146 131.364 224.002 131.315 223.86L131.518 223.731V224.654C131.518 224.759 131.484 224.848 131.417 224.922C131.349 224.996 131.26 225.032 131.149 225.032C131.044 225.032 130.955 224.999 130.881 224.931C130.814 224.857 130.78 224.765 130.78 224.654V218.534C130.78 218.43 130.814 218.341 130.881 218.267C130.955 218.193 131.044 218.156 131.149 218.156C131.26 218.156 131.349 218.193 131.417 218.267C131.484 218.341 131.518 218.43 131.518 218.534V221.377L131.38 221.304C131.423 221.15 131.497 221.002 131.601 220.86C131.712 220.713 131.844 220.584 131.998 220.473C132.158 220.356 132.333 220.264 132.524 220.196C132.721 220.128 132.924 220.094 133.133 220.094ZM133.05 220.777C132.743 220.777 132.469 220.854 132.229 221.008C131.995 221.162 131.81 221.374 131.675 221.645C131.546 221.916 131.481 222.223 131.481 222.568C131.481 222.913 131.546 223.223 131.675 223.5C131.81 223.777 131.995 223.996 132.229 224.156C132.469 224.316 132.743 224.396 133.05 224.396C133.358 224.396 133.629 224.316 133.863 224.156C134.096 223.996 134.281 223.777 134.416 223.5C134.552 223.223 134.619 222.913 134.619 222.568C134.619 222.223 134.552 221.916 134.416 221.645C134.281 221.374 134.096 221.162 133.863 221.008C133.629 220.854 133.358 220.777 133.05 220.777ZM138.655 225.079C138.163 225.079 137.732 224.974 137.363 224.765C136.994 224.556 136.705 224.269 136.496 223.906C136.292 223.537 136.191 223.113 136.191 222.633C136.191 222.097 136.296 221.642 136.505 221.267C136.72 220.885 136.997 220.596 137.335 220.399C137.68 220.196 138.043 220.094 138.425 220.094C138.708 220.094 138.981 220.147 139.246 220.251C139.511 220.356 139.744 220.51 139.948 220.713C140.151 220.91 140.314 221.15 140.437 221.433C140.56 221.71 140.624 222.02 140.631 222.365C140.631 222.463 140.594 222.547 140.52 222.614C140.446 222.682 140.36 222.716 140.261 222.716H136.615L136.449 222.079H140.003L139.855 222.208V222.005C139.831 221.753 139.744 221.537 139.597 221.359C139.455 221.174 139.28 221.033 139.071 220.934C138.868 220.836 138.652 220.787 138.425 220.787C138.24 220.787 138.055 220.82 137.871 220.888C137.692 220.95 137.529 221.054 137.382 221.202C137.24 221.344 137.123 221.528 137.031 221.756C136.945 221.983 136.902 222.257 136.902 222.577C136.902 222.934 136.972 223.248 137.114 223.519C137.262 223.789 137.465 224.005 137.723 224.165C137.982 224.319 138.283 224.396 138.628 224.396C138.843 224.396 139.031 224.368 139.191 224.313C139.351 224.257 139.489 224.189 139.606 224.109C139.723 224.023 139.821 223.937 139.901 223.851C139.981 223.796 140.058 223.768 140.132 223.768C140.224 223.768 140.298 223.799 140.354 223.86C140.415 223.922 140.446 223.996 140.446 224.082C140.446 224.186 140.397 224.279 140.298 224.359C140.126 224.549 139.892 224.719 139.597 224.866C139.301 225.008 138.988 225.079 138.655 225.079ZM143.946 225.079C143.454 225.079 143.023 224.974 142.654 224.765C142.285 224.556 141.996 224.269 141.787 223.906C141.584 223.537 141.482 223.113 141.482 222.633C141.482 222.097 141.587 221.642 141.796 221.267C142.011 220.885 142.288 220.596 142.627 220.399C142.971 220.196 143.334 220.094 143.716 220.094C143.999 220.094 144.273 220.147 144.537 220.251C144.802 220.356 145.036 220.51 145.239 220.713C145.442 220.91 145.605 221.15 145.728 221.433C145.851 221.71 145.915 222.02 145.922 222.365C145.922 222.463 145.885 222.547 145.811 222.614C145.737 222.682 145.651 222.716 145.552 222.716H141.907L141.74 222.079H145.294L145.146 222.208V222.005C145.122 221.753 145.036 221.537 144.888 221.359C144.746 221.174 144.571 221.033 144.362 220.934C144.159 220.836 143.943 220.787 143.716 220.787C143.531 220.787 143.346 220.82 143.162 220.888C142.983 220.95 142.82 221.054 142.673 221.202C142.531 221.344 142.414 221.528 142.322 221.756C142.236 221.983 142.193 222.257 142.193 222.577C142.193 222.934 142.263 223.248 142.405 223.519C142.553 223.789 142.756 224.005 143.014 224.165C143.273 224.319 143.574 224.396 143.919 224.396C144.134 224.396 144.322 224.368 144.482 224.313C144.642 224.257 144.78 224.189 144.897 224.109C145.014 224.023 145.112 223.937 145.192 223.851C145.272 223.796 145.349 223.768 145.423 223.768C145.516 223.768 145.589 223.799 145.645 223.86C145.706 223.922 145.737 223.996 145.737 224.082C145.737 224.186 145.688 224.279 145.589 224.359C145.417 224.549 145.183 224.719 144.888 224.866C144.593 225.008 144.279 225.079 143.946 225.079ZM149.404 220.094C149.822 220.094 150.151 220.181 150.391 220.353C150.631 220.525 150.8 220.756 150.899 221.045C151.004 221.334 151.056 221.657 151.056 222.014V224.608C151.056 224.713 151.019 224.802 150.945 224.876C150.877 224.949 150.791 224.986 150.687 224.986C150.582 224.986 150.493 224.949 150.419 224.876C150.351 224.802 150.317 224.713 150.317 224.608V222.033C150.317 221.799 150.28 221.59 150.207 221.405C150.139 221.214 150.022 221.064 149.856 220.953C149.696 220.836 149.474 220.777 149.191 220.777C148.933 220.777 148.696 220.836 148.481 220.953C148.265 221.064 148.093 221.214 147.964 221.405C147.835 221.59 147.77 221.799 147.77 222.033V224.608C147.77 224.713 147.733 224.802 147.659 224.876C147.591 224.949 147.505 224.986 147.401 224.986C147.296 224.986 147.207 224.949 147.133 224.876C147.065 224.802 147.031 224.713 147.031 224.608V220.584C147.031 220.479 147.065 220.393 147.133 220.325C147.207 220.251 147.296 220.214 147.401 220.214C147.511 220.214 147.601 220.251 147.668 220.325C147.736 220.393 147.77 220.479 147.77 220.584V221.239L147.585 221.442C147.616 221.282 147.687 221.122 147.798 220.962C147.908 220.796 148.047 220.648 148.213 220.519C148.379 220.39 148.564 220.288 148.767 220.214C148.97 220.134 149.182 220.094 149.404 220.094ZM157.317 220.141C157.736 220.141 158.111 220.245 158.443 220.454C158.776 220.664 159.037 220.953 159.228 221.322C159.425 221.691 159.523 222.116 159.523 222.596C159.523 223.07 159.425 223.494 159.228 223.869C159.037 224.239 158.776 224.531 158.443 224.746C158.117 224.956 157.748 225.06 157.336 225.06C157.108 225.06 156.893 225.026 156.69 224.959C156.493 224.885 156.311 224.792 156.145 224.682C155.985 224.565 155.85 224.436 155.739 224.294C155.628 224.146 155.548 224.002 155.499 223.86L155.702 223.731V226.454C155.702 226.559 155.668 226.648 155.6 226.722C155.533 226.795 155.444 226.832 155.333 226.832C155.228 226.832 155.139 226.795 155.065 226.722C154.997 226.654 154.964 226.565 154.964 226.454V220.556C154.964 220.451 154.997 220.365 155.065 220.297C155.139 220.224 155.228 220.187 155.333 220.187C155.444 220.187 155.533 220.224 155.6 220.297C155.668 220.365 155.702 220.451 155.702 220.556V221.377L155.564 221.304C155.607 221.15 155.68 221.002 155.785 220.86C155.896 220.719 156.028 220.596 156.182 220.491C156.342 220.381 156.517 220.294 156.708 220.233C156.905 220.171 157.108 220.141 157.317 220.141ZM157.234 220.824C156.927 220.824 156.653 220.9 156.413 221.054C156.179 221.208 155.994 221.417 155.859 221.682C155.73 221.947 155.665 222.251 155.665 222.596C155.665 222.934 155.73 223.239 155.859 223.51C155.994 223.78 156.179 223.993 156.413 224.146C156.653 224.3 156.927 224.377 157.234 224.377C157.542 224.377 157.813 224.3 158.046 224.146C158.28 223.993 158.465 223.78 158.6 223.51C158.736 223.239 158.803 222.934 158.803 222.596C158.803 222.251 158.736 221.947 158.6 221.682C158.465 221.417 158.28 221.208 158.046 221.054C157.813 220.9 157.542 220.824 157.234 220.824ZM164.205 220.214C164.316 220.214 164.405 220.251 164.473 220.325C164.541 220.393 164.575 220.479 164.575 220.584V223.103C164.575 223.725 164.399 224.208 164.048 224.553C163.704 224.891 163.221 225.06 162.599 225.06C161.984 225.06 161.501 224.891 161.15 224.553C160.806 224.208 160.633 223.725 160.633 223.103V220.584C160.633 220.479 160.667 220.393 160.735 220.325C160.809 220.251 160.898 220.214 161.002 220.214C161.113 220.214 161.202 220.251 161.27 220.325C161.338 220.393 161.372 220.479 161.372 220.584V223.103C161.372 223.522 161.479 223.839 161.695 224.054C161.91 224.269 162.212 224.377 162.599 224.377C162.999 224.377 163.304 224.269 163.513 224.054C163.728 223.839 163.836 223.522 163.836 223.103V220.584C163.836 220.479 163.87 220.393 163.938 220.325C164.011 220.251 164.101 220.214 164.205 220.214ZM168.296 220.094C168.714 220.094 169.09 220.202 169.422 220.417C169.754 220.627 170.016 220.916 170.207 221.285C170.404 221.654 170.502 222.082 170.502 222.568C170.502 223.054 170.404 223.485 170.207 223.86C170.016 224.236 169.754 224.534 169.422 224.756C169.096 224.971 168.727 225.079 168.314 225.079C168.087 225.079 167.871 225.045 167.668 224.977C167.471 224.903 167.29 224.808 167.124 224.691C166.964 224.568 166.828 224.436 166.718 224.294C166.607 224.146 166.527 224.002 166.478 223.86L166.681 223.731V224.654C166.681 224.759 166.647 224.848 166.579 224.922C166.512 224.996 166.422 225.032 166.312 225.032C166.207 225.032 166.118 224.999 166.044 224.931C165.976 224.857 165.942 224.765 165.942 224.654V218.534C165.942 218.43 165.976 218.341 166.044 218.267C166.118 218.193 166.207 218.156 166.312 218.156C166.422 218.156 166.512 218.193 166.579 218.267C166.647 218.341 166.681 218.43 166.681 218.534V221.377L166.542 221.304C166.585 221.15 166.659 221.002 166.764 220.86C166.875 220.713 167.007 220.584 167.161 220.473C167.321 220.356 167.496 220.264 167.687 220.196C167.884 220.128 168.087 220.094 168.296 220.094ZM168.213 220.777C167.905 220.777 167.631 220.854 167.391 221.008C167.158 221.162 166.973 221.374 166.838 221.645C166.708 221.916 166.644 222.223 166.644 222.568C166.644 222.913 166.708 223.223 166.838 223.5C166.973 223.777 167.158 223.996 167.391 224.156C167.631 224.316 167.905 224.396 168.213 224.396C168.521 224.396 168.791 224.316 169.025 224.156C169.259 223.996 169.444 223.777 169.579 223.5C169.714 223.223 169.782 222.913 169.782 222.568C169.782 222.223 169.714 221.916 169.579 221.645C169.444 221.374 169.259 221.162 169.025 221.008C168.791 220.854 168.521 220.777 168.213 220.777ZM172.424 224.608C172.424 224.713 172.387 224.802 172.314 224.876C172.24 224.949 172.15 224.986 172.046 224.986C171.941 224.986 171.855 224.949 171.787 224.876C171.72 224.802 171.686 224.713 171.686 224.608V218.525C171.686 218.421 171.72 218.335 171.787 218.267C171.861 218.193 171.95 218.156 172.055 218.156C172.166 218.156 172.255 218.193 172.323 218.267C172.39 218.335 172.424 218.421 172.424 218.525V224.608ZM174.567 224.608C174.567 224.713 174.53 224.802 174.456 224.876C174.389 224.949 174.303 224.986 174.198 224.986C174.087 224.986 173.998 224.949 173.93 224.876C173.863 224.802 173.829 224.713 173.829 224.608V220.51C173.829 220.405 173.863 220.319 173.93 220.251C174.004 220.177 174.093 220.141 174.198 220.141C174.303 220.141 174.389 220.177 174.456 220.251C174.53 220.319 174.567 220.405 174.567 220.51V224.608ZM174.198 219.522C174.044 219.522 173.93 219.491 173.856 219.43C173.783 219.368 173.746 219.273 173.746 219.144V219.014C173.746 218.885 173.786 218.79 173.866 218.728C173.946 218.667 174.06 218.636 174.207 218.636C174.355 218.636 174.466 218.667 174.539 218.728C174.613 218.79 174.65 218.885 174.65 219.014V219.144C174.65 219.273 174.61 219.368 174.53 219.43C174.456 219.491 174.346 219.522 174.198 219.522ZM175.626 224.229C175.57 224.149 175.546 224.066 175.552 223.98C175.558 223.888 175.61 223.808 175.709 223.74C175.77 223.697 175.841 223.679 175.921 223.685C176.007 223.691 176.084 223.731 176.152 223.805C176.324 224.008 176.521 224.171 176.743 224.294C176.964 224.411 177.235 224.469 177.555 224.469C177.703 224.463 177.85 224.439 177.998 224.396C178.146 224.353 178.269 224.279 178.367 224.174C178.472 224.063 178.524 223.919 178.524 223.74C178.524 223.568 178.472 223.433 178.367 223.334C178.263 223.23 178.127 223.146 177.961 223.085C177.795 223.017 177.613 222.959 177.417 222.91C177.213 222.854 177.013 222.793 176.817 222.725C176.62 222.651 176.441 222.562 176.281 222.457C176.127 222.347 176.001 222.211 175.903 222.051C175.81 221.885 175.764 221.685 175.764 221.451C175.764 221.174 175.838 220.934 175.986 220.731C176.14 220.528 176.343 220.371 176.595 220.261C176.853 220.15 177.133 220.094 177.435 220.094C177.607 220.094 177.786 220.116 177.97 220.159C178.161 220.196 178.346 220.264 178.524 220.362C178.703 220.454 178.859 220.584 178.995 220.75C179.05 220.811 179.081 220.888 179.087 220.98C179.093 221.073 179.053 221.156 178.967 221.23C178.899 221.279 178.823 221.3 178.736 221.294C178.656 221.288 178.589 221.257 178.533 221.202C178.404 221.048 178.241 220.931 178.044 220.851C177.853 220.765 177.641 220.722 177.407 220.722C177.26 220.722 177.115 220.744 176.973 220.787C176.832 220.83 176.712 220.904 176.613 221.008C176.521 221.107 176.475 221.245 176.475 221.424C176.481 221.59 176.537 221.725 176.641 221.83C176.746 221.934 176.887 222.02 177.066 222.088C177.244 222.15 177.441 222.211 177.656 222.273C177.853 222.322 178.041 222.38 178.22 222.448C178.404 222.51 178.57 222.593 178.718 222.697C178.866 222.802 178.983 222.937 179.069 223.103C179.155 223.263 179.198 223.466 179.198 223.713C179.198 223.996 179.118 224.242 178.958 224.451C178.798 224.654 178.586 224.811 178.321 224.922C178.063 225.026 177.783 225.079 177.481 225.079C177.143 225.079 176.807 225.014 176.475 224.885C176.149 224.756 175.866 224.537 175.626 224.229ZM182.573 220.141C182.979 220.141 183.299 220.23 183.533 220.408C183.773 220.58 183.942 220.814 184.04 221.11C184.145 221.399 184.197 221.722 184.197 222.079V224.608C184.197 224.713 184.16 224.802 184.086 224.876C184.019 224.949 183.933 224.986 183.828 224.986C183.723 224.986 183.634 224.949 183.56 224.876C183.493 224.802 183.459 224.713 183.459 224.608V222.079C183.459 221.845 183.425 221.636 183.357 221.451C183.29 221.26 183.176 221.11 183.016 220.999C182.862 220.882 182.65 220.824 182.379 220.824C182.127 220.824 181.896 220.882 181.687 220.999C181.477 221.11 181.311 221.26 181.188 221.451C181.065 221.636 181.004 221.845 181.004 222.079V224.608C181.004 224.713 180.967 224.802 180.893 224.876C180.825 224.949 180.739 224.986 180.634 224.986C180.53 224.986 180.441 224.949 180.367 224.876C180.299 224.802 180.265 224.713 180.265 224.608V218.525C180.265 218.421 180.299 218.335 180.367 218.267C180.441 218.193 180.53 218.156 180.634 218.156C180.745 218.156 180.834 218.193 180.902 218.267C180.97 218.335 181.004 218.421 181.004 218.525V221.285L180.819 221.488C180.85 221.328 180.917 221.168 181.022 221.008C181.127 220.842 181.259 220.694 181.419 220.565C181.579 220.436 181.757 220.334 181.954 220.261C182.151 220.181 182.357 220.141 182.573 220.141ZM187.771 225.079C187.279 225.079 186.848 224.974 186.479 224.765C186.11 224.556 185.821 224.269 185.611 223.906C185.408 223.537 185.307 223.113 185.307 222.633C185.307 222.097 185.411 221.642 185.621 221.267C185.836 220.885 186.113 220.596 186.451 220.399C186.796 220.196 187.159 220.094 187.541 220.094C187.824 220.094 188.097 220.147 188.362 220.251C188.627 220.356 188.86 220.51 189.064 220.713C189.267 220.91 189.43 221.15 189.553 221.433C189.676 221.71 189.74 222.02 189.747 222.365C189.747 222.463 189.71 222.547 189.636 222.614C189.562 222.682 189.476 222.716 189.377 222.716H185.731L185.565 222.079H189.119L188.971 222.208V222.005C188.947 221.753 188.86 221.537 188.713 221.359C188.571 221.174 188.396 221.033 188.187 220.934C187.984 220.836 187.768 220.787 187.541 220.787C187.356 220.787 187.171 220.82 186.987 220.888C186.808 220.95 186.645 221.054 186.498 221.202C186.356 221.344 186.239 221.528 186.147 221.756C186.061 221.983 186.018 222.257 186.018 222.577C186.018 222.934 186.088 223.248 186.23 223.519C186.378 223.789 186.581 224.005 186.839 224.165C187.098 224.319 187.399 224.396 187.744 224.396C187.959 224.396 188.147 224.368 188.307 224.313C188.467 224.257 188.605 224.189 188.722 224.109C188.839 224.023 188.937 223.937 189.017 223.851C189.097 223.796 189.174 223.768 189.248 223.768C189.34 223.768 189.414 223.799 189.47 223.86C189.531 223.922 189.562 223.996 189.562 224.082C189.562 224.186 189.513 224.279 189.414 224.359C189.242 224.549 189.008 224.719 188.713 224.866C188.417 225.008 188.104 225.079 187.771 225.079ZM194.788 218.156C194.893 218.156 194.979 218.193 195.047 218.267C195.121 218.335 195.158 218.421 195.158 218.525V224.608C195.158 224.713 195.121 224.802 195.047 224.876C194.979 224.949 194.893 224.986 194.788 224.986C194.678 224.986 194.588 224.949 194.521 224.876C194.453 224.802 194.419 224.713 194.419 224.608V223.731L194.595 223.666C194.595 223.814 194.548 223.971 194.456 224.137C194.364 224.297 194.238 224.448 194.078 224.589C193.918 224.731 193.727 224.848 193.505 224.94C193.29 225.032 193.056 225.079 192.804 225.079C192.392 225.079 192.016 224.971 191.678 224.756C191.346 224.54 191.081 224.245 190.884 223.869C190.693 223.494 190.598 223.066 190.598 222.587C190.598 222.1 190.693 221.67 190.884 221.294C191.081 220.919 191.346 220.627 191.678 220.417C192.01 220.202 192.379 220.094 192.785 220.094C193.044 220.094 193.287 220.137 193.515 220.224C193.742 220.31 193.939 220.427 194.105 220.574C194.278 220.722 194.413 220.885 194.512 221.064C194.61 221.242 194.659 221.42 194.659 221.599L194.419 221.544V218.525C194.419 218.421 194.453 218.335 194.521 218.267C194.588 218.193 194.678 218.156 194.788 218.156ZM192.887 224.396C193.195 224.396 193.465 224.319 193.699 224.165C193.939 224.005 194.124 223.789 194.253 223.519C194.388 223.242 194.456 222.931 194.456 222.587C194.456 222.236 194.388 221.925 194.253 221.654C194.124 221.384 193.939 221.171 193.699 221.017C193.465 220.857 193.195 220.777 192.887 220.777C192.586 220.777 192.315 220.857 192.075 221.017C191.841 221.171 191.656 221.384 191.521 221.654C191.386 221.925 191.318 222.236 191.318 222.587C191.318 222.925 191.386 223.233 191.521 223.51C191.656 223.78 191.841 223.996 192.075 224.156C192.315 224.316 192.586 224.396 192.887 224.396ZM196.748 224.977C196.618 224.977 196.517 224.94 196.443 224.866C196.375 224.792 196.341 224.691 196.341 224.562V224.377C196.341 224.242 196.375 224.137 196.443 224.063C196.517 223.989 196.618 223.953 196.748 223.953H196.821C196.957 223.953 197.058 223.989 197.126 224.063C197.194 224.137 197.228 224.242 197.228 224.377V224.562C197.228 224.691 197.194 224.792 197.126 224.866C197.058 224.94 196.957 224.977 196.821 224.977H196.748Z" fill="#667085"/>
<defs>
<filter id="filter0_d_721_41301" x="0.362832" y="184" width="303.274" height="64.6103" filterUnits="userSpaceOnUse" color-interpolation-filters="sRGB">
<feFlood flood-opacity="0" result="BackgroundImageFix"/>
<feColorMatrix in="SourceAlpha" type="matrix" values="0 0 0 0 0 0 0 0 0 0 0 0 0 0 0 0 0 0 127 0" result="hardAlpha"/>
<feOffset dy="2.63717"/>
<feGaussianBlur stdDeviation="1.31858"/>
<feComposite in2="hardAlpha" operator="out"/>
<feColorMatrix type="matrix" values="0 0 0 0 0.913725 0 0 0 0 0.913725 0 0 0 0 0.92549 0 0 0 0.5 0"/>
<feBlend mode="normal" in2="BackgroundImageFix" result="effect1_dropShadow_721_41301"/>
<feBlend mode="normal" in="SourceGraphic" in2="effect1_dropShadow_721_41301" result="shape"/>
</filter>
<clipPath id="clip0_721_41301">
<rect x="22" y="17" width="259.76" height="541.167" fill="white"/>
</clipPath>
<clipPath id="clip1_721_41301">
<rect width="13.1858" height="13.1858" fill="white" transform="translate(24.7578 207.734)"/>
</clipPath>
</defs>
</svg>
