<svg width="28" height="34" viewBox="0 0 28 34" fill="none" xmlns="http://www.w3.org/2000/svg">
<path d="M23.505 7.7938C23.5871 3.52501 20.0647 0.248047 15.2213 0.248047H5.20482C4.97134 0.248122 4.74554 0.331531 4.56808 0.483263C4.39061 0.634994 4.27313 0.845085 4.23677 1.07572L0.222648 26.1561C0.204691 26.2698 0.211577 26.386 0.24283 26.4967C0.274083 26.6074 0.328962 26.7101 0.403688 26.7975C0.478413 26.885 0.571211 26.9553 0.67569 27.0034C0.78017 27.0516 0.89385 27.0766 1.0089 27.0766H6.94379L6.01563 32.8849C5.99766 32.9986 6.00456 33.1149 6.03586 33.2257C6.06716 33.3365 6.12211 33.4391 6.19692 33.5266C6.27173 33.6141 6.36462 33.6844 6.46919 33.7325C6.57376 33.7806 6.68753 33.8055 6.80265 33.8054H11.6368C11.8707 33.8054 12.0786 33.7211 12.2558 33.5699C12.433 33.4181 12.4622 33.2087 12.4982 32.9778L13.9173 24.6281C13.9534 24.398 14.0707 24.0988 14.2487 23.9469C14.4259 23.7951 14.5808 23.7122 14.814 23.7114H17.7734C22.5163 23.7114 26.5411 20.3409 27.2767 15.6518C27.7968 12.3226 26.3693 9.29497 23.505 7.7938Z" fill="#001C64"/>
<path d="M8.22761 17.8264L6.74945 27.2001L5.82128 33.079C5.80331 33.1927 5.81022 33.3089 5.84152 33.4197C5.87281 33.5305 5.92776 33.6332 6.00257 33.7206C6.07738 33.8081 6.17027 33.8784 6.27485 33.9265C6.37942 33.9746 6.49318 33.9995 6.6083 33.9994H11.7247C11.9581 33.9992 12.1837 33.9157 12.361 33.764C12.5383 33.6123 12.6557 33.4023 12.692 33.1718L14.0405 24.6265C14.0769 24.3961 14.1943 24.1862 14.3716 24.0346C14.5489 23.883 14.7745 23.7997 15.0078 23.7996H18.0201C22.763 23.7996 26.7871 20.3401 27.5227 15.6509C28.0443 12.3226 26.369 9.29491 23.5047 7.79297C23.4971 8.14736 23.4664 8.50098 23.4119 8.85154C22.6763 13.5399 18.6514 17.0002 13.9086 17.0002H9.19489C8.96172 17.0003 8.73621 17.0835 8.5589 17.2349C8.3816 17.3863 8.26413 17.5961 8.22761 17.8264Z" fill="#0070E0"/>
<path d="M6.74867 27.2006H0.796144C0.68105 27.2007 0.567306 27.1758 0.462762 27.1277C0.358218 27.0796 0.265365 27.0093 0.190613 26.9218C0.115862 26.8343 0.0609906 26.7316 0.0297888 26.6208C-0.00141307 26.51 -0.00820276 26.3938 0.00988824 26.2801L4.02324 0.826911C4.05962 0.596345 4.17713 0.386345 4.35461 0.23474C4.53209 0.0831353 4.75788 -0.000109701 4.9913 1.085e-07H15.2218C20.0644 1.085e-07 23.5868 3.52473 23.5047 7.79352C22.2997 7.16145 20.8836 6.80015 19.3318 6.80015H10.8027C10.5694 6.80038 10.3439 6.88377 10.1666 7.03533C9.98934 7.18689 9.8719 7.39669 9.8354 7.62706L8.22837 17.8269L6.74867 27.2006Z" fill="#003087"/>
</svg>
