<svg width="100" height="60" viewBox="0 0 118 66" fill="none" xmlns="http://www.w3.org/2000/svg">
<path d="M4.90039 35.656L1.61039 43.664C1.57306 43.776 1.50773 43.8647 1.41439 43.93C1.32106 43.9953 1.22306 44.028 1.12039 44.028C0.943058 44.028 0.812392 43.9813 0.728392 43.888C0.644392 43.7947 0.602392 43.6827 0.602392 43.552C0.593058 43.4867 0.602392 43.4167 0.630392 43.342L4.25639 34.522C4.30306 34.3913 4.37306 34.298 4.46639 34.242C4.56906 34.1767 4.68106 34.1487 4.80239 34.158C4.92373 34.158 5.03106 34.1907 5.12439 34.256C5.22706 34.3213 5.29706 34.41 5.33439 34.522L8.94639 43.258C8.97439 43.3327 8.98839 43.4073 8.98839 43.482C8.98839 43.65 8.93239 43.7853 8.82039 43.888C8.70839 43.9813 8.58239 44.028 8.44239 44.028C8.33039 44.028 8.22773 43.9953 8.13439 43.93C8.04106 43.8647 7.97106 43.7713 7.92439 43.65L4.59239 35.642L4.90039 35.656ZM2.31039 41.382L2.78639 40.29H6.94439L7.15439 41.382H2.31039ZM15.3274 36.762C15.4954 36.762 15.6308 36.818 15.7334 36.93C15.8361 37.0327 15.8874 37.1633 15.8874 37.322V41.144C15.8874 42.0867 15.6214 42.8193 15.0894 43.342C14.5668 43.8553 13.8341 44.112 12.8914 44.112C11.9581 44.112 11.2254 43.8553 10.6934 43.342C10.1708 42.8193 9.90944 42.0867 9.90944 41.144V37.322C9.90944 37.1633 9.96077 37.0327 10.0634 36.93C10.1754 36.818 10.3108 36.762 10.4694 36.762C10.6374 36.762 10.7728 36.818 10.8754 36.93C10.9781 37.0327 11.0294 37.1633 11.0294 37.322V41.144C11.0294 41.7787 11.1928 42.2593 11.5194 42.586C11.8461 42.9127 12.3034 43.076 12.8914 43.076C13.4981 43.076 13.9601 42.9127 14.2774 42.586C14.6041 42.2593 14.7674 41.7787 14.7674 41.144V37.322C14.7674 37.1633 14.8188 37.0327 14.9214 36.93C15.0334 36.818 15.1688 36.762 15.3274 36.762ZM20.9022 36.58C21.3782 36.58 21.8075 36.6313 22.1902 36.734C22.5728 36.8367 22.8762 36.9767 23.1002 37.154C23.3242 37.3313 23.4362 37.532 23.4362 37.756C23.4362 37.8773 23.3942 37.994 23.3102 38.106C23.2262 38.218 23.1142 38.274 22.9742 38.274C22.8435 38.274 22.7362 38.2507 22.6522 38.204C22.5775 38.1573 22.5028 38.0967 22.4282 38.022C22.3628 37.9473 22.2695 37.882 22.1482 37.826C22.0362 37.7607 21.8728 37.7093 21.6582 37.672C21.4435 37.6347 21.2288 37.616 21.0142 37.616C20.5008 37.616 20.0482 37.7373 19.6562 37.98C19.2735 38.2227 18.9702 38.5493 18.7462 38.96C18.5222 39.3707 18.4102 39.8373 18.4102 40.36C18.4102 40.8827 18.5175 41.3493 18.7322 41.76C18.9468 42.1707 19.2455 42.4973 19.6282 42.74C20.0108 42.9827 20.4542 43.104 20.9582 43.104C21.2848 43.104 21.5462 43.076 21.7422 43.02C21.9382 42.964 22.1015 42.8987 22.2322 42.824C22.4002 42.7307 22.5262 42.6373 22.6102 42.544C22.7035 42.4507 22.8248 42.404 22.9742 42.404C23.1328 42.404 23.2542 42.4553 23.3382 42.558C23.4315 42.6607 23.4782 42.7867 23.4782 42.936C23.4782 43.104 23.3615 43.2813 23.1282 43.468C22.8948 43.6547 22.5775 43.8133 22.1762 43.944C21.7842 44.0747 21.3362 44.14 20.8322 44.14C20.1228 44.14 19.5022 43.9767 18.9702 43.65C18.4382 43.314 18.0228 42.8613 17.7242 42.292C17.4348 41.7133 17.2902 41.0693 17.2902 40.36C17.2902 39.6507 17.4395 39.0113 17.7382 38.442C18.0462 37.8727 18.4708 37.42 19.0122 37.084C19.5535 36.748 20.1835 36.58 20.9022 36.58ZM30.0799 36.762C30.2479 36.762 30.3833 36.818 30.4859 36.93C30.5886 37.0327 30.6399 37.1633 30.6399 37.322V41.144C30.6399 42.0867 30.3739 42.8193 29.8419 43.342C29.3193 43.8553 28.5866 44.112 27.6439 44.112C26.7106 44.112 25.9779 43.8553 25.4459 43.342C24.9233 42.8193 24.6619 42.0867 24.6619 41.144V37.322C24.6619 37.1633 24.7133 37.0327 24.8159 36.93C24.9279 36.818 25.0633 36.762 25.2219 36.762C25.3899 36.762 25.5253 36.818 25.6279 36.93C25.7306 37.0327 25.7819 37.1633 25.7819 37.322V41.144C25.7819 41.7787 25.9453 42.2593 26.2719 42.586C26.5986 42.9127 27.0559 43.076 27.6439 43.076C28.2506 43.076 28.7126 42.9127 29.0299 42.586C29.3566 42.2593 29.5199 41.7787 29.5199 41.144V37.322C29.5199 37.1633 29.5713 37.0327 29.6739 36.93C29.7859 36.818 29.9213 36.762 30.0799 36.762ZM36.0327 36.58C36.6673 36.58 37.1667 36.7107 37.5307 36.972C37.8947 37.2333 38.1513 37.5833 38.3007 38.022C38.4593 38.4607 38.5387 38.9507 38.5387 39.492V43.426C38.5387 43.5847 38.4827 43.72 38.3707 43.832C38.268 43.944 38.1373 44 37.9787 44C37.82 44 37.6847 43.944 37.5727 43.832C37.47 43.72 37.4187 43.5847 37.4187 43.426V39.52C37.4187 39.1653 37.3627 38.848 37.2507 38.568C37.148 38.2787 36.9707 38.05 36.7187 37.882C36.476 37.7047 36.14 37.616 35.7107 37.616C35.3187 37.616 34.9593 37.7047 34.6327 37.882C34.306 38.05 34.0447 38.2787 33.8487 38.568C33.6527 38.848 33.5547 39.1653 33.5547 39.52V43.426C33.5547 43.5847 33.4987 43.72 33.3867 43.832C33.284 43.944 33.1533 44 32.9947 44C32.836 44 32.7007 43.944 32.5887 43.832C32.486 43.72 32.4347 43.5847 32.4347 43.426V37.322C32.4347 37.1633 32.486 37.0327 32.5887 36.93C32.7007 36.818 32.836 36.762 32.9947 36.762C33.1627 36.762 33.298 36.818 33.4007 36.93C33.5033 37.0327 33.5547 37.1633 33.5547 37.322V38.316L33.2747 38.624C33.3213 38.3813 33.4287 38.1387 33.5967 37.896C33.7647 37.644 33.9747 37.42 34.2267 37.224C34.4787 37.028 34.7587 36.874 35.0667 36.762C35.3747 36.6407 35.6967 36.58 36.0327 36.58ZM47.4759 36.65C48.1106 36.65 48.6799 36.8087 49.1839 37.126C49.6879 37.4433 50.0846 37.882 50.3739 38.442C50.6726 39.002 50.8219 39.646 50.8219 40.374C50.8219 41.0927 50.6726 41.7367 50.3739 42.306C50.0846 42.866 49.6879 43.3093 49.1839 43.636C48.6893 43.9533 48.1293 44.112 47.5039 44.112C47.1586 44.112 46.8319 44.0607 46.5239 43.958C46.2253 43.846 45.9499 43.706 45.6979 43.538C45.4553 43.3607 45.2499 43.1647 45.0819 42.95C44.9139 42.726 44.7926 42.5067 44.7179 42.292L45.0259 42.096V46.226C45.0259 46.3847 44.9746 46.52 44.8719 46.632C44.7693 46.744 44.6339 46.8 44.4659 46.8C44.3073 46.8 44.1719 46.744 44.0599 46.632C43.9573 46.5293 43.9059 46.394 43.9059 46.226V37.28C43.9059 37.1213 43.9573 36.9907 44.0599 36.888C44.1719 36.776 44.3073 36.72 44.4659 36.72C44.6339 36.72 44.7693 36.776 44.8719 36.888C44.9746 36.9907 45.0259 37.1213 45.0259 37.28V38.526L44.8159 38.414C44.8813 38.1807 44.9933 37.9567 45.1519 37.742C45.3199 37.5273 45.5206 37.3407 45.7539 37.182C45.9966 37.014 46.2626 36.8833 46.5519 36.79C46.8506 36.6967 47.1586 36.65 47.4759 36.65ZM47.3499 37.686C46.8833 37.686 46.4679 37.8027 46.1039 38.036C45.7493 38.2693 45.4693 38.5867 45.2639 38.988C45.0679 39.3893 44.9699 39.8513 44.9699 40.374C44.9699 40.8873 45.0679 41.3493 45.2639 41.76C45.4693 42.1707 45.7493 42.4927 46.1039 42.726C46.4679 42.9593 46.8833 43.076 47.3499 43.076C47.8166 43.076 48.2273 42.9593 48.5819 42.726C48.9366 42.4927 49.2166 42.1707 49.4219 41.76C49.6273 41.3493 49.7299 40.8873 49.7299 40.374C49.7299 39.8513 49.6273 39.3893 49.4219 38.988C49.2166 38.5867 48.9366 38.2693 48.5819 38.036C48.2273 37.8027 47.8166 37.686 47.3499 37.686ZM52.7855 44C52.6269 44 52.4915 43.944 52.3795 43.832C52.2769 43.72 52.2255 43.5847 52.2255 43.426V37.322C52.2255 37.1633 52.2769 37.0327 52.3795 36.93C52.4915 36.818 52.6269 36.762 52.7855 36.762C52.9535 36.762 53.0889 36.818 53.1915 36.93C53.2942 37.0327 53.3455 37.1633 53.3455 37.322V39.17L53.1775 38.876C53.2335 38.5867 53.3315 38.3067 53.4715 38.036C53.6209 37.756 53.8075 37.5087 54.0315 37.294C54.2555 37.07 54.5122 36.8973 54.8015 36.776C55.0909 36.6453 55.4082 36.58 55.7535 36.58C55.9589 36.58 56.1455 36.6313 56.3135 36.734C56.4909 36.8273 56.5795 36.9627 56.5795 37.14C56.5795 37.336 56.5282 37.4807 56.4255 37.574C56.3229 37.6673 56.2062 37.714 56.0755 37.714C55.9542 37.714 55.8375 37.6907 55.7255 37.644C55.6135 37.588 55.4735 37.56 55.3055 37.56C55.0722 37.56 54.8389 37.6253 54.6055 37.756C54.3815 37.8773 54.1715 38.0547 53.9755 38.288C53.7889 38.5213 53.6349 38.7873 53.5135 39.086C53.4015 39.3753 53.3455 39.688 53.3455 40.024V43.426C53.3455 43.5847 53.2895 43.72 53.1775 43.832C53.0749 43.944 52.9442 44 52.7855 44ZM64.1242 40.36C64.1242 41.088 63.9609 41.7367 63.6342 42.306C63.3169 42.8753 62.8829 43.3233 62.3322 43.65C61.7909 43.9767 61.1796 44.14 60.4982 44.14C59.8169 44.14 59.2009 43.9767 58.6502 43.65C58.0996 43.3233 57.6609 42.8753 57.3342 42.306C57.0169 41.7367 56.8582 41.088 56.8582 40.36C56.8582 39.632 57.0169 38.9833 57.3342 38.414C57.6609 37.8447 58.0996 37.3967 58.6502 37.07C59.2009 36.7433 59.8169 36.58 60.4982 36.58C61.1796 36.58 61.7909 36.7433 62.3322 37.07C62.8829 37.3967 63.3169 37.8447 63.6342 38.414C63.9609 38.9833 64.1242 39.632 64.1242 40.36ZM63.0042 40.36C63.0042 39.8187 62.8922 39.3427 62.6682 38.932C62.4536 38.5213 62.1549 38.1993 61.7722 37.966C61.3989 37.7327 60.9742 37.616 60.4982 37.616C60.0222 37.616 59.5929 37.7327 59.2102 37.966C58.8369 38.1993 58.5382 38.5213 58.3142 38.932C58.0902 39.3427 57.9782 39.8187 57.9782 40.36C57.9782 40.892 58.0902 41.3633 58.3142 41.774C58.5382 42.1847 58.8369 42.5113 59.2102 42.754C59.5929 42.9873 60.0222 43.104 60.4982 43.104C60.9742 43.104 61.3989 42.9873 61.7722 42.754C62.1549 42.5113 62.4536 42.1847 62.6682 41.774C62.8922 41.3633 63.0042 40.892 63.0042 40.36ZM66.8448 44.476C66.8448 44.952 66.7375 45.358 66.5228 45.694C66.3175 46.03 66.0561 46.2913 65.7388 46.478C65.4215 46.6647 65.0901 46.758 64.7448 46.758C64.5861 46.758 64.4601 46.7067 64.3668 46.604C64.2641 46.5013 64.2128 46.38 64.2128 46.24V46.142C64.2128 46.002 64.2595 45.89 64.3528 45.806C64.4461 45.722 64.5628 45.6613 64.7028 45.624C64.9175 45.568 65.0995 45.4793 65.2488 45.358C65.3981 45.246 65.5148 45.092 65.5988 44.896C65.6828 44.7093 65.7248 44.4853 65.7248 44.224V37.322C65.7248 37.1633 65.7761 37.028 65.8788 36.916C65.9908 36.804 66.1261 36.748 66.2848 36.748C66.4528 36.748 66.5881 36.804 66.6908 36.916C66.7935 37.028 66.8448 37.1633 66.8448 37.322V44.476ZM66.2848 35.712C66.0515 35.712 65.8788 35.6653 65.7668 35.572C65.6548 35.4787 65.5988 35.334 65.5988 35.138V34.942C65.5988 34.746 65.6595 34.6013 65.7808 34.508C65.9021 34.4147 66.0748 34.368 66.2988 34.368C66.5228 34.368 66.6908 34.4147 66.8028 34.508C66.9148 34.6013 66.9708 34.746 66.9708 34.942V35.138C66.9708 35.334 66.9101 35.4787 66.7888 35.572C66.6768 35.6653 66.5088 35.712 66.2848 35.712ZM72.4093 44.14C71.6626 44.14 71.0093 43.9813 70.4493 43.664C69.8893 43.3467 69.4506 42.9127 69.1333 42.362C68.8253 41.802 68.6713 41.158 68.6713 40.43C68.6713 39.618 68.8299 38.9273 69.1473 38.358C69.4739 37.7793 69.8939 37.3407 70.4073 37.042C70.9299 36.734 71.4806 36.58 72.0593 36.58C72.4886 36.58 72.9039 36.6593 73.3053 36.818C73.7066 36.9767 74.0613 37.21 74.3693 37.518C74.6773 37.8167 74.9246 38.1807 75.1113 38.61C75.2979 39.03 75.3959 39.5013 75.4053 40.024C75.4053 40.1733 75.3493 40.2993 75.2373 40.402C75.1253 40.5047 74.9946 40.556 74.8453 40.556H69.3153L69.0633 39.59H74.4533L74.2293 39.786V39.478C74.1919 39.0953 74.0613 38.7687 73.8373 38.498C73.6226 38.218 73.3566 38.0033 73.0393 37.854C72.7313 37.7047 72.4046 37.63 72.0593 37.63C71.7793 37.63 71.4993 37.6813 71.2193 37.784C70.9486 37.8773 70.7013 38.036 70.4773 38.26C70.2626 38.4747 70.0853 38.7547 69.9453 39.1C69.8146 39.4453 69.7493 39.8607 69.7493 40.346C69.7493 40.8873 69.8566 41.3633 70.0713 41.774C70.2953 42.1847 70.6033 42.5113 70.9953 42.754C71.3873 42.9873 71.8446 43.104 72.3673 43.104C72.6939 43.104 72.9786 43.062 73.2213 42.978C73.4639 42.894 73.6739 42.7913 73.8513 42.67C74.0286 42.5393 74.1779 42.4087 74.2993 42.278C74.4206 42.194 74.5373 42.152 74.6493 42.152C74.7893 42.152 74.9013 42.1987 74.9853 42.292C75.0786 42.3853 75.1253 42.4973 75.1253 42.628C75.1253 42.7867 75.0506 42.9267 74.9013 43.048C74.6399 43.3373 74.2853 43.594 73.8373 43.818C73.3893 44.0327 72.9133 44.14 72.4093 44.14ZM76.5287 36.804H79.8187C79.968 36.804 80.0893 36.8553 80.1827 36.958C80.2853 37.0607 80.3367 37.182 80.3367 37.322C80.3367 37.4713 80.2853 37.5973 80.1827 37.7C80.0893 37.7933 79.968 37.84 79.8187 37.84H76.5287C76.3887 37.84 76.2673 37.7887 76.1647 37.686C76.062 37.5833 76.0107 37.4573 76.0107 37.308C76.0107 37.168 76.062 37.0513 76.1647 36.958C76.2673 36.8553 76.3887 36.804 76.5287 36.804ZM77.9987 34.9C78.1573 34.9 78.288 34.956 78.3907 35.068C78.4933 35.1707 78.5447 35.3013 78.5447 35.46V42.222C78.5447 42.446 78.5773 42.614 78.6427 42.726C78.708 42.838 78.792 42.9173 78.8947 42.964C79.0067 43.0013 79.114 43.02 79.2167 43.02C79.31 43.02 79.3893 43.006 79.4547 42.978C79.5293 42.9407 79.6133 42.922 79.7067 42.922C79.8 42.922 79.884 42.9687 79.9587 43.062C80.0427 43.146 80.0847 43.258 80.0847 43.398C80.0847 43.566 79.9867 43.7107 79.7907 43.832C79.5947 43.944 79.3753 44 79.1327 44C79.002 44 78.8387 43.9907 78.6427 43.972C78.456 43.9533 78.2693 43.8927 78.0827 43.79C77.896 43.6873 77.7373 43.5193 77.6067 43.286C77.4853 43.0433 77.4247 42.7073 77.4247 42.278V35.46C77.4247 35.3013 77.4807 35.1707 77.5927 35.068C77.7047 34.956 77.84 34.9 77.9987 34.9ZM88.7601 36.65C89.3947 36.65 89.9641 36.8087 90.4681 37.126C90.9721 37.4433 91.3687 37.882 91.6581 38.442C91.9567 39.002 92.1061 39.646 92.1061 40.374C92.1061 41.0927 91.9567 41.7367 91.6581 42.306C91.3687 42.866 90.9721 43.3093 90.4681 43.636C89.9734 43.9533 89.4134 44.112 88.7881 44.112C88.4427 44.112 88.1161 44.0607 87.8081 43.958C87.5094 43.846 87.2341 43.706 86.9821 43.538C86.7394 43.3607 86.5341 43.1647 86.3661 42.95C86.1981 42.726 86.0767 42.5067 86.0021 42.292L86.3101 42.096V46.226C86.3101 46.3847 86.2587 46.52 86.1561 46.632C86.0534 46.744 85.9181 46.8 85.7501 46.8C85.5914 46.8 85.4561 46.744 85.3441 46.632C85.2414 46.5293 85.1901 46.394 85.1901 46.226V37.28C85.1901 37.1213 85.2414 36.9907 85.3441 36.888C85.4561 36.776 85.5914 36.72 85.7501 36.72C85.9181 36.72 86.0534 36.776 86.1561 36.888C86.2587 36.9907 86.3101 37.1213 86.3101 37.28V38.526L86.1001 38.414C86.1654 38.1807 86.2774 37.9567 86.4361 37.742C86.6041 37.5273 86.8047 37.3407 87.0381 37.182C87.2807 37.014 87.5467 36.8833 87.8361 36.79C88.1347 36.6967 88.4427 36.65 88.7601 36.65ZM88.6341 37.686C88.1674 37.686 87.7521 37.8027 87.3881 38.036C87.0334 38.2693 86.7534 38.5867 86.5481 38.988C86.3521 39.3893 86.2541 39.8513 86.2541 40.374C86.2541 40.8873 86.3521 41.3493 86.5481 41.76C86.7534 42.1707 87.0334 42.4927 87.3881 42.726C87.7521 42.9593 88.1674 43.076 88.6341 43.076C89.1007 43.076 89.5114 42.9593 89.8661 42.726C90.2207 42.4927 90.5007 42.1707 90.7061 41.76C90.9114 41.3493 91.0141 40.8873 91.0141 40.374C91.0141 39.8513 90.9114 39.3893 90.7061 38.988C90.5007 38.5867 90.2207 38.2693 89.8661 38.036C89.5114 37.8027 89.1007 37.686 88.6341 37.686ZM100.384 40.36C100.384 41.088 100.22 41.7367 99.8937 42.306C99.5763 42.8753 99.1423 43.3233 98.5917 43.65C98.0503 43.9767 97.439 44.14 96.7577 44.14C96.0763 44.14 95.4603 43.9767 94.9097 43.65C94.359 43.3233 93.9203 42.8753 93.5937 42.306C93.2763 41.7367 93.1177 41.088 93.1177 40.36C93.1177 39.632 93.2763 38.9833 93.5937 38.414C93.9203 37.8447 94.359 37.3967 94.9097 37.07C95.4603 36.7433 96.0763 36.58 96.7577 36.58C97.439 36.58 98.0503 36.7433 98.5917 37.07C99.1423 37.3967 99.5763 37.8447 99.8937 38.414C100.22 38.9833 100.384 39.632 100.384 40.36ZM99.2637 40.36C99.2637 39.8187 99.1517 39.3427 98.9277 38.932C98.713 38.5213 98.4143 38.1993 98.0317 37.966C97.6583 37.7327 97.2337 37.616 96.7577 37.616C96.2817 37.616 95.8523 37.7327 95.4697 37.966C95.0963 38.1993 94.7977 38.5213 94.5737 38.932C94.3497 39.3427 94.2377 39.8187 94.2377 40.36C94.2377 40.892 94.3497 41.3633 94.5737 41.774C94.7977 42.1847 95.0963 42.5113 95.4697 42.754C95.8523 42.9873 96.2817 43.104 96.7577 43.104C97.2337 43.104 97.6583 42.9873 98.0317 42.754C98.4143 42.5113 98.713 42.1847 98.9277 41.774C99.1517 41.3633 99.2637 40.892 99.2637 40.36ZM107.206 36.762C107.374 36.762 107.51 36.818 107.612 36.93C107.715 37.0327 107.766 37.1633 107.766 37.322V41.144C107.766 42.0867 107.5 42.8193 106.968 43.342C106.446 43.8553 105.713 44.112 104.77 44.112C103.837 44.112 103.104 43.8553 102.572 43.342C102.05 42.8193 101.788 42.0867 101.788 41.144V37.322C101.788 37.1633 101.84 37.0327 101.942 36.93C102.054 36.818 102.19 36.762 102.348 36.762C102.516 36.762 102.652 36.818 102.754 36.93C102.857 37.0327 102.908 37.1633 102.908 37.322V41.144C102.908 41.7787 103.072 42.2593 103.398 42.586C103.725 42.9127 104.182 43.076 104.77 43.076C105.377 43.076 105.839 42.9127 106.156 42.586C106.483 42.2593 106.646 41.7787 106.646 41.144V37.322C106.646 37.1633 106.698 37.0327 106.8 36.93C106.912 36.818 107.048 36.762 107.206 36.762ZM110.121 44C109.962 44 109.827 43.944 109.715 43.832C109.612 43.72 109.561 43.5847 109.561 43.426V37.322C109.561 37.1633 109.612 37.0327 109.715 36.93C109.827 36.818 109.962 36.762 110.121 36.762C110.289 36.762 110.424 36.818 110.527 36.93C110.63 37.0327 110.681 37.1633 110.681 37.322V39.17L110.513 38.876C110.569 38.5867 110.667 38.3067 110.807 38.036C110.956 37.756 111.143 37.5087 111.367 37.294C111.591 37.07 111.848 36.8973 112.137 36.776C112.426 36.6453 112.744 36.58 113.089 36.58C113.294 36.58 113.481 36.6313 113.649 36.734C113.826 36.8273 113.915 36.9627 113.915 37.14C113.915 37.336 113.864 37.4807 113.761 37.574C113.658 37.6673 113.542 37.714 113.411 37.714C113.29 37.714 113.173 37.6907 113.061 37.644C112.949 37.588 112.809 37.56 112.641 37.56C112.408 37.56 112.174 37.6253 111.941 37.756C111.717 37.8773 111.507 38.0547 111.311 38.288C111.124 38.5213 110.97 38.7873 110.849 39.086C110.737 39.3753 110.681 39.688 110.681 40.024V43.426C110.681 43.5847 110.625 43.72 110.513 43.832C110.41 43.944 110.28 44 110.121 44ZM27.0667 61.426C27.0667 61.5847 27.0107 61.72 26.8987 61.832C26.7867 61.944 26.6514 62 26.4927 62C26.334 62 26.2034 61.944 26.1007 61.832C25.998 61.72 25.9467 61.5847 25.9467 61.426V52.2C25.9467 52.0413 25.998 51.9107 26.1007 51.808C26.2127 51.696 26.348 51.64 26.5067 51.64C26.6747 51.64 26.81 51.696 26.9127 51.808C27.0154 51.9107 27.0667 52.0413 27.0667 52.2V61.426ZM32.1683 62.14C31.4216 62.14 30.7683 61.9813 30.2083 61.664C29.6483 61.3467 29.2096 60.9127 28.8923 60.362C28.5843 59.802 28.4303 59.158 28.4303 58.43C28.4303 57.618 28.589 56.9273 28.9063 56.358C29.233 55.7793 29.653 55.3407 30.1663 55.042C30.689 54.734 31.2396 54.58 31.8183 54.58C32.2476 54.58 32.663 54.6593 33.0643 54.818C33.4656 54.9767 33.8203 55.21 34.1283 55.518C34.4363 55.8167 34.6836 56.1807 34.8703 56.61C35.057 57.03 35.155 57.5013 35.1643 58.024C35.1643 58.1733 35.1083 58.2993 34.9963 58.402C34.8843 58.5047 34.7536 58.556 34.6043 58.556H29.0743L28.8223 57.59H34.2123L33.9883 57.786V57.478C33.951 57.0953 33.8203 56.7687 33.5963 56.498C33.3816 56.218 33.1156 56.0033 32.7983 55.854C32.4903 55.7047 32.1636 55.63 31.8183 55.63C31.5383 55.63 31.2583 55.6813 30.9783 55.784C30.7076 55.8773 30.4603 56.036 30.2363 56.26C30.0216 56.4747 29.8443 56.7547 29.7043 57.1C29.5736 57.4453 29.5083 57.8607 29.5083 58.346C29.5083 58.8873 29.6156 59.3633 29.8303 59.774C30.0543 60.1847 30.3623 60.5113 30.7543 60.754C31.1463 60.9873 31.6036 61.104 32.1263 61.104C32.453 61.104 32.7376 61.062 32.9803 60.978C33.223 60.894 33.433 60.7913 33.6103 60.67C33.7876 60.5393 33.937 60.4087 34.0583 60.278C34.1796 60.194 34.2963 60.152 34.4083 60.152C34.5483 60.152 34.6603 60.1987 34.7443 60.292C34.8376 60.3853 34.8843 60.4973 34.8843 60.628C34.8843 60.7867 34.8096 60.9267 34.6603 61.048C34.399 61.3373 34.0443 61.594 33.5963 61.818C33.1483 62.0327 32.6723 62.14 32.1683 62.14ZM43.6011 54.65C44.2358 54.65 44.7491 54.8133 45.1411 55.14C45.5425 55.4573 45.8085 55.91 45.9391 56.498H45.7291L45.8271 56.246C45.9391 55.9847 46.1305 55.7327 46.4011 55.49C46.6718 55.2473 46.9845 55.0467 47.3391 54.888C47.6938 54.7293 48.0625 54.65 48.4451 54.65C49.0611 54.65 49.5465 54.7853 49.9011 55.056C50.2558 55.3173 50.5078 55.672 50.6571 56.12C50.8158 56.5587 50.8951 57.0533 50.8951 57.604V61.426C50.8951 61.5847 50.8391 61.72 50.7271 61.832C50.6245 61.944 50.4938 62 50.3351 62C50.1671 62 50.0318 61.944 49.9291 61.832C49.8265 61.72 49.7751 61.5847 49.7751 61.426V57.632C49.7751 57.268 49.7191 56.9413 49.6071 56.652C49.5045 56.3533 49.3318 56.12 49.0891 55.952C48.8558 55.7747 48.5338 55.686 48.1231 55.686C47.7405 55.686 47.3905 55.7747 47.0731 55.952C46.7558 56.12 46.5038 56.3533 46.3171 56.652C46.1305 56.9413 46.0371 57.268 46.0371 57.632V61.426C46.0371 61.5847 45.9858 61.72 45.8831 61.832C45.7805 61.944 45.6451 62 45.4771 62C45.3185 62 45.1831 61.944 45.0711 61.832C44.9685 61.72 44.9171 61.5847 44.9171 61.426V57.59C44.9171 57.2353 44.8658 56.918 44.7631 56.638C44.6698 56.3487 44.5065 56.12 44.2731 55.952C44.0398 55.7747 43.7178 55.686 43.3071 55.686C42.9338 55.686 42.5931 55.7747 42.2851 55.952C41.9771 56.12 41.7298 56.3487 41.5431 56.638C41.3565 56.918 41.2631 57.2353 41.2631 57.59V61.426C41.2631 61.5847 41.2071 61.72 41.0951 61.832C40.9925 61.944 40.8618 62 40.7031 62C40.5445 62 40.4091 61.944 40.2971 61.832C40.1945 61.72 40.1431 61.5847 40.1431 61.426V55.322C40.1431 55.1633 40.1945 55.0327 40.2971 54.93C40.4091 54.818 40.5445 54.762 40.7031 54.762C40.8711 54.762 41.0065 54.818 41.1091 54.93C41.2118 55.0327 41.2631 55.1633 41.2631 55.322V56.386L40.9551 56.722C40.9925 56.4793 41.0858 56.2367 41.2351 55.994C41.3938 55.7513 41.5945 55.5273 41.8371 55.322C42.0798 55.1167 42.3505 54.9533 42.6491 54.832C42.9478 54.7107 43.2651 54.65 43.6011 54.65ZM59.5614 58.36C59.5614 59.088 59.398 59.7367 59.0714 60.306C58.754 60.8753 58.32 61.3233 57.7694 61.65C57.228 61.9767 56.6167 62.14 55.9354 62.14C55.254 62.14 54.638 61.9767 54.0874 61.65C53.5367 61.3233 53.098 60.8753 52.7714 60.306C52.454 59.7367 52.2954 59.088 52.2954 58.36C52.2954 57.632 52.454 56.9833 52.7714 56.414C53.098 55.8447 53.5367 55.3967 54.0874 55.07C54.638 54.7433 55.254 54.58 55.9354 54.58C56.6167 54.58 57.228 54.7433 57.7694 55.07C58.32 55.3967 58.754 55.8447 59.0714 56.414C59.398 56.9833 59.5614 57.632 59.5614 58.36ZM58.4414 58.36C58.4414 57.8187 58.3294 57.3427 58.1054 56.932C57.8907 56.5213 57.592 56.1993 57.2094 55.966C56.836 55.7327 56.4114 55.616 55.9354 55.616C55.4594 55.616 55.03 55.7327 54.6474 55.966C54.274 56.1993 53.9754 56.5213 53.7514 56.932C53.5274 57.3427 53.4154 57.8187 53.4154 58.36C53.4154 58.892 53.5274 59.3633 53.7514 59.774C53.9754 60.1847 54.274 60.5113 54.6474 60.754C55.03 60.9873 55.4594 61.104 55.9354 61.104C56.4114 61.104 56.836 60.9873 57.2094 60.754C57.592 60.5113 57.8907 60.1847 58.1054 59.774C58.3294 59.3633 58.4414 58.892 58.4414 58.36ZM64.424 54.65C65.0586 54.65 65.572 54.8133 65.964 55.14C66.3653 55.4573 66.6313 55.91 66.762 56.498H66.552L66.65 56.246C66.762 55.9847 66.9533 55.7327 67.224 55.49C67.4946 55.2473 67.8073 55.0467 68.162 54.888C68.5166 54.7293 68.8853 54.65 69.268 54.65C69.884 54.65 70.3693 54.7853 70.724 55.056C71.0786 55.3173 71.3306 55.672 71.48 56.12C71.6386 56.5587 71.718 57.0533 71.718 57.604V61.426C71.718 61.5847 71.662 61.72 71.55 61.832C71.4473 61.944 71.3166 62 71.158 62C70.99 62 70.8546 61.944 70.752 61.832C70.6493 61.72 70.598 61.5847 70.598 61.426V57.632C70.598 57.268 70.542 56.9413 70.43 56.652C70.3273 56.3533 70.1546 56.12 69.912 55.952C69.6786 55.7747 69.3566 55.686 68.946 55.686C68.5633 55.686 68.2133 55.7747 67.896 55.952C67.5786 56.12 67.3266 56.3533 67.14 56.652C66.9533 56.9413 66.86 57.268 66.86 57.632V61.426C66.86 61.5847 66.8086 61.72 66.706 61.832C66.6033 61.944 66.468 62 66.3 62C66.1413 62 66.006 61.944 65.894 61.832C65.7913 61.72 65.74 61.5847 65.74 61.426V57.59C65.74 57.2353 65.6886 56.918 65.586 56.638C65.4926 56.3487 65.3293 56.12 65.096 55.952C64.8626 55.7747 64.5406 55.686 64.13 55.686C63.7566 55.686 63.416 55.7747 63.108 55.952C62.8 56.12 62.5526 56.3487 62.366 56.638C62.1793 56.918 62.086 57.2353 62.086 57.59V61.426C62.086 61.5847 62.03 61.72 61.918 61.832C61.8153 61.944 61.6846 62 61.526 62C61.3673 62 61.232 61.944 61.12 61.832C61.0173 61.72 60.966 61.5847 60.966 61.426V55.322C60.966 55.1633 61.0173 55.0327 61.12 54.93C61.232 54.818 61.3673 54.762 61.526 54.762C61.694 54.762 61.8293 54.818 61.932 54.93C62.0346 55.0327 62.086 55.1633 62.086 55.322V56.386L61.778 56.722C61.8153 56.4793 61.9086 56.2367 62.058 55.994C62.2166 55.7513 62.4173 55.5273 62.66 55.322C62.9026 55.1167 63.1733 54.9533 63.472 54.832C63.7706 54.7107 64.088 54.65 64.424 54.65ZM76.8562 62.14C76.1095 62.14 75.4562 61.9813 74.8962 61.664C74.3362 61.3467 73.8975 60.9127 73.5802 60.362C73.2722 59.802 73.1182 59.158 73.1182 58.43C73.1182 57.618 73.2768 56.9273 73.5942 56.358C73.9208 55.7793 74.3408 55.3407 74.8542 55.042C75.3768 54.734 75.9275 54.58 76.5062 54.58C76.9355 54.58 77.3508 54.6593 77.7522 54.818C78.1535 54.9767 78.5082 55.21 78.8162 55.518C79.1242 55.8167 79.3715 56.1807 79.5582 56.61C79.7448 57.03 79.8428 57.5013 79.8522 58.024C79.8522 58.1733 79.7962 58.2993 79.6842 58.402C79.5722 58.5047 79.4415 58.556 79.2922 58.556H73.7622L73.5102 57.59H78.9002L78.6762 57.786V57.478C78.6388 57.0953 78.5082 56.7687 78.2842 56.498C78.0695 56.218 77.8035 56.0033 77.4862 55.854C77.1782 55.7047 76.8515 55.63 76.5062 55.63C76.2262 55.63 75.9462 55.6813 75.6662 55.784C75.3955 55.8773 75.1482 56.036 74.9242 56.26C74.7095 56.4747 74.5322 56.7547 74.3922 57.1C74.2615 57.4453 74.1962 57.8607 74.1962 58.346C74.1962 58.8873 74.3035 59.3633 74.5182 59.774C74.7422 60.1847 75.0502 60.5113 75.4422 60.754C75.8342 60.9873 76.2915 61.104 76.8142 61.104C77.1408 61.104 77.4255 61.062 77.6682 60.978C77.9108 60.894 78.1208 60.7913 78.2982 60.67C78.4755 60.5393 78.6248 60.4087 78.7462 60.278C78.8675 60.194 78.9842 60.152 79.0962 60.152C79.2362 60.152 79.3482 60.1987 79.4322 60.292C79.5255 60.3853 79.5722 60.4973 79.5722 60.628C79.5722 60.7867 79.4975 60.9267 79.3482 61.048C79.0868 61.3373 78.7322 61.594 78.2842 61.818C77.8362 62.0327 77.3602 62.14 76.8562 62.14ZM84.8536 54.58C85.4882 54.58 85.9876 54.7107 86.3516 54.972C86.7156 55.2333 86.9722 55.5833 87.1216 56.022C87.2802 56.4607 87.3596 56.9507 87.3596 57.492V61.426C87.3596 61.5847 87.3036 61.72 87.1916 61.832C87.0889 61.944 86.9582 62 86.7996 62C86.6409 62 86.5056 61.944 86.3936 61.832C86.2909 61.72 86.2396 61.5847 86.2396 61.426V57.52C86.2396 57.1653 86.1836 56.848 86.0716 56.568C85.9689 56.2787 85.7916 56.05 85.5396 55.882C85.2969 55.7047 84.9609 55.616 84.5316 55.616C84.1396 55.616 83.7802 55.7047 83.4536 55.882C83.1269 56.05 82.8656 56.2787 82.6696 56.568C82.4736 56.848 82.3756 57.1653 82.3756 57.52V61.426C82.3756 61.5847 82.3196 61.72 82.2076 61.832C82.1049 61.944 81.9742 62 81.8156 62C81.6569 62 81.5216 61.944 81.4096 61.832C81.3069 61.72 81.2556 61.5847 81.2556 61.426V55.322C81.2556 55.1633 81.3069 55.0327 81.4096 54.93C81.5216 54.818 81.6569 54.762 81.8156 54.762C81.9836 54.762 82.1189 54.818 82.2216 54.93C82.3242 55.0327 82.3756 55.1633 82.3756 55.322V56.316L82.0956 56.624C82.1422 56.3813 82.2496 56.1387 82.4176 55.896C82.5856 55.644 82.7956 55.42 83.0476 55.224C83.2996 55.028 83.5796 54.874 83.8876 54.762C84.1956 54.6407 84.5176 54.58 84.8536 54.58ZM88.8713 54.804H92.1613C92.3107 54.804 92.432 54.8553 92.5253 54.958C92.628 55.0607 92.6793 55.182 92.6793 55.322C92.6793 55.4713 92.628 55.5973 92.5253 55.7C92.432 55.7933 92.3107 55.84 92.1613 55.84H88.8713C88.7313 55.84 88.61 55.7887 88.5073 55.686C88.4047 55.5833 88.3533 55.4573 88.3533 55.308C88.3533 55.168 88.4047 55.0513 88.5073 54.958C88.61 54.8553 88.7313 54.804 88.8713 54.804ZM90.3413 52.9C90.5 52.9 90.6307 52.956 90.7333 53.068C90.836 53.1707 90.8873 53.3013 90.8873 53.46V60.222C90.8873 60.446 90.92 60.614 90.9853 60.726C91.0507 60.838 91.1347 60.9173 91.2373 60.964C91.3493 61.0013 91.4567 61.02 91.5593 61.02C91.6527 61.02 91.732 61.006 91.7973 60.978C91.872 60.9407 91.956 60.922 92.0493 60.922C92.1427 60.922 92.2267 60.9687 92.3013 61.062C92.3853 61.146 92.4273 61.258 92.4273 61.398C92.4273 61.566 92.3293 61.7107 92.1333 61.832C91.9373 61.944 91.718 62 91.4753 62C91.3447 62 91.1813 61.9907 90.9853 61.972C90.7987 61.9533 90.612 61.8927 90.4253 61.79C90.2387 61.6873 90.08 61.5193 89.9493 61.286C89.828 61.0433 89.7673 60.7073 89.7673 60.278V53.46C89.7673 53.3013 89.8233 53.1707 89.9353 53.068C90.0473 52.956 90.1827 52.9 90.3413 52.9Z" fill="#ABAFB1"/>
<path d="M61 8V12M61 16H61.01M71 12C71 17.5228 66.5228 22 61 22C55.4772 22 51 17.5228 51 12C51 6.47715 55.4772 2 61 2C66.5228 2 71 6.47715 71 12Z" stroke="#ABAFB1" stroke-width="2" stroke-linecap="round" stroke-linejoin="round"/>
</svg>
