<svg width="494" height="247" viewBox="0 0 494 247" fill="none" xmlns="http://www.w3.org/2000/svg">
<g clip-path="url(#clip0_721_41337)">
<path d="M79.808 0.363H431.192C434.199 0.363 436.637 2.80081 436.637 5.808V22.869H74.363V5.808C74.363 2.80081 76.8008 0.363 79.808 0.363Z" fill="white"/>
<circle cx="85.6159" cy="11.9997" r="2.904" fill="#FF355E"/>
<circle cx="94.3278" cy="11.9997" r="2.904" fill="#ECB22E"/>
<circle cx="103.04" cy="11.9997" r="2.904" fill="#198337"/>
<path d="M79.808 0.363H431.192C434.199 0.363 436.637 2.80081 436.637 5.808V22.869H74.363V5.808C74.363 2.80081 76.8008 0.363 79.808 0.363Z" stroke="#E9E9EC" stroke-width="0.726"/>
<g clip-path="url(#clip1_721_41337)">
<path d="M74 22.5059H437V241.032C437 244.24 434.4 246.84 431.192 246.84H79.808C76.6003 246.84 74 244.24 74 241.032V22.5059Z" fill="white"/>
<rect x="114.656" y="80.5859" width="174.24" height="40.656" rx="5.808" fill="#FAFAFA"/>
<rect x="149.504" y="39.9297" width="139.392" height="23.232" rx="5.808" fill="#FAFAFA"/>
<rect x="309.224" y="39.9297" width="87.12" height="23.232" rx="5.808" fill="#FAFAFA"/>
<rect x="114.656" y="214.17" width="174.24" height="40.656" rx="5.808" fill="#FAFAFA"/>
<rect x="114.656" y="132.857" width="174.24" height="69.696" rx="5.808" fill="#FF355E"/>
<rect x="309.224" y="80.5859" width="87.12" height="145.2" rx="5.808" fill="#FAFAFA"/>
<circle cx="126.272" cy="51.5457" r="11.616" fill="#FAFAFA"/>
<path d="M126.369 58.6455C129.835 58.6455 132.646 55.8353 132.646 52.3686C132.646 48.902 129.835 46.0918 126.369 46.0918C122.902 46.0918 120.092 48.902 120.092 52.3686C120.092 55.8353 122.902 58.6455 126.369 58.6455Z" stroke="#F1F1F1" stroke-width="1.39486" stroke-miterlimit="10"/>
<path d="M126.369 54.4612C127.814 54.4612 128.985 53.2902 128.985 51.8458C128.985 50.4014 127.814 49.2305 126.369 49.2305C124.925 49.2305 123.754 50.4014 123.754 51.8458C123.754 53.2902 124.925 54.4612 126.369 54.4612Z" stroke="#F1F1F1" stroke-width="1.39486" stroke-miterlimit="10"/>
<path d="M122.172 57.0354C122.566 56.2607 123.167 55.6102 123.907 55.1558C124.648 54.7014 125.5 54.4609 126.37 54.4609C127.239 54.4609 128.091 54.7014 128.832 55.1558C129.573 55.6102 130.173 56.2607 130.567 57.0353" stroke="#F1F1F1" stroke-width="1.39486" stroke-linecap="round" stroke-linejoin="round"/>
</g>
<path d="M74.363 22.8689H436.637V241.032C436.637 244.039 434.199 246.477 431.192 246.477H79.808C76.8008 246.477 74.363 244.039 74.363 241.032V22.8689Z" stroke="#E9E9EC" stroke-width="0.726"/>
</g>
<rect x="379" y="174" width="115" height="40" rx="20" fill="#25253D"/>
<path d="M409.666 200V198.667C409.666 197.424 408.816 196.38 407.666 196.084M405.333 188.194C406.31 188.589 407 189.548 407 190.667C407 191.786 406.31 192.744 405.333 193.139M406.333 200C406.333 198.757 406.333 198.136 406.13 197.646C405.859 196.993 405.34 196.474 404.687 196.203C404.197 196 403.576 196 402.333 196H400.333C399.09 196 398.469 196 397.979 196.203C397.326 196.474 396.807 196.993 396.536 197.646C396.333 198.136 396.333 198.757 396.333 200M404 190.667C404 192.139 402.806 193.333 401.333 193.333C399.86 193.333 398.666 192.139 398.666 190.667C398.666 189.194 399.86 188 401.333 188C402.806 188 404 189.194 404 190.667Z" stroke="white" stroke-width="1.5" stroke-linecap="round" stroke-linejoin="round"/>
<path d="M428.248 189.44C428.483 189.557 428.616 189.739 428.648 189.984C428.691 190.229 428.632 190.453 428.472 190.656C428.355 190.816 428.2 190.907 428.008 190.928C427.827 190.949 427.645 190.912 427.464 190.816C427.155 190.656 426.829 190.528 426.488 190.432C426.147 190.336 425.784 190.288 425.4 190.288C424.792 190.288 424.243 190.389 423.752 190.592C423.272 190.784 422.856 191.067 422.504 191.44C422.152 191.803 421.88 192.235 421.688 192.736C421.507 193.237 421.416 193.792 421.416 194.4C421.416 195.072 421.517 195.669 421.72 196.192C421.923 196.704 422.2 197.141 422.552 197.504C422.915 197.856 423.336 198.123 423.816 198.304C424.307 198.475 424.835 198.56 425.4 198.56C425.763 198.56 426.115 198.517 426.456 198.432C426.808 198.347 427.139 198.219 427.448 198.048C427.64 197.952 427.827 197.92 428.008 197.952C428.2 197.973 428.355 198.064 428.472 198.224C428.653 198.448 428.717 198.677 428.664 198.912C428.621 199.136 428.488 199.307 428.264 199.424C427.997 199.573 427.704 199.701 427.384 199.808C427.064 199.915 426.739 200 426.408 200.064C426.077 200.128 425.741 200.16 425.4 200.16C424.632 200.16 423.907 200.032 423.224 199.776C422.541 199.52 421.933 199.147 421.4 198.656C420.867 198.165 420.445 197.563 420.136 196.848C419.837 196.133 419.688 195.317 419.688 194.4C419.688 193.579 419.827 192.821 420.104 192.128C420.392 191.424 420.792 190.821 421.304 190.32C421.827 189.808 422.435 189.413 423.128 189.136C423.821 188.848 424.579 188.704 425.4 188.704C425.912 188.704 426.408 188.768 426.888 188.896C427.379 189.024 427.832 189.205 428.248 189.44ZM432.02 199.184C432.02 199.419 431.94 199.616 431.78 199.776C431.631 199.925 431.444 200 431.22 200C430.996 200 430.804 199.925 430.644 199.776C430.495 199.616 430.42 199.419 430.42 199.184V188.976C430.42 188.741 430.5 188.549 430.66 188.4C430.82 188.24 431.012 188.16 431.236 188.16C431.471 188.16 431.657 188.24 431.796 188.4C431.945 188.549 432.02 188.741 432.02 188.976V199.184ZM435.905 199.184C435.905 199.419 435.831 199.616 435.681 199.776C435.532 199.925 435.34 200 435.105 200C434.881 200 434.689 199.925 434.529 199.776C434.38 199.616 434.305 199.419 434.305 199.184V192.336C434.305 192.101 434.38 191.909 434.529 191.76C434.689 191.6 434.881 191.52 435.105 191.52C435.34 191.52 435.532 191.6 435.681 191.76C435.831 191.909 435.905 192.101 435.905 192.336V199.184ZM435.089 190.464C434.78 190.464 434.556 190.411 434.417 190.304C434.279 190.187 434.209 189.995 434.209 189.728V189.472C434.209 189.205 434.284 189.019 434.433 188.912C434.583 188.805 434.807 188.752 435.105 188.752C435.425 188.752 435.655 188.811 435.793 188.928C435.932 189.035 436.001 189.216 436.001 189.472V189.728C436.001 190.005 435.927 190.197 435.777 190.304C435.639 190.411 435.409 190.464 435.089 190.464ZM441.978 200.16C441.092 200.16 440.324 199.979 439.674 199.616C439.023 199.243 438.516 198.736 438.154 198.096C437.802 197.445 437.626 196.704 437.626 195.872C437.626 194.933 437.812 194.133 438.186 193.472C438.57 192.8 439.066 192.288 439.674 191.936C440.282 191.573 440.927 191.392 441.61 191.392C442.132 191.392 442.628 191.499 443.098 191.712C443.567 191.915 443.983 192.203 444.346 192.576C444.719 192.939 445.012 193.371 445.226 193.872C445.439 194.363 445.551 194.901 445.562 195.488C445.551 195.701 445.466 195.877 445.306 196.016C445.146 196.155 444.959 196.224 444.746 196.224H438.522L438.138 194.864H444.154L443.85 195.152V194.752C443.828 194.379 443.706 194.053 443.482 193.776C443.258 193.488 442.98 193.269 442.65 193.12C442.319 192.96 441.972 192.88 441.61 192.88C441.29 192.88 440.98 192.933 440.682 193.04C440.394 193.136 440.132 193.296 439.898 193.52C439.674 193.744 439.492 194.043 439.354 194.416C439.226 194.779 439.162 195.232 439.162 195.776C439.162 196.363 439.284 196.875 439.53 197.312C439.775 197.749 440.106 198.091 440.522 198.336C440.938 198.571 441.396 198.688 441.898 198.688C442.292 198.688 442.618 198.651 442.874 198.576C443.13 198.491 443.343 198.389 443.514 198.272C443.684 198.155 443.834 198.043 443.962 197.936C444.122 197.84 444.282 197.792 444.442 197.792C444.634 197.792 444.794 197.861 444.922 198C445.05 198.128 445.114 198.283 445.114 198.464C445.114 198.699 444.996 198.912 444.762 199.104C444.474 199.381 444.074 199.627 443.562 199.84C443.06 200.053 442.532 200.16 441.978 200.16ZM451.706 191.392C452.463 191.392 453.05 191.552 453.466 191.872C453.882 192.181 454.17 192.603 454.33 193.136C454.501 193.659 454.586 194.245 454.586 194.896V199.184C454.586 199.419 454.506 199.616 454.346 199.776C454.197 199.925 454.01 200 453.786 200C453.551 200 453.359 199.925 453.21 199.776C453.061 199.616 452.986 199.419 452.986 199.184V194.912C452.986 194.528 452.933 194.187 452.826 193.888C452.719 193.579 452.533 193.333 452.266 193.152C452.01 192.96 451.647 192.864 451.178 192.864C450.741 192.864 450.357 192.96 450.026 193.152C449.695 193.333 449.434 193.579 449.242 193.888C449.061 194.187 448.97 194.528 448.97 194.912V199.184C448.97 199.419 448.89 199.616 448.73 199.776C448.581 199.925 448.394 200 448.17 200C447.935 200 447.743 199.925 447.594 199.776C447.445 199.616 447.37 199.419 447.37 199.184V192.4C447.37 192.165 447.445 191.973 447.594 191.824C447.743 191.664 447.935 191.584 448.17 191.584C448.394 191.584 448.581 191.664 448.73 191.824C448.89 191.973 448.97 192.165 448.97 192.4V193.296L448.682 193.456C448.757 193.221 448.885 192.987 449.066 192.752C449.258 192.507 449.487 192.283 449.754 192.08C450.021 191.867 450.319 191.701 450.65 191.584C450.981 191.456 451.333 191.392 451.706 191.392ZM456.696 191.68H460.456C460.669 191.68 460.845 191.755 460.984 191.904C461.133 192.043 461.208 192.219 461.208 192.432C461.208 192.635 461.133 192.805 460.984 192.944C460.845 193.083 460.669 193.152 460.456 193.152H456.696C456.482 193.152 456.301 193.083 456.152 192.944C456.013 192.795 455.944 192.619 455.944 192.416C455.944 192.203 456.013 192.027 456.152 191.888C456.301 191.749 456.482 191.68 456.696 191.68ZM458.376 189.6C458.61 189.6 458.802 189.68 458.952 189.84C459.101 189.989 459.176 190.181 459.176 190.416V197.84C459.176 198.032 459.208 198.187 459.272 198.304C459.336 198.421 459.421 198.501 459.528 198.544C459.645 198.587 459.762 198.608 459.88 198.608C459.997 198.608 460.098 198.587 460.184 198.544C460.28 198.501 460.392 198.48 460.52 198.48C460.648 198.48 460.765 198.539 460.872 198.656C460.978 198.773 461.032 198.933 461.032 199.136C461.032 199.392 460.893 199.6 460.616 199.76C460.338 199.92 460.04 200 459.72 200C459.538 200 459.325 199.984 459.08 199.952C458.834 199.92 458.594 199.84 458.36 199.712C458.136 199.584 457.949 199.381 457.799 199.104C457.65 198.816 457.576 198.416 457.576 197.904V190.416C457.576 190.181 457.65 189.989 457.799 189.84C457.959 189.68 458.152 189.6 458.376 189.6ZM462.796 198.688C462.7 198.539 462.657 198.368 462.668 198.176C462.679 197.973 462.791 197.803 463.004 197.664C463.153 197.568 463.308 197.531 463.468 197.552C463.639 197.563 463.799 197.643 463.948 197.792C464.247 198.123 464.577 198.384 464.94 198.576C465.313 198.768 465.761 198.864 466.284 198.864C466.497 198.853 466.716 198.821 466.94 198.768C467.164 198.704 467.356 198.597 467.516 198.448C467.676 198.288 467.756 198.059 467.756 197.76C467.756 197.493 467.671 197.28 467.5 197.12C467.329 196.96 467.105 196.832 466.828 196.736C466.551 196.629 466.252 196.533 465.932 196.448C465.591 196.352 465.244 196.245 464.892 196.128C464.551 196.011 464.241 195.861 463.964 195.68C463.687 195.488 463.457 195.243 463.276 194.944C463.105 194.645 463.02 194.277 463.02 193.84C463.02 193.339 463.159 192.907 463.436 192.544C463.724 192.181 464.092 191.899 464.54 191.696C464.999 191.493 465.495 191.392 466.028 191.392C466.337 191.392 466.663 191.435 467.004 191.52C467.345 191.595 467.676 191.717 467.996 191.888C468.316 192.059 468.593 192.283 468.828 192.56C468.935 192.699 468.993 192.864 469.004 193.056C469.025 193.248 468.94 193.419 468.748 193.568C468.62 193.675 468.465 193.723 468.284 193.712C468.103 193.701 467.953 193.643 467.836 193.536C467.633 193.28 467.372 193.083 467.052 192.944C466.732 192.795 466.369 192.72 465.964 192.72C465.761 192.72 465.548 192.752 465.324 192.816C465.111 192.869 464.929 192.971 464.78 193.12C464.631 193.269 464.556 193.488 464.556 193.776C464.556 194.043 464.641 194.256 464.812 194.416C464.993 194.576 465.228 194.709 465.516 194.816C465.804 194.923 466.119 195.019 466.46 195.104C466.791 195.189 467.116 195.291 467.436 195.408C467.767 195.525 468.06 195.68 468.316 195.872C468.583 196.053 468.796 196.293 468.956 196.592C469.127 196.88 469.212 197.248 469.212 197.696C469.212 198.219 469.057 198.667 468.748 199.04C468.449 199.403 468.065 199.68 467.596 199.872C467.137 200.064 466.652 200.16 466.14 200.16C465.532 200.16 464.924 200.053 464.316 199.84C463.719 199.616 463.212 199.232 462.796 198.688Z" fill="white"/>
<rect x="1" y="72" width="146" height="42" rx="21" fill="white"/>
<g clip-path="url(#clip2_721_41337)">
<path d="M25.9997 99.6673C29.6816 99.6673 32.6663 96.6826 32.6663 93.0007C32.6663 89.3188 29.6816 86.334 25.9997 86.334C22.3178 86.334 19.333 89.3188 19.333 93.0007C19.333 96.6826 22.3178 99.6673 25.9997 99.6673Z" fill="#25253D"/>
<path d="M25.9997 90.334V95.6673M23.333 93.0007H28.6663M32.6663 93.0007C32.6663 96.6826 29.6816 99.6673 25.9997 99.6673C22.3178 99.6673 19.333 96.6826 19.333 93.0007C19.333 89.3188 22.3178 86.334 25.9997 86.334C29.6816 86.334 32.6663 89.3188 32.6663 93.0007Z" stroke="#25253D" stroke-width="1.33333" stroke-linecap="round" stroke-linejoin="round"/>
</g>
<path d="M26.0017 89.8906V96.1128M22.8906 93.0017H29.1128" stroke="white" stroke-width="1.33333" stroke-linecap="round" stroke-linejoin="round"/>
<path d="M51.696 87.8C51.952 87.8 52.16 87.8853 52.32 88.056C52.48 88.2267 52.56 88.44 52.56 88.696V98.024C52.56 98.3013 52.464 98.536 52.272 98.728C52.0907 98.9093 51.8613 99 51.584 99C51.4453 99 51.3013 98.9787 51.152 98.936C51.0133 98.8827 50.9067 98.8133 50.832 98.728L44.544 90.744L44.96 90.488V98.104C44.96 98.36 44.8747 98.5733 44.704 98.744C44.544 98.9147 44.3307 99 44.064 99C43.808 99 43.6 98.9147 43.44 98.744C43.28 98.5733 43.2 98.36 43.2 98.104V88.776C43.2 88.4987 43.2907 88.2693 43.472 88.088C43.664 87.896 43.8987 87.8 44.176 87.8C44.3253 87.8 44.48 87.832 44.64 87.896C44.8 87.9493 44.9173 88.0347 44.992 88.152L51.088 95.928L50.816 96.12V88.696C50.816 88.44 50.896 88.2267 51.056 88.056C51.216 87.8853 51.4293 87.8 51.696 87.8ZM58.8376 99.16C57.931 99.16 57.1416 98.9733 56.4696 98.6C55.8083 98.216 55.2963 97.6987 54.9336 97.048C54.5816 96.3973 54.4056 95.6613 54.4056 94.84C54.4056 93.88 54.5976 93.064 54.9816 92.392C55.3763 91.7093 55.8883 91.1867 56.5176 90.824C57.147 90.4613 57.8136 90.28 58.5176 90.28C59.0616 90.28 59.5736 90.392 60.0536 90.616C60.5443 90.84 60.9763 91.1493 61.3496 91.544C61.723 91.928 62.0163 92.376 62.2296 92.888C62.4536 93.4 62.5656 93.944 62.5656 94.52C62.555 94.776 62.4536 94.984 62.2616 95.144C62.0696 95.304 61.8456 95.384 61.5896 95.384H55.4776L54.9976 93.784H60.8696L60.5176 94.104V93.672C60.4963 93.3627 60.3843 93.0853 60.1816 92.84C59.9896 92.5947 59.7443 92.4027 59.4456 92.264C59.1576 92.1147 58.8483 92.04 58.5176 92.04C58.1976 92.04 57.899 92.0827 57.6216 92.168C57.3443 92.2533 57.1043 92.3973 56.9016 92.6C56.699 92.8027 56.539 93.0747 56.4216 93.416C56.3043 93.7573 56.2456 94.1893 56.2456 94.712C56.2456 95.288 56.363 95.7787 56.5976 96.184C56.843 96.5787 57.1523 96.8827 57.5256 97.096C57.9096 97.2987 58.315 97.4 58.7416 97.4C59.1363 97.4 59.451 97.368 59.6856 97.304C59.9203 97.24 60.107 97.1653 60.2456 97.08C60.395 96.984 60.5283 96.904 60.6456 96.84C60.8376 96.744 61.019 96.696 61.1896 96.696C61.4243 96.696 61.6163 96.776 61.7656 96.936C61.9256 97.096 62.0056 97.2827 62.0056 97.496C62.0056 97.784 61.8563 98.0453 61.5576 98.28C61.2803 98.5147 60.891 98.7227 60.3896 98.904C59.8883 99.0747 59.371 99.16 58.8376 99.16ZM74.0991 90.44C74.3445 90.44 74.5578 90.536 74.7391 90.728C74.9205 90.9093 75.0111 91.144 75.0111 91.432C75.0111 91.5067 75.0058 91.576 74.9951 91.64C74.9845 91.6933 74.9685 91.7467 74.9471 91.8L72.4991 98.392C72.4245 98.6053 72.2911 98.7707 72.0991 98.888C71.9071 98.9947 71.7045 99.032 71.4911 99C71.1285 98.9787 70.8565 98.776 70.6751 98.392L69.0911 93.832L69.5071 93.848L68.0191 98.392C67.8378 98.776 67.5658 98.9787 67.2031 99C67.0005 99.032 66.7978 98.9947 66.5951 98.888C66.4031 98.7707 66.2698 98.6053 66.1951 98.392L63.7471 91.8C63.7045 91.6827 63.6831 91.56 63.6831 91.432C63.6831 91.176 63.7685 90.9467 63.9391 90.744C64.1098 90.5413 64.3445 90.44 64.6431 90.44C64.8458 90.44 65.0271 90.488 65.1871 90.584C65.3471 90.68 65.4591 90.8347 65.5231 91.048L67.4591 96.296L67.0591 96.264L68.5151 92.312C68.6858 91.9173 68.9791 91.72 69.3951 91.72C69.6298 91.72 69.8058 91.7733 69.9231 91.88C70.0511 91.976 70.1525 92.12 70.2271 92.312L71.6831 96.264L71.2031 96.328L73.1711 91.048C73.2991 90.6427 73.6085 90.44 74.0991 90.44ZM84.8168 90.28C85.4248 90.28 85.9528 90.344 86.4008 90.472C86.8594 90.6 87.2114 90.7813 87.4568 91.016C87.7128 91.24 87.8408 91.512 87.8408 91.832C87.8408 92.0453 87.7768 92.248 87.6488 92.44C87.5208 92.6213 87.3341 92.712 87.0888 92.712C86.9181 92.712 86.7741 92.6907 86.6568 92.648C86.5501 92.5947 86.4541 92.5307 86.3688 92.456C86.2834 92.3813 86.1821 92.312 86.0648 92.248C85.9581 92.184 85.7928 92.136 85.5688 92.104C85.3554 92.0613 85.1954 92.04 85.0888 92.04C84.5448 92.04 84.0808 92.1573 83.6968 92.392C83.3234 92.6267 83.0354 92.9467 82.8328 93.352C82.6301 93.7467 82.5288 94.2053 82.5288 94.728C82.5288 95.24 82.6301 95.6987 82.8328 96.104C83.0461 96.4987 83.3341 96.8133 83.6968 97.048C84.0701 97.2827 84.4968 97.4 84.9768 97.4C85.2434 97.4 85.4728 97.384 85.6648 97.352C85.8568 97.32 86.0168 97.272 86.1448 97.208C86.2941 97.1227 86.4274 97.032 86.5448 96.936C86.6621 96.84 86.8381 96.792 87.0728 96.792C87.3501 96.792 87.5634 96.8827 87.7128 97.064C87.8621 97.2347 87.9368 97.448 87.9368 97.704C87.9368 97.9707 87.7874 98.216 87.4888 98.44C87.1901 98.6533 86.7954 98.8293 86.3048 98.968C85.8248 99.096 85.3021 99.16 84.7368 99.16C83.8941 99.16 83.1634 98.968 82.5448 98.584C81.9261 98.1893 81.4461 97.656 81.1048 96.984C80.7741 96.312 80.6088 95.56 80.6088 94.728C80.6088 93.8533 80.7848 93.0853 81.1368 92.424C81.4994 91.752 81.9954 91.2293 82.6248 90.856C83.2648 90.472 83.9954 90.28 84.8168 90.28ZM91.4013 98.024C91.4013 98.3013 91.3053 98.536 91.1133 98.728C90.9319 98.9093 90.7026 99 90.4253 99C90.1586 99 89.9346 98.9093 89.7533 98.728C89.5719 98.536 89.4813 98.3013 89.4813 98.024V88.136C89.4813 87.8587 89.5719 87.6293 89.7533 87.448C89.9453 87.256 90.1799 87.16 90.4573 87.16C90.7346 87.16 90.9586 87.256 91.1293 87.448C91.3106 87.6293 91.4013 87.8587 91.4013 88.136V98.024ZM95.4418 98.024C95.4418 98.3013 95.3511 98.536 95.1698 98.728C94.9884 98.9093 94.7591 99 94.4818 99C94.2044 99 93.9751 98.9093 93.7938 98.728C93.6124 98.536 93.5218 98.3013 93.5218 98.024V91.416C93.5218 91.1387 93.6124 90.9093 93.7938 90.728C93.9751 90.536 94.2044 90.44 94.4818 90.44C94.7591 90.44 94.9884 90.536 95.1698 90.728C95.3511 90.9093 95.4418 91.1387 95.4418 91.416V98.024ZM94.4658 89.4C94.1031 89.4 93.8471 89.3413 93.6978 89.224C93.5484 89.1067 93.4738 88.8987 93.4738 88.6V88.296C93.4738 87.9867 93.5538 87.7787 93.7138 87.672C93.8844 87.5547 94.1404 87.496 94.4818 87.496C94.8551 87.496 95.1164 87.5547 95.2658 87.672C95.4151 87.7893 95.4898 87.9973 95.4898 88.296V88.6C95.4898 88.9093 95.4098 89.1227 95.2498 89.24C95.0898 89.3467 94.8284 89.4 94.4658 89.4ZM101.447 99.16C100.54 99.16 99.751 98.9733 99.079 98.6C98.4177 98.216 97.9057 97.6987 97.543 97.048C97.191 96.3973 97.015 95.6613 97.015 94.84C97.015 93.88 97.207 93.064 97.591 92.392C97.9857 91.7093 98.4977 91.1867 99.127 90.824C99.7563 90.4613 100.423 90.28 101.127 90.28C101.671 90.28 102.183 90.392 102.663 90.616C103.154 90.84 103.586 91.1493 103.959 91.544C104.332 91.928 104.626 92.376 104.839 92.888C105.063 93.4 105.175 93.944 105.175 94.52C105.164 94.776 105.063 94.984 104.871 95.144C104.679 95.304 104.455 95.384 104.199 95.384H98.087L97.607 93.784H103.479L103.127 94.104V93.672C103.106 93.3627 102.994 93.0853 102.791 92.84C102.599 92.5947 102.354 92.4027 102.055 92.264C101.767 92.1147 101.458 92.04 101.127 92.04C100.807 92.04 100.508 92.0827 100.231 92.168C99.9537 92.2533 99.7137 92.3973 99.511 92.6C99.3083 92.8027 99.1483 93.0747 99.031 93.416C98.9137 93.7573 98.855 94.1893 98.855 94.712C98.855 95.288 98.9723 95.7787 99.207 96.184C99.4523 96.5787 99.7617 96.8827 100.135 97.096C100.519 97.2987 100.924 97.4 101.351 97.4C101.746 97.4 102.06 97.368 102.295 97.304C102.53 97.24 102.716 97.1653 102.855 97.08C103.004 96.984 103.138 96.904 103.255 96.84C103.447 96.744 103.628 96.696 103.799 96.696C104.034 96.696 104.226 96.776 104.375 96.936C104.535 97.096 104.615 97.2827 104.615 97.496C104.615 97.784 104.466 98.0453 104.167 98.28C103.89 98.5147 103.5 98.7227 102.999 98.904C102.498 99.0747 101.98 99.16 101.447 99.16ZM111.429 90.28C112.218 90.28 112.815 90.4453 113.221 90.776C113.637 91.1067 113.919 91.5493 114.069 92.104C114.229 92.648 114.309 93.256 114.309 93.928V98.024C114.309 98.3013 114.218 98.536 114.036 98.728C113.855 98.9093 113.626 99 113.349 99C113.071 99 112.842 98.9093 112.661 98.728C112.479 98.536 112.389 98.3013 112.389 98.024V93.928C112.389 93.576 112.341 93.2613 112.245 92.984C112.159 92.696 111.999 92.4667 111.765 92.296C111.53 92.1253 111.194 92.04 110.757 92.04C110.33 92.04 109.967 92.1253 109.669 92.296C109.381 92.4667 109.157 92.696 108.997 92.984C108.847 93.2613 108.773 93.576 108.773 93.928V98.024C108.773 98.3013 108.682 98.536 108.501 98.728C108.319 98.9093 108.09 99 107.812 99C107.535 99 107.306 98.9093 107.125 98.728C106.943 98.536 106.853 98.3013 106.853 98.024V91.416C106.853 91.1387 106.943 90.9093 107.125 90.728C107.306 90.536 107.535 90.44 107.812 90.44C108.09 90.44 108.319 90.536 108.501 90.728C108.682 90.9093 108.773 91.1387 108.773 91.416V92.104L108.533 92.056C108.629 91.8747 108.767 91.6827 108.949 91.48C109.13 91.2667 109.343 91.0693 109.589 90.888C109.834 90.7067 110.111 90.5627 110.421 90.456C110.73 90.3387 111.066 90.28 111.429 90.28ZM116.48 90.6H120.272C120.528 90.6 120.741 90.6853 120.912 90.856C121.082 91.0267 121.168 91.24 121.168 91.496C121.168 91.7413 121.082 91.9493 120.912 92.12C120.741 92.28 120.528 92.36 120.272 92.36H116.48C116.224 92.36 116.01 92.2747 115.84 92.104C115.669 91.9333 115.584 91.72 115.584 91.464C115.584 91.2187 115.669 91.016 115.84 90.856C116.01 90.6853 116.224 90.6 116.48 90.6ZM118.192 88.6C118.469 88.6 118.693 88.696 118.864 88.888C119.045 89.0693 119.136 89.2987 119.136 89.576V96.696C119.136 96.8453 119.162 96.968 119.216 97.064C119.28 97.16 119.36 97.2293 119.456 97.272C119.562 97.3147 119.674 97.336 119.792 97.336C119.92 97.336 120.037 97.3147 120.144 97.272C120.25 97.2187 120.373 97.192 120.512 97.192C120.661 97.192 120.794 97.2613 120.912 97.4C121.04 97.5387 121.104 97.7307 121.104 97.976C121.104 98.2747 120.938 98.52 120.608 98.712C120.288 98.904 119.941 99 119.568 99C119.344 99 119.093 98.984 118.816 98.952C118.549 98.9093 118.293 98.8187 118.048 98.68C117.813 98.5307 117.616 98.3067 117.456 98.008C117.296 97.7093 117.216 97.2987 117.216 96.776V89.576C117.216 89.2987 117.306 89.0693 117.488 88.888C117.68 88.696 117.914 88.6 118.192 88.6Z" fill="#25253D"/>
<rect x="1" y="72" width="146" height="42" rx="21" stroke="#25253D" stroke-width="2"/>
<defs>
<clipPath id="clip0_721_41337">
<rect width="363" height="246.84" fill="white" transform="translate(74)"/>
</clipPath>
<clipPath id="clip1_721_41337">
<path d="M74 22.5059H437V241.032C437 244.24 434.4 246.84 431.192 246.84H79.808C76.6003 246.84 74 244.24 74 241.032V22.5059Z" fill="white"/>
</clipPath>
<clipPath id="clip2_721_41337">
<rect width="16" height="16" fill="white" transform="translate(18 85)"/>
</clipPath>
</defs>
</svg>
