<svg width="33" height="33" viewBox="0 0 33 33" fill="none" xmlns="http://www.w3.org/2000/svg">
<path d="M6.93323 20.8533C6.93323 22.7613 5.37459 24.3199 3.46661 24.3199C1.55863 24.3199 0 22.7613 0 20.8533C0 18.9453 1.55863 17.3867 3.46661 17.3867H6.93323V20.8533Z" fill="#E01E5A"/>
<path d="M8.67969 20.8533C8.67969 18.9453 10.2383 17.3867 12.1463 17.3867C14.0543 17.3867 15.6129 18.9453 15.6129 20.8533V29.5333C15.6129 31.4413 14.0543 32.9999 12.1463 32.9999C10.2383 32.9999 8.67969 31.4413 8.67969 29.5333V20.8533Z" fill="#E01E5A"/>
<path d="M12.1463 6.93323C10.2383 6.93323 8.67969 5.37459 8.67969 3.46661C8.67969 1.55863 10.2383 0 12.1463 0C14.0543 0 15.6129 1.55863 15.6129 3.46661V6.93323H12.1463Z" fill="#36C5F0"/>
<path d="M12.1466 8.67969C14.0546 8.67969 15.6132 10.2383 15.6132 12.1463C15.6132 14.0543 14.0546 15.6129 12.1466 15.6129H3.46661C1.55863 15.6129 0 14.0543 0 12.1463C0 10.2383 1.55863 8.67969 3.46661 8.67969H12.1466Z" fill="#36C5F0"/>
<path d="M26.0664 12.1463C26.0664 10.2383 27.625 8.67969 29.533 8.67969C31.441 8.67969 32.9996 10.2383 32.9996 12.1463C32.9996 14.0543 31.441 15.6129 29.533 15.6129H26.0664V12.1463Z" fill="#2EB67D"/>
<path d="M24.3199 12.1466C24.3199 14.0546 22.7613 15.6132 20.8533 15.6132C18.9453 15.6132 17.3867 14.0546 17.3867 12.1466V3.46661C17.3867 1.55863 18.9453 0 20.8533 0C22.7613 0 24.3199 1.55863 24.3199 3.46661V12.1466Z" fill="#2EB67D"/>
<path d="M20.8533 26.0664C22.7613 26.0664 24.3199 27.625 24.3199 29.533C24.3199 31.441 22.7613 32.9996 20.8533 32.9996C18.9453 32.9996 17.3867 31.441 17.3867 29.533V26.0664H20.8533Z" fill="#ECB22E"/>
<path d="M20.8533 24.3199C18.9453 24.3199 17.3867 22.7613 17.3867 20.8533C17.3867 18.9453 18.9453 17.3867 20.8533 17.3867H29.5333C31.4413 17.3867 32.9999 18.9453 32.9999 20.8533C32.9999 22.7613 31.4413 24.3199 29.5333 24.3199H20.8533Z" fill="#ECB22E"/>
</svg>
