<svg width="17" height="17" viewBox="0 0 17 17" fill="none" xmlns="http://www.w3.org/2000/svg">
<path d="M8.49935 10.6243C9.67295 10.6243 10.6243 9.67295 10.6243 8.49935C10.6243 7.32574 9.67295 6.37435 8.49935 6.37435C7.32574 6.37435 6.37435 7.32574 6.37435 8.49935C6.37435 9.67295 7.32574 10.6243 8.49935 10.6243Z" stroke="#FF355E" stroke-width="1.25" stroke-linecap="round" stroke-linejoin="round"/>
<path d="M13.2645 10.4312C13.1788 10.6254 13.1532 10.8408 13.1911 11.0497C13.229 11.2586 13.3285 11.4514 13.477 11.6031L13.5156 11.6418C13.6354 11.7614 13.7304 11.9034 13.7952 12.0598C13.86 12.2161 13.8934 12.3837 13.8934 12.5529C13.8934 12.7222 13.86 12.8898 13.7952 13.0461C13.7304 13.2025 13.6354 13.3445 13.5156 13.4641C13.396 13.5839 13.254 13.6789 13.0976 13.7437C12.9413 13.8085 12.7737 13.8418 12.6045 13.8418C12.4352 13.8418 12.2676 13.8085 12.1113 13.7437C11.9549 13.6789 11.8129 13.5839 11.6933 13.4641L11.6547 13.4255C11.5029 13.277 11.3101 13.1774 11.1012 13.1396C10.8924 13.1017 10.6769 13.1273 10.4827 13.213C10.2922 13.2946 10.1298 13.4302 10.0154 13.6029C9.90097 13.7757 9.83957 13.9781 9.83874 14.1853V14.2948C9.83874 14.6364 9.70306 14.9639 9.46153 15.2055C9.22001 15.447 8.89243 15.5827 8.55086 15.5827C8.2093 15.5827 7.88172 15.447 7.6402 15.2055C7.39867 14.9639 7.26298 14.6364 7.26298 14.2948V14.2368C7.258 14.0237 7.18901 13.817 7.06498 13.6436C6.94095 13.4702 6.76763 13.3381 6.56753 13.2645C6.37331 13.1788 6.15786 13.1532 5.94897 13.1911C5.74008 13.229 5.54732 13.3285 5.39556 13.477L5.35692 13.5156C5.23732 13.6354 5.09528 13.7304 4.93893 13.7952C4.78259 13.86 4.615 13.8934 4.44575 13.8934C4.2765 13.8934 4.10892 13.86 3.95257 13.7952C3.79622 13.7304 3.65419 13.6354 3.53458 13.5156C3.41483 13.396 3.31984 13.254 3.25503 13.0976C3.19022 12.9413 3.15686 12.7737 3.15686 12.6045C3.15686 12.4352 3.19022 12.2676 3.25503 12.1113C3.31984 11.9549 3.41483 11.8129 3.53458 11.6933L3.57321 11.6547C3.72166 11.5029 3.82125 11.3101 3.85912 11.1012C3.897 10.8924 3.87143 10.6769 3.78571 10.4827C3.70408 10.2922 3.56855 10.1298 3.39578 10.0154C3.22302 9.90097 3.02058 9.83957 2.81336 9.83874H2.70389C2.36233 9.83874 2.03475 9.70306 1.79323 9.46153C1.5517 9.22001 1.41602 8.89243 1.41602 8.55086C1.41602 8.2093 1.5517 7.88172 1.79323 7.6402C2.03475 7.39867 2.36233 7.26298 2.70389 7.26298H2.76185C2.97499 7.258 3.1817 7.18901 3.35511 7.06498C3.52852 6.94095 3.66061 6.76763 3.7342 6.56753C3.81992 6.37331 3.84549 6.15786 3.80761 5.94897C3.76973 5.74008 3.67015 5.54732 3.5217 5.39556L3.48306 5.35692C3.36332 5.23732 3.26833 5.09528 3.20351 4.93893C3.1387 4.78259 3.10534 4.615 3.10534 4.44575C3.10534 4.2765 3.1387 4.10892 3.20351 3.95257C3.26833 3.79622 3.36332 3.65419 3.48306 3.53458C3.60267 3.41483 3.74471 3.31984 3.90105 3.25503C4.0574 3.19022 4.22499 3.15686 4.39424 3.15686C4.56348 3.15686 4.73107 3.19022 4.88742 3.25503C5.04376 3.31984 5.1858 3.41483 5.30541 3.53458L5.34405 3.57321C5.49581 3.72166 5.68856 3.82125 5.89745 3.85912C6.10635 3.897 6.32179 3.87143 6.51602 3.78571H6.56753C6.75799 3.70408 6.92042 3.56855 7.03483 3.39578C7.14925 3.22302 7.21064 3.02058 7.21147 2.81336V2.70389C7.21147 2.36233 7.34716 2.03475 7.58868 1.79323C7.83021 1.5517 8.15778 1.41602 8.49935 1.41602C8.84092 1.41602 9.16849 1.5517 9.41002 1.79323C9.65154 2.03475 9.78723 2.36233 9.78723 2.70389V2.76185C9.78805 2.96906 9.84945 3.17151 9.96387 3.34427C10.0783 3.51703 10.2407 3.65257 10.4312 3.7342C10.6254 3.81992 10.8408 3.84549 11.0497 3.80761C11.2586 3.76973 11.4514 3.67015 11.6031 3.5217L11.6418 3.48306C11.7614 3.36332 11.9034 3.26833 12.0598 3.20351C12.2161 3.1387 12.3837 3.10534 12.5529 3.10534C12.7222 3.10534 12.8898 3.1387 13.0461 3.20351C13.2025 3.26833 13.3445 3.36332 13.4641 3.48306C13.5839 3.60267 13.6789 3.74471 13.7437 3.90105C13.8085 4.0574 13.8418 4.22499 13.8418 4.39424C13.8418 4.56348 13.8085 4.73107 13.7437 4.88742C13.6789 5.04376 13.5839 5.1858 13.4641 5.30541L13.4255 5.34405C13.277 5.49581 13.1774 5.68856 13.1396 5.89745C13.1017 6.10635 13.1273 6.32179 13.213 6.51602V6.56753C13.2946 6.75799 13.4302 6.92042 13.6029 7.03483C13.7757 7.14925 13.9781 7.21064 14.1853 7.21147H14.2948C14.6364 7.21147 14.9639 7.34716 15.2055 7.58868C15.447 7.83021 15.5827 8.15778 15.5827 8.49935C15.5827 8.84092 15.447 9.16849 15.2055 9.41002C14.9639 9.65154 14.6364 9.78723 14.2948 9.78723H14.2368C14.0296 9.78805 13.8272 9.84945 13.6544 9.96387C13.4817 10.0783 13.3461 10.2407 13.2645 10.4312Z" stroke="#FF355E" stroke-width="1.25" stroke-linecap="round" stroke-linejoin="round"/>
</svg>
