<svg width="18" height="18" viewBox="0 0 18 18" fill="none" xmlns="http://www.w3.org/2000/svg">
<path d="M16.5 7.33268H1.5M12.3333 0.666016V3.99935M5.66667 0.666016V3.99935M5.5 17.3327H12.5C13.9001 17.3327 14.6002 17.3327 15.135 17.0602C15.6054 16.8205 15.9878 16.4381 16.2275 15.9677C16.5 15.4329 16.5 14.7328 16.5 13.3327V6.33268C16.5 4.93255 16.5 4.23249 16.2275 3.69771C15.9878 3.2273 15.6054 2.84485 15.135 2.60517C14.6002 2.33268 13.9001 2.33268 12.5 2.33268H5.5C4.09987 2.33268 3.3998 2.33268 2.86502 2.60517C2.39462 2.84485 2.01217 3.2273 1.77248 3.69771C1.5 4.23249 1.5 4.93255 1.5 6.33268V13.3327C1.5 14.7328 1.5 15.4329 1.77248 15.9677C2.01217 16.4381 2.39462 16.8205 2.86502 17.0602C3.3998 17.3327 4.09987 17.3327 5.5 17.3327Z" stroke="#515164" stroke-width="1.25" stroke-linecap="round" stroke-linejoin="round"/>
</svg>
