<svg width="18" height="18" viewBox="0 0 18 18" fill="none" xmlns="http://www.w3.org/2000/svg">
<path d="M2.33268 5.66383C2.19601 5.6603 2.09676 5.65239 2.00753 5.63464C1.34638 5.50313 0.829551 4.9863 0.69804 4.32515C0.666016 4.16415 0.666016 3.97055 0.666016 3.58333C0.666016 3.19612 0.666016 3.00251 0.69804 2.84152C0.829551 2.18037 1.34638 1.66354 2.00753 1.53202C2.16853 1.5 2.36214 1.5 2.74935 1.5H15.2493C15.6366 1.5 15.8302 1.5 15.9912 1.53202C16.6523 1.66354 17.1691 2.18037 17.3007 2.84152C17.3327 3.00251 17.3327 3.19612 17.3327 3.58333C17.3327 3.97055 17.3327 4.16415 17.3007 4.32515C17.1691 4.9863 16.6523 5.50313 15.9912 5.63464C15.9019 5.65239 15.8027 5.6603 15.666 5.66383M7.33268 9.83333H10.666M2.33268 5.66667H15.666V12.5C15.666 13.9001 15.666 14.6002 15.3935 15.135C15.1538 15.6054 14.7714 15.9878 14.301 16.2275C13.7662 16.5 13.0661 16.5 11.666 16.5H6.33268C4.93255 16.5 4.23249 16.5 3.69771 16.2275C3.2273 15.9878 2.84485 15.6054 2.60517 15.135C2.33268 14.6002 2.33268 13.9001 2.33268 12.5V5.66667Z" stroke="#515164" stroke-width="1.25" stroke-linecap="round" stroke-linejoin="round"/>
</svg>
