<svg width="18" height="14" viewBox="0 0 18 14" fill="none" xmlns="http://www.w3.org/2000/svg">
<path d="M10.666 4.49935H8.58268C7.89233 4.49935 7.33268 5.05899 7.33268 5.74935C7.33268 6.4397 7.89233 6.99935 8.58268 6.99935H9.41602C10.1064 6.99935 10.666 7.55899 10.666 8.24935C10.666 8.9397 10.1064 9.49935 9.41602 9.49935H7.33268M8.99935 3.66602V4.49935M8.99935 9.49935V10.3327M13.9993 6.99935H14.0077M3.99935 6.99935H4.00768M0.666016 3.83268L0.666016 10.166C0.666016 11.0994 0.666016 11.5661 0.847671 11.9227C1.00746 12.2363 1.26243 12.4912 1.57603 12.651C1.93255 12.8327 2.39926 12.8327 3.33268 12.8327L14.666 12.8327C15.5994 12.8327 16.0661 12.8327 16.4227 12.651C16.7363 12.4912 16.9912 12.2363 17.151 11.9227C17.3327 11.5661 17.3327 11.0994 17.3327 10.166V3.83268C17.3327 2.89926 17.3327 2.43255 17.151 2.07603C16.9912 1.76243 16.7363 1.50746 16.4227 1.34767C16.0661 1.16602 15.5994 1.16602 14.666 1.16602L3.33268 1.16602C2.39926 1.16602 1.93255 1.16602 1.57603 1.34767C1.26243 1.50746 1.00746 1.76243 0.847672 2.07603C0.666016 2.43255 0.666016 2.89926 0.666016 3.83268ZM14.416 6.99935C14.416 7.22947 14.2295 7.41602 13.9993 7.41602C13.7692 7.41602 13.5827 7.22947 13.5827 6.99935C13.5827 6.76923 13.7692 6.58268 13.9993 6.58268C14.2295 6.58268 14.416 6.76923 14.416 6.99935ZM4.41602 6.99935C4.41602 7.22947 4.22947 7.41602 3.99935 7.41602C3.76923 7.41602 3.58268 7.22947 3.58268 6.99935C3.58268 6.76923 3.76923 6.58268 3.99935 6.58268C4.22947 6.58268 4.41602 6.76923 4.41602 6.99935Z" stroke="#515164" stroke-width="1.25" stroke-linecap="round" stroke-linejoin="round"/>
</svg>
