<svg width="18" height="18" viewBox="0 0 18 18" fill="none" xmlns="http://www.w3.org/2000/svg">
<path d="M12.3333 5.66726V2.75113C12.3333 2.05802 12.3333 1.71146 12.1873 1.49848C12.0598 1.31241 11.8622 1.186 11.6398 1.14816C11.3852 1.10484 11.0706 1.25007 10.4413 1.54052L3.04918 4.95225C2.48792 5.21129 2.20729 5.34081 2.00175 5.54169C1.82005 5.71927 1.68135 5.93605 1.59625 6.17545C1.5 6.44625 1.5 6.75532 1.5 7.37348V11.5006M12.75 11.0839H12.7583M1.5 8.33392L1.5 13.8339C1.5 14.7673 1.5 15.2341 1.68166 15.5906C1.84144 15.9042 2.09641 16.1591 2.41002 16.3189C2.76654 16.5006 3.23325 16.5006 4.16667 16.5006H13.8333C14.7668 16.5006 15.2335 16.5006 15.59 16.3189C15.9036 16.1591 16.1586 15.9042 16.3183 15.5906C16.5 15.2341 16.5 14.7673 16.5 13.8339V8.33392C16.5 7.4005 16.5 6.93379 16.3183 6.57727C16.1586 6.26367 15.9036 6.0087 15.59 5.84891C15.2335 5.66726 14.7668 5.66726 13.8333 5.66726L4.16667 5.66726C3.23325 5.66726 2.76654 5.66726 2.41002 5.84891C2.09641 6.0087 1.84144 6.26367 1.68166 6.57727C1.5 6.93379 1.5 7.4005 1.5 8.33392ZM13.1667 11.0839C13.1667 11.314 12.9801 11.5006 12.75 11.5006C12.5199 11.5006 12.3333 11.314 12.3333 11.0839C12.3333 10.8538 12.5199 10.6673 12.75 10.6673C12.9801 10.6673 13.1667 10.8538 13.1667 11.0839Z" stroke="#515164" stroke-width="1.25" stroke-linecap="round" stroke-linejoin="round"/>
</svg>
