<svg width="18" height="18" viewBox="0 0 18 18" fill="none" xmlns="http://www.w3.org/2000/svg">
<path d="M0.666016 5.98037C0.666016 5.68844 0.666016 5.54247 0.678197 5.41952C0.795683 4.23374 1.73374 3.29568 2.91952 3.1782C3.04247 3.16602 3.19631 3.16602 3.504 3.16602C3.62256 3.16602 3.68184 3.16602 3.73217 3.16297C4.37486 3.12404 4.93764 2.71841 5.1778 2.12101C5.19661 2.07423 5.21419 2.02149 5.24935 1.91602C5.28451 1.81054 5.30209 1.7578 5.32089 1.71102C5.56106 1.11362 6.12384 0.707987 6.76653 0.669064C6.81686 0.666016 6.87245 0.666016 6.98363 0.666016H11.0151C11.1262 0.666016 11.1818 0.666016 11.2322 0.669064C11.8749 0.707987 12.4376 1.11362 12.6778 1.71102C12.6966 1.7578 12.7142 1.81054 12.7493 1.91602C12.7845 2.02149 12.8021 2.07423 12.8209 2.12101C13.0611 2.71841 13.6238 3.12404 14.2665 3.16297C14.3169 3.16602 14.3761 3.16602 14.4947 3.16602C14.8024 3.16602 14.9562 3.16602 15.0792 3.1782C16.265 3.29568 17.203 4.23374 17.3205 5.41952C17.3327 5.54247 17.3327 5.68844 17.3327 5.98037V12.4993C17.3327 13.8995 17.3327 14.5995 17.0602 15.1343C16.8205 15.6047 16.4381 15.9872 15.9677 16.2269C15.4329 16.4993 14.7328 16.4993 13.3327 16.4993H4.66602C3.26588 16.4993 2.56582 16.4993 2.03104 16.2269C1.56063 15.9872 1.17818 15.6047 0.938499 15.1343C0.666016 14.5995 0.666016 13.8995 0.666016 12.4993V5.98037Z" stroke="#515164" stroke-width="1.25" stroke-linecap="round" stroke-linejoin="round"/>
<path d="M8.99935 12.7493C10.8403 12.7493 12.3327 11.257 12.3327 9.41602C12.3327 7.57507 10.8403 6.08268 8.99935 6.08268C7.1584 6.08268 5.66602 7.57507 5.66602 9.41602C5.66602 11.257 7.1584 12.7493 8.99935 12.7493Z" stroke="#515164" stroke-width="1.25" stroke-linecap="round" stroke-linejoin="round"/>
</svg>
