<svg width="18" height="17" viewBox="0 0 18 17" fill="none" xmlns="http://www.w3.org/2000/svg">
<path d="M17.3327 15.668V14.0013C17.3327 12.4481 16.2704 11.143 14.8327 10.773M11.916 0.910268C13.1376 1.40476 13.9993 2.60239 13.9993 4.0013C13.9993 5.40021 13.1376 6.59785 11.916 7.09234M13.166 15.668C13.166 14.1148 13.166 13.3383 12.9123 12.7257C12.574 11.9089 11.9251 11.26 11.1083 10.9217C10.4957 10.668 9.71915 10.668 8.16602 10.668H5.66602C4.11288 10.668 3.33631 10.668 2.72374 10.9217C1.90698 11.26 1.25806 11.9089 0.919751 12.7257C0.666016 13.3383 0.666016 14.1148 0.666016 15.668M10.2493 4.0013C10.2493 5.84225 8.75696 7.33464 6.91602 7.33464C5.07507 7.33464 3.58268 5.84225 3.58268 4.0013C3.58268 2.16035 5.07507 0.667969 6.91602 0.667969C8.75696 0.667969 10.2493 2.16035 10.2493 4.0013Z" stroke="#515164" stroke-width="1.25" stroke-linecap="round" stroke-linejoin="round"/>
</svg>
