<svg width="18" height="18" viewBox="0 0 18 18" fill="none" xmlns="http://www.w3.org/2000/svg">
<path d="M0.666016 8.999L8.70121 13.0166C8.81052 13.0713 8.86518 13.0986 8.92252 13.1093C8.97329 13.1189 9.0254 13.1189 9.07618 13.1093C9.13351 13.0986 9.18817 13.0713 9.29749 13.0166L17.3327 8.999M0.666016 13.1657L8.70121 17.1833C8.81052 17.2379 8.86518 17.2652 8.92252 17.276C8.97329 17.2855 9.0254 17.2855 9.07618 17.276C9.13351 17.2652 9.18817 17.2379 9.29749 17.1833L17.3327 13.1657M0.666016 4.83233L8.70121 0.814734C8.81052 0.760075 8.86518 0.732745 8.92252 0.721989C8.97329 0.712462 9.0254 0.712462 9.07618 0.721989C9.13351 0.732745 9.18817 0.760075 9.29749 0.814734L17.3327 4.83233L9.29749 8.84992C9.18817 8.90458 9.13351 8.93191 9.07618 8.94267C9.0254 8.9522 8.97329 8.9522 8.92252 8.94267C8.86518 8.93191 8.81052 8.90458 8.70121 8.84992L0.666016 4.83233Z" stroke="#515164" stroke-width="1.25" stroke-linecap="round" stroke-linejoin="round"/>
</svg>
