<svg width="18" height="16" viewBox="0 0 18 16" fill="none" xmlns="http://www.w3.org/2000/svg">
<path d="M7.33268 4.66732V3.83398M7.33268 8.41732V7.58398M7.33268 12.1673V11.334M3.33268 1.33398H14.666C15.5994 1.33398 16.0661 1.33398 16.4227 1.51564C16.7363 1.67543 16.9912 1.9304 17.151 2.244C17.3327 2.60052 17.3327 3.06723 17.3327 4.00065V5.08398C15.7219 5.08398 14.416 6.38982 14.416 8.00065C14.416 9.61148 15.7219 10.9173 17.3327 10.9173V12.0007C17.3327 12.9341 17.3327 13.4008 17.151 13.7573C16.9912 14.0709 16.7363 14.3259 16.4227 14.4857C16.0661 14.6673 15.5994 14.6673 14.666 14.6673H3.33268C2.39926 14.6673 1.93255 14.6673 1.57603 14.4857C1.26243 14.3259 1.00746 14.0709 0.847671 13.7573C0.666016 13.4008 0.666016 12.9341 0.666016 12.0007V10.9173C2.27685 10.9173 3.58268 9.61148 3.58268 8.00065C3.58268 6.38982 2.27685 5.08398 0.666016 5.08398V4.00065C0.666016 3.06723 0.666016 2.60052 0.847671 2.244C1.00746 1.9304 1.26243 1.67543 1.57603 1.51564C1.93255 1.33398 2.39926 1.33398 3.33268 1.33398Z" stroke="#515164" stroke-width="1.25" stroke-linecap="round" stroke-linejoin="round"/>
</svg>
