<svg width="18" height="18" viewBox="0 0 18 18" fill="none" xmlns="http://www.w3.org/2000/svg">
<path d="M12.3322 5.66667C12.3322 6.55072 11.981 7.39857 11.3559 8.02369C10.7307 8.64881 9.8829 9 8.99884 9C8.11479 9 7.26694 8.64881 6.64182 8.02369C6.0167 7.39857 5.66551 6.55072 5.66551 5.66667M2.02652 5.16782L1.44319 12.1678C1.31788 13.6716 1.25522 14.4235 1.50941 15.0035C1.73275 15.5131 2.1197 15.9336 2.609 16.1985C3.1659 16.5 3.92039 16.5 5.42937 16.5H12.5683C14.0773 16.5 14.8318 16.5 15.3887 16.1985C15.878 15.9336 16.2649 15.5131 16.4883 15.0035C16.7425 14.4235 16.6798 13.6716 16.5545 12.1678L15.9712 5.16782C15.8633 3.87396 15.8094 3.22703 15.5229 2.73738C15.2706 2.3062 14.8949 1.9605 14.4442 1.74487C13.9325 1.5 13.2833 1.5 11.985 1.5L6.01271 1.5C4.71436 1.5 4.06519 1.5 3.55344 1.74487C3.1028 1.9605 2.72709 2.3062 2.47478 2.73738C2.18826 3.22703 2.13435 3.87396 2.02652 5.16782Z" stroke="#515164" stroke-width="1.25" stroke-linecap="round" stroke-linejoin="round"/>
</svg>
