<svg width="240" height="439" viewBox="0 0 240 439" fill="none" xmlns="http://www.w3.org/2000/svg">
<g clip-path="url(#clip0_682_36586)">
<path d="M209.5 23.962V431C209.5 435.142 206.142 438.5 202 438.5H8C3.85786 438.5 0.5 435.142 0.5 431V24.0018L11.9494 32.6143L12.1954 32.7993L12.4713 32.6631L26.2427 25.8649L39.142 32.6571L39.375 32.7798L39.608 32.6571L52.5 25.8688L65.392 32.6571L65.625 32.7798L65.858 32.6571L78.75 25.8688L91.642 32.6571L91.875 32.7798L92.108 32.6571L105 25.8688L117.892 32.6571L118.125 32.7798L118.358 32.6571L131.25 25.8688L144.142 32.6571L144.375 32.7798L144.608 32.6571L157.5 25.8688L170.392 32.6571L170.625 32.7798L170.858 32.6571L183.75 25.8688L196.642 32.6571L196.912 32.7995L197.162 32.624L209.5 23.962Z" fill="white" stroke="#E9E9EC"/>
<rect x="65" y="103" width="80" height="8" rx="4" fill="#F1F1F1"/>
<rect x="65" y="183" width="80" height="8" rx="4" fill="#F1F1F1"/>
<rect x="45" y="159" width="56" height="8" rx="4" fill="#F1F1F1"/>
<rect x="16" y="239" width="16" height="8" rx="4" fill="#F1F1F1"/>
<rect x="16" y="263" width="16" height="8" rx="4" fill="#F1F1F1"/>
<rect x="16" y="287" width="16" height="8" rx="4" fill="#F1F1F1"/>
<rect x="16" y="327" width="72" height="8" rx="4" fill="#F1F1F1"/>
<rect x="16" y="351" width="40" height="8" rx="4" fill="#F1F1F1"/>
<rect x="40" y="239" width="88" height="8" rx="4" fill="#F1F1F1"/>
<rect x="40" y="263" width="88" height="8" rx="4" fill="#F1F1F1"/>
<rect x="40" y="287" width="88" height="8" rx="4" fill="#F1F1F1"/>
<rect x="162" y="239" width="32" height="8" rx="4" fill="#F1F1F1"/>
<rect x="162" y="263" width="32" height="8" rx="4" fill="#F1F1F1"/>
<rect x="162" y="327" width="32" height="8" rx="4" fill="#F1F1F1"/>
<rect x="162" y="287" width="32" height="8" rx="4" fill="#F1F1F1"/>
<rect x="162" y="351" width="32" height="8" rx="4" fill="#F1F1F1"/>
<rect x="109" y="159" width="56" height="8" rx="4" fill="#F1F1F1"/>
<line x1="17" y1="134" x2="193" y2="134" stroke="#DBE1E8" stroke-width="2" stroke-linecap="round" stroke-dasharray="8 8"/>
<line x1="17" y1="214" x2="193" y2="214" stroke="#DBE1E8" stroke-width="2" stroke-linecap="round" stroke-dasharray="8 8"/>
<rect x="45" y="63" width="120" height="24" rx="8" fill="#F1F1F1"/>
<path d="M85.9701 414.906C88.1403 411.297 89.7014 408.22 89.9917 403.991C90.1557 401.6 90.0746 399.19 90.0746 396.796C90.0746 395.964 89.8512 390.339 90.1575 393.157C90.9657 400.595 94.3509 408.423 97.9104 414.987C99.287 417.526 101.476 420.301 102.388 423M80 384C86.1207 386.743 83.3898 397.473 82.529 402.396C82.09 404.907 82.1272 408.412 84.8507 409.755C92.003 413.281 101.803 412.182 109.519 412.616C116.386 413.003 123.152 411.594 130 411.594M100.149 407.547C100.349 407.877 102.23 411.449 103.217 410.572C104.606 409.34 105.488 408.321 107.384 407.752C108.959 407.279 108.732 408.138 109.478 409.305C110.054 410.208 109.853 409.728 110.804 409.387C113.383 408.462 114.901 408.544 117.438 409.591C119.104 410.279 121.884 409.824 123.657 409.387" stroke="#F1F1F1" stroke-width="2" stroke-linecap="round"/>
<path d="M211.574 48.6348C223.172 48.6348 232.574 39.2327 232.574 27.6348C232.574 16.0368 223.172 6.63477 211.574 6.63477C199.976 6.63477 190.574 16.0368 190.574 27.6348C190.574 39.2327 199.976 48.6348 211.574 48.6348Z" fill="#FF355E" stroke="#FF355E" stroke-width="2.16467" stroke-linecap="round" stroke-linejoin="round"/>
<path d="M221.199 22.3848L208.366 34.6348L201.949 28.5098" stroke="white" stroke-width="4" stroke-linecap="round" stroke-linejoin="round"/>
</g>
<defs>
<clipPath id="clip0_682_36586">
<rect width="240" height="439" fill="white"/>
</clipPath>
</defs>
</svg>
