<svg width="363" height="247" viewBox="0 0 363 247" fill="none" xmlns="http://www.w3.org/2000/svg">
<g clip-path="url(#clip0_682_36649)">
<path d="M0.363 5.808C0.363 2.80081 2.80081 0.363 5.808 0.363H357.192C360.199 0.363 362.637 2.80081 362.637 5.808V22.869H0.363V5.808Z" fill="white"/>
<circle cx="11.6159" cy="11.9997" r="2.904" fill="#FF355E"/>
<circle cx="20.3278" cy="11.9997" r="2.904" fill="#ECB22E"/>
<circle cx="29.0397" cy="11.9997" r="2.904" fill="#198337"/>
<path d="M0.363 5.808C0.363 2.80081 2.80081 0.363 5.808 0.363H357.192C360.199 0.363 362.637 2.80081 362.637 5.808V22.869H0.363V5.808Z" stroke="#E9E9EC" stroke-width="0.726"/>
<g clip-path="url(#clip1_682_36649)">
<path d="M0 22.5059H363V241.032C363 244.24 360.4 246.84 357.192 246.84H5.80801C2.60034 246.84 0 244.24 0 241.032V22.5059Z" fill="white"/>
<rect x="40.6562" y="80.5859" width="174.24" height="40.656" rx="5.808" fill="#FAFAFA"/>
<rect x="75.5039" y="39.9297" width="139.392" height="23.232" rx="5.808" fill="#FAFAFA"/>
<rect x="235.224" y="39.9297" width="87.12" height="23.232" rx="5.808" fill="#FAFAFA"/>
<rect x="40.6562" y="214.17" width="174.24" height="40.656" rx="5.808" fill="#FAFAFA"/>
<rect x="40.6562" y="132.857" width="174.24" height="69.696" rx="5.808" fill="#FF355E"/>
<rect x="235.224" y="80.5859" width="87.12" height="145.2" rx="5.808" fill="#FAFAFA"/>
<circle cx="52.2722" cy="51.5457" r="11.616" fill="#FAFAFA"/>
<path d="M52.3686 58.6455C55.8353 58.6455 58.6455 55.8353 58.6455 52.3686C58.6455 48.902 55.8353 46.0918 52.3686 46.0918C48.902 46.0918 46.0918 48.902 46.0918 52.3686C46.0918 55.8353 48.902 58.6455 52.3686 58.6455Z" stroke="#F1F1F1" stroke-width="1.39486" stroke-miterlimit="10"/>
<path d="M52.3693 54.4612C53.8137 54.4612 54.9846 53.2902 54.9846 51.8458C54.9846 50.4014 53.8137 49.2305 52.3693 49.2305C50.9248 49.2305 49.7539 50.4014 49.7539 51.8458C49.7539 53.2902 50.9248 54.4612 52.3693 54.4612Z" stroke="#F1F1F1" stroke-width="1.39486" stroke-miterlimit="10"/>
<path d="M48.1719 57.0354C48.5659 56.2607 49.1666 55.6102 49.9074 55.1558C50.6483 54.7014 51.5005 54.4609 52.3696 54.4609C53.2387 54.4609 54.0908 54.7014 54.8317 55.1558C55.5726 55.6102 56.1733 56.2607 56.5673 57.0353" stroke="#F1F1F1" stroke-width="1.39486" stroke-linecap="round" stroke-linejoin="round"/>
</g>
<path d="M0.363 22.8689H362.637V241.032C362.637 244.039 360.199 246.477 357.192 246.477H5.80801C2.80082 246.477 0.363 244.039 0.363 241.032V22.8689Z" stroke="#E9E9EC" stroke-width="0.726"/>
</g>
<defs>
<clipPath id="clip0_682_36649">
<rect width="363" height="246.84" fill="white"/>
</clipPath>
<clipPath id="clip1_682_36649">
<path d="M0 22.5059H363V241.032C363 244.24 360.4 246.84 357.192 246.84H5.80801C2.60034 246.84 0 244.24 0 241.032V22.5059Z" fill="white"/>
</clipPath>
</defs>
</svg>
